<?xml version="1.0" encoding="utf-8"?>
<!-- Generator: Adobe Illustrator 15.0.0, SVG Export Plug-In . SVG Version: 6.00 Build 0)  -->
<!DOCTYPE svg PUBLIC "-//W3C//DTD SVG 1.1//EN" "http://www.w3.org/Graphics/SVG/1.1/DTD/svg11.dtd">
<svg version="1.1" id="Layer_1" xmlns="http://www.w3.org/2000/svg" xmlns:xlink="http://www.w3.org/1999/xlink" x="0px" y="0px"
	 width="250px" height="172.995px" viewBox="0 0 250 172.995" enable-background="new 0 0 250 172.995" xml:space="preserve">
<g>
	<path fill="#4D6B6D" d="M208.914,88.811c-2.627,6.179-5.931,12.65-9.871,19.296h44.724
		C236.423,100.584,224.325,93.972,208.914,88.811z"/>
	<path fill="#4D6B6D" d="M13.062,108.107h37.894c-3.494-5.893-6.482-11.646-8.949-17.183
		C29.406,95.73,19.439,101.575,13.062,108.107z"/>
	<path fill="#86341F" d="M208.914,88.811c9.049-21.283,10.003-39.074,0.707-48.37c-9.56-9.559-28.103-8.281-50.189,1.495
		c4.201,10.876,7.585,23.737,9.906,37.966C183.997,81.903,197.385,84.949,208.914,88.811z"/>
	<path fill="#502B1A" d="M169.337,79.901c1.327,8.132,2.306,16.71,2.892,25.621c0.755,0.861,1.518,1.722,2.255,2.585h24.559
		c3.94-6.646,7.244-13.117,9.871-19.296C197.385,84.949,183.997,81.903,169.337,79.901z"/>
	<path fill="#BDC9B1" d="M90.568,41.936c-22.086-9.776-40.629-11.054-50.188-1.495c-9.603,9.602-8.266,28.268,1.628,50.483
		c11.014-4.201,24.045-7.605,38.487-9.972C82.818,66.306,86.264,53.079,90.568,41.936z"/>
	<path fill="#72A897" d="M80.494,80.952c-14.441,2.367-27.473,5.771-38.487,9.972c2.466,5.537,5.455,11.29,8.949,17.183h24.558
		c0.738-0.863,1.501-1.724,2.256-2.586C78.331,96.993,79.253,88.771,80.494,80.952z"/>
	<path fill="#5C331D" d="M172.388,108.107h2.097c-0.738-0.863-1.5-1.724-2.255-2.585
		C172.285,106.381,172.339,107.242,172.388,108.107z"/>
	<path fill="#764324" d="M75.514,108.107h2.097c0.049-0.865,0.103-1.727,0.159-2.586C77.015,106.383,76.252,107.244,75.514,108.107z
		"/>
	<path fill="#F1B517" d="M159.432,41.936C150.728,19.404,138.52,5.389,125,5.389S99.271,19.404,90.568,41.936
		c10.838,4.797,22.528,11.641,34.431,20.258C136.902,53.577,148.593,46.733,159.432,41.936z"/>
	<path fill="#F24905" d="M144.288,77.595c8.665,0.433,17.045,1.214,25.049,2.307c-2.321-14.229-5.705-27.089-9.906-37.966
		c-10.838,4.797-22.529,11.641-34.433,20.258C131.401,66.829,137.864,71.978,144.288,77.595z"/>
	<path fill="#973D04" d="M158.848,91.215c4.718,4.718,9.171,9.502,13.381,14.307c-0.585-8.911-1.565-17.488-2.892-25.621
		c-8.004-1.093-16.385-1.874-25.049-2.307C149.179,81.871,154.046,86.414,158.848,91.215z"/>
	<path fill="#F8E072" d="M105.192,78.048c6.595-5.794,13.232-11.095,19.807-15.854c-11.903-8.617-23.593-15.46-34.431-20.258
		c-4.304,11.143-7.75,24.37-10.074,39.016C88.347,79.665,96.609,78.683,105.192,78.048z"/>
	<path fill="#D7CD42" d="M77.77,105.521c4.209-4.805,8.664-9.588,13.381-14.307c4.631-4.632,9.326-9.023,14.042-13.167
		c-8.583,0.635-16.846,1.617-24.698,2.904C79.253,88.771,78.331,96.993,77.77,105.521z"/>
	<path fill="#F97207" d="M105.192,78.048c7.522-0.557,15.281-0.853,23.221-0.853c5.381,0,10.676,0.141,15.875,0.4
		c-6.424-5.617-12.887-10.766-19.289-15.401C118.425,66.953,111.787,72.254,105.192,78.048z"/>
	<path fill="#DF5F06" d="M158.848,91.215c-4.801-4.801-9.669-9.345-14.56-13.621c-5.199-0.259-10.494-0.4-15.875-0.4
		c-7.94,0-15.699,0.296-23.221,0.853c-4.716,4.143-9.41,8.535-14.042,13.167c-4.717,4.718-9.171,9.501-13.381,14.307
		c-0.056,0.859-0.11,1.721-0.159,2.586h94.776c-0.049-0.865-0.103-1.726-0.159-2.585C168.019,100.717,163.565,95.933,158.848,91.215
		z"/>
</g>
<g>
	<path fill="#4D6B6D" d="M25.716,113.123l6.059,40.74H20.948l-0.569-7.323H16.59l-0.637,7.323H5l5.404-40.74H25.716z
		 M20.102,139.318c-0.536-4.614-1.074-10.318-1.614-17.111c-1.079,7.801-1.757,13.505-2.033,17.111H20.102z"/>
	<path fill="#4D6B6D" d="M52.069,113.123v8.152h-6.292v32.588H35.184v-32.588h-6.265v-8.152H52.069z"/>
	<path fill="#4D6B6D" d="M78.692,136.978c0,4.093-0.097,6.991-0.29,8.693c-0.192,1.703-0.797,3.259-1.811,4.668
		c-1.016,1.409-2.387,2.491-4.115,3.246s-3.741,1.133-6.039,1.133c-2.181,0-4.14-0.357-5.876-1.07
		c-1.736-0.713-3.133-1.781-4.189-3.208c-1.057-1.426-1.687-2.978-1.887-4.655c-0.202-1.678-0.302-4.613-0.302-8.807v-6.971
		c0-4.094,0.096-6.991,0.29-8.694c0.193-1.702,0.796-3.259,1.812-4.668c1.014-1.409,2.386-2.491,4.114-3.246s3.741-1.133,6.04-1.133
		c2.181,0,4.139,0.357,5.875,1.07c1.737,0.713,3.133,1.782,4.19,3.208c1.056,1.426,1.686,2.979,1.887,4.655
		c0.201,1.678,0.301,4.613,0.301,8.808V136.978z M68.099,123.59c0-1.896-0.105-3.108-0.315-3.637
		c-0.21-0.527-0.642-0.792-1.296-0.792c-0.554,0-0.978,0.214-1.271,0.642s-0.44,1.69-0.44,3.787v19.023
		c0,2.365,0.096,3.825,0.29,4.379c0.192,0.554,0.641,0.83,1.346,0.83c0.721,0,1.183-0.318,1.384-0.956
		c0.202-0.638,0.302-2.155,0.302-4.555V123.59z"/>
	<path fill="#4D6B6D" d="M115.332,113.123v40.74h-9.26l-0.013-27.505l-3.687,27.505h-6.568l-3.888-26.876l-0.012,26.876h-9.26
		v-40.74h13.708c0.407,2.449,0.826,5.336,1.258,8.661l1.503,10.362l2.435-19.023H115.332z"/>
	<path fill="#4D6B6D" d="M130.178,113.123v40.74h-10.593v-40.74H130.178z"/>
	<path fill="#4D6B6D" d="M159.167,130.862h-10.594v-7.08c0-2.06-0.113-3.344-0.339-3.854c-0.227-0.51-0.726-0.766-1.498-0.766
		c-0.872,0-1.426,0.311-1.66,0.931c-0.236,0.621-0.353,1.963-0.353,4.026v18.924c0,1.979,0.117,3.271,0.353,3.875
		c0.234,0.604,0.763,0.905,1.585,0.905c0.788,0,1.304-0.302,1.548-0.907c0.243-0.605,0.365-2.026,0.365-4.264v-5.121h10.594v1.588
		c0,4.217-0.298,7.207-0.894,8.971c-0.596,1.765-1.913,3.311-3.951,4.638s-4.551,1.991-7.537,1.991
		c-3.104,0-5.662-0.562-7.675-1.687c-2.013-1.123-3.346-2.68-4.001-4.668c-0.654-1.988-0.981-4.979-0.981-8.971v-11.902
		c0-2.936,0.101-5.137,0.302-6.605c0.201-1.468,0.801-2.881,1.799-4.24c0.998-1.358,2.381-2.428,4.152-3.208
		c1.769-0.78,3.803-1.171,6.102-1.171c3.121,0,5.695,0.604,7.726,1.811c2.03,1.205,3.363,2.71,4.001,4.511
		c0.638,1.8,0.957,4.603,0.957,8.405V130.862z"/>
	<path fill="#4D6B6D" d="M190.363,113.123l6.059,40.74h-10.827l-0.568-7.323h-3.79l-0.636,7.323h-10.953l5.404-40.74H190.363z
		 M184.749,139.318c-0.536-4.614-1.075-10.318-1.614-17.111c-1.079,7.801-1.758,13.505-2.033,17.111H184.749z"/>
	<path fill="#4D6B6D" d="M222.528,128.12h-10.594v-3.699c0-2.332-0.1-3.791-0.302-4.378c-0.201-0.587-0.679-0.881-1.434-0.881
		c-0.654,0-1.1,0.252-1.334,0.755c-0.235,0.503-0.353,1.795-0.353,3.875v19.552c0,1.83,0.117,3.032,0.353,3.611
		c0.234,0.579,0.705,0.868,1.409,0.868c0.771,0,1.296-0.327,1.572-0.981s0.415-1.929,0.415-3.824v-4.832h-2.139v-6.19h12.405v21.868
		h-6.657l-0.979-2.919c-0.722,1.258-1.633,2.201-2.732,2.83s-2.396,0.944-3.891,0.944c-1.779,0-3.446-0.433-4.999-1.296
		c-1.553-0.864-2.731-1.934-3.538-3.209c-0.806-1.274-1.31-2.612-1.511-4.014c-0.201-1.4-0.302-3.502-0.302-6.303v-12.104
		c0-3.892,0.209-6.719,0.629-8.479c0.419-1.763,1.623-3.376,3.611-4.845c1.987-1.468,4.559-2.202,7.712-2.202
		c3.104,0,5.679,0.639,7.726,1.913c2.047,1.275,3.38,2.789,4.001,4.542s0.931,4.299,0.931,7.637V128.12z"/>
	<path fill="#4D6B6D" d="M226.631,113.123h17.665v8.152h-7.071V129h6.618v7.75h-6.618v8.959H245v8.153h-18.369V113.123z"/>
</g>
<g>
	<path fill="#4D6B6D" d="M43.062,161.311c0.172-0.549,0.43-1.034,0.774-1.456c0.344-0.422,0.776-0.759,1.297-1.009
		c0.521-0.249,1.125-0.374,1.813-0.374c0.688,0,1.291,0.125,1.807,0.374c0.516,0.25,0.946,0.587,1.291,1.009
		s0.603,0.907,0.774,1.456c0.172,0.549,0.258,1.127,0.258,1.733s-0.086,1.185-0.258,1.733c-0.172,0.549-0.43,1.032-0.774,1.45
		s-0.774,0.752-1.291,1.002s-1.119,0.375-1.807,0.375c-0.688,0-1.293-0.125-1.813-0.375s-0.953-0.584-1.297-1.002
		c-0.344-0.418-0.602-0.901-0.774-1.45c-0.172-0.549-0.258-1.127-0.258-1.733S42.89,161.86,43.062,161.311z M43.83,164.452
		c0.127,0.464,0.324,0.877,0.59,1.242c0.266,0.364,0.609,0.657,1.026,0.879c0.418,0.221,0.917,0.331,1.5,0.331
		c0.582,0,1.079-0.11,1.493-0.331c0.414-0.222,0.754-0.515,1.02-0.879c0.267-0.365,0.463-0.778,0.59-1.242
		c0.127-0.463,0.19-0.932,0.19-1.407c0-0.483-0.063-0.955-0.19-1.414c-0.127-0.458-0.324-0.87-0.59-1.234
		c-0.266-0.365-0.606-0.658-1.02-0.879c-0.414-0.222-0.912-0.332-1.493-0.332c-0.583,0-1.082,0.11-1.5,0.332
		c-0.417,0.221-0.76,0.514-1.026,0.879c-0.266,0.364-0.463,0.776-0.59,1.234c-0.127,0.459-0.19,0.931-0.19,1.414
		C43.64,163.52,43.703,163.989,43.83,164.452z"/>
	<path fill="#4D6B6D" d="M56.275,158.657c0.394,0,0.75,0.055,1.069,0.165c0.32,0.111,0.594,0.274,0.824,0.492
		c0.229,0.217,0.406,0.481,0.528,0.793c0.123,0.312,0.185,0.664,0.185,1.057c0,0.394-0.062,0.746-0.185,1.058
		c-0.123,0.312-0.299,0.575-0.528,0.793c-0.229,0.217-0.504,0.381-0.824,0.491c-0.319,0.11-0.676,0.166-1.069,0.166h-3.061v3.762
		h-0.836v-8.776H56.275z M56.091,162.958c0.582,0,1.053-0.147,1.413-0.442c0.361-0.295,0.542-0.746,0.542-1.353
		s-0.181-1.057-0.542-1.352c-0.36-0.295-0.832-0.442-1.413-0.442h-2.876v3.589H56.091z"/>
	<path fill="#4D6B6D" d="M66.183,158.657v0.713h-5.224v3.171h4.893v0.713h-4.893v3.467h5.286v0.713h-6.122v-8.776H66.183z"/>
	<path fill="#4D6B6D" d="M68.334,158.657l5.113,7.424h0.024v-7.424h0.836v8.776h-0.934l-5.113-7.425h-0.025v7.425h-0.836v-8.776
		H68.334z"/>
	<path fill="#4D6B6D" d="M76.668,165.674c0.147,0.304,0.35,0.546,0.608,0.726c0.258,0.181,0.563,0.31,0.916,0.388
		c0.352,0.077,0.729,0.116,1.131,0.116c0.229,0,0.479-0.032,0.75-0.098c0.27-0.065,0.522-0.17,0.756-0.313s0.428-0.328,0.583-0.553
		c0.156-0.226,0.233-0.499,0.233-0.818c0-0.246-0.055-0.458-0.166-0.639s-0.254-0.332-0.43-0.455s-0.371-0.223-0.584-0.301
		c-0.213-0.078-0.422-0.142-0.627-0.191l-1.955-0.479c-0.254-0.064-0.502-0.146-0.743-0.245c-0.242-0.099-0.453-0.229-0.633-0.394
		c-0.181-0.164-0.326-0.364-0.436-0.602c-0.111-0.238-0.167-0.529-0.167-0.873c0-0.213,0.041-0.463,0.123-0.75
		c0.082-0.286,0.236-0.558,0.461-0.812c0.226-0.254,0.535-0.469,0.928-0.646c0.394-0.176,0.897-0.264,1.512-0.264
		c0.434,0,0.848,0.057,1.241,0.172c0.393,0.114,0.738,0.286,1.032,0.516c0.295,0.229,0.531,0.516,0.707,0.854
		c0.176,0.34,0.264,0.735,0.264,1.187h-0.836c-0.017-0.336-0.092-0.629-0.227-0.879c-0.136-0.25-0.312-0.459-0.529-0.627
		s-0.467-0.295-0.75-0.381c-0.283-0.086-0.58-0.129-0.892-0.129c-0.287,0-0.563,0.03-0.83,0.092s-0.5,0.16-0.701,0.295
		c-0.201,0.135-0.363,0.313-0.485,0.535c-0.123,0.221-0.185,0.495-0.185,0.823c0,0.205,0.035,0.383,0.104,0.534
		c0.07,0.152,0.166,0.281,0.289,0.388s0.264,0.193,0.424,0.258c0.16,0.065,0.33,0.119,0.51,0.16l2.139,0.528
		c0.312,0.082,0.604,0.183,0.879,0.302c0.274,0.118,0.516,0.266,0.725,0.442c0.209,0.177,0.373,0.391,0.492,0.646
		c0.119,0.254,0.178,0.562,0.178,0.921c0,0.099-0.01,0.23-0.03,0.394c-0.021,0.164-0.07,0.339-0.147,0.523
		c-0.078,0.184-0.189,0.37-0.332,0.559c-0.144,0.188-0.34,0.358-0.59,0.51c-0.25,0.152-0.56,0.275-0.928,0.369
		s-0.811,0.142-1.328,0.142c-0.516,0-0.996-0.06-1.438-0.179c-0.443-0.118-0.82-0.301-1.131-0.547
		c-0.312-0.246-0.551-0.562-0.719-0.946s-0.24-0.849-0.215-1.39h0.836C76.45,164.995,76.52,165.372,76.668,165.674z"/>
	<path fill="#4D6B6D" d="M91.123,158.657c0.394,0,0.75,0.055,1.069,0.165c0.32,0.111,0.594,0.274,0.824,0.492
		c0.229,0.217,0.406,0.481,0.529,0.793s0.184,0.664,0.184,1.057c0,0.394-0.061,0.746-0.184,1.058s-0.299,0.575-0.529,0.793
		c-0.229,0.217-0.504,0.381-0.824,0.491c-0.319,0.11-0.676,0.166-1.069,0.166h-3.061v3.762h-0.836v-8.776H91.123z M90.938,162.958
		c0.582,0,1.053-0.147,1.414-0.442c0.36-0.295,0.541-0.746,0.541-1.353s-0.181-1.057-0.541-1.352
		c-0.361-0.295-0.832-0.442-1.414-0.442h-2.876v3.589H90.938z"/>
	<path fill="#4D6B6D" d="M94.761,161.311c0.172-0.549,0.43-1.034,0.774-1.456c0.344-0.422,0.776-0.759,1.296-1.009
		c0.521-0.249,1.125-0.374,1.813-0.374c0.688,0,1.291,0.125,1.807,0.374c0.516,0.25,0.946,0.587,1.29,1.009
		c0.344,0.422,0.603,0.907,0.775,1.456c0.172,0.549,0.258,1.127,0.258,1.733s-0.086,1.185-0.258,1.733
		c-0.172,0.549-0.431,1.032-0.775,1.45c-0.344,0.418-0.774,0.752-1.29,1.002c-0.517,0.25-1.119,0.375-1.807,0.375
		c-0.688,0-1.293-0.125-1.813-0.375s-0.953-0.584-1.296-1.002c-0.344-0.418-0.603-0.901-0.774-1.45
		c-0.172-0.549-0.258-1.127-0.258-1.733S94.589,161.86,94.761,161.311z M95.529,164.452c0.127,0.464,0.324,0.877,0.59,1.242
		c0.266,0.364,0.609,0.657,1.026,0.879c0.418,0.221,0.918,0.331,1.5,0.331c0.582,0,1.08-0.11,1.494-0.331
		c0.413-0.222,0.753-0.515,1.02-0.879c0.266-0.365,0.462-0.778,0.59-1.242c0.127-0.463,0.19-0.932,0.19-1.407
		c0-0.483-0.063-0.955-0.19-1.414c-0.127-0.458-0.324-0.87-0.59-1.234c-0.267-0.365-0.607-0.658-1.02-0.879
		c-0.414-0.222-0.912-0.332-1.494-0.332c-0.582,0-1.082,0.11-1.5,0.332c-0.417,0.221-0.76,0.514-1.026,0.879
		c-0.266,0.364-0.463,0.776-0.59,1.234c-0.127,0.459-0.19,0.931-0.19,1.414C95.339,163.52,95.402,163.989,95.529,164.452z"/>
	<path fill="#4D6B6D" d="M104.681,165.674c0.147,0.304,0.35,0.546,0.608,0.726c0.258,0.181,0.563,0.31,0.916,0.388
		c0.352,0.077,0.729,0.116,1.13,0.116c0.229,0,0.479-0.032,0.75-0.098s0.522-0.17,0.756-0.313s0.428-0.328,0.584-0.553
		c0.156-0.226,0.233-0.499,0.233-0.818c0-0.246-0.055-0.458-0.166-0.639c-0.111-0.181-0.254-0.332-0.43-0.455
		c-0.176-0.123-0.371-0.223-0.584-0.301c-0.213-0.078-0.422-0.142-0.627-0.191l-1.955-0.479c-0.254-0.064-0.502-0.146-0.744-0.245
		s-0.453-0.229-0.633-0.394c-0.18-0.164-0.326-0.364-0.436-0.602c-0.11-0.238-0.166-0.529-0.166-0.873
		c0-0.213,0.041-0.463,0.123-0.75c0.082-0.286,0.235-0.558,0.461-0.812s0.535-0.469,0.928-0.646
		c0.394-0.176,0.897-0.264,1.512-0.264c0.434,0,0.848,0.057,1.242,0.172c0.393,0.114,0.737,0.286,1.032,0.516
		s0.53,0.516,0.707,0.854c0.176,0.34,0.264,0.735,0.264,1.187h-0.836c-0.017-0.336-0.092-0.629-0.228-0.879
		s-0.311-0.459-0.528-0.627s-0.467-0.295-0.75-0.381s-0.58-0.129-0.891-0.129c-0.287,0-0.563,0.03-0.83,0.092
		c-0.267,0.062-0.5,0.16-0.701,0.295c-0.201,0.135-0.363,0.313-0.485,0.535c-0.123,0.221-0.185,0.495-0.185,0.823
		c0,0.205,0.035,0.383,0.104,0.534c0.07,0.152,0.166,0.281,0.289,0.388c0.123,0.106,0.265,0.193,0.424,0.258
		c0.16,0.065,0.33,0.119,0.51,0.16l2.139,0.528c0.312,0.082,0.604,0.183,0.879,0.302c0.274,0.118,0.516,0.266,0.725,0.442
		s0.373,0.391,0.492,0.646c0.119,0.254,0.178,0.562,0.178,0.921c0,0.099-0.01,0.23-0.031,0.394
		c-0.021,0.164-0.069,0.339-0.147,0.523c-0.078,0.184-0.188,0.37-0.332,0.559c-0.143,0.188-0.34,0.358-0.59,0.51
		c-0.25,0.152-0.559,0.275-0.928,0.369c-0.369,0.094-0.812,0.142-1.328,0.142c-0.516,0-0.996-0.06-1.438-0.179
		c-0.442-0.118-0.819-0.301-1.13-0.547c-0.312-0.246-0.551-0.562-0.719-0.946c-0.168-0.385-0.24-0.849-0.215-1.39h0.836
		C104.463,164.995,104.533,165.372,104.681,165.674z"/>
	<path fill="#4D6B6D" d="M117.833,158.657v0.713h-3.061v8.063h-0.836v-8.063h-3.048v-0.713H117.833z"/>
	<path fill="#4D6B6D" d="M124.71,160.408c-0.168-0.266-0.374-0.489-0.615-0.67c-0.242-0.181-0.508-0.317-0.799-0.412
		c-0.291-0.094-0.596-0.141-0.916-0.141c-0.582,0-1.082,0.11-1.5,0.332c-0.418,0.221-0.76,0.514-1.027,0.879
		c-0.266,0.364-0.462,0.776-0.59,1.234c-0.127,0.459-0.19,0.931-0.19,1.414c0,0.476,0.063,0.944,0.19,1.407
		c0.127,0.464,0.324,0.877,0.59,1.242c0.267,0.364,0.609,0.657,1.027,0.879c0.418,0.221,0.917,0.331,1.5,0.331
		c0.41,0,0.778-0.073,1.106-0.221c0.327-0.148,0.61-0.348,0.848-0.603c0.238-0.254,0.431-0.551,0.578-0.892
		c0.147-0.34,0.242-0.706,0.283-1.1h0.836c-0.058,0.541-0.185,1.028-0.381,1.463c-0.197,0.434-0.451,0.803-0.762,1.106
		c-0.312,0.303-0.678,0.536-1.1,0.7s-0.891,0.246-1.407,0.246c-0.688,0-1.293-0.125-1.813-0.375
		c-0.521-0.25-0.953-0.584-1.297-1.002s-0.603-0.901-0.774-1.45s-0.258-1.127-0.258-1.733s0.086-1.185,0.258-1.733
		s0.43-1.034,0.774-1.456s0.776-0.759,1.297-1.009c0.52-0.249,1.125-0.374,1.813-0.374c0.418,0,0.826,0.061,1.223,0.185
		c0.397,0.122,0.758,0.305,1.082,0.547c0.324,0.241,0.594,0.539,0.812,0.891c0.217,0.353,0.354,0.759,0.412,1.217h-0.836
		C124.999,160.975,124.878,160.674,124.71,160.408z"/>
	<path fill="#4D6B6D" d="M130.813,158.657l3.441,8.776h-0.897l-1.069-2.729h-3.996l-1.057,2.729h-0.885l3.528-8.776H130.813z
		 M132.005,163.991l-1.696-4.499l-1.758,4.499H132.005z"/>
	<path fill="#4D6B6D" d="M139.073,158.657c0.36,0,0.703,0.045,1.026,0.135c0.323,0.091,0.606,0.228,0.848,0.412
		c0.242,0.184,0.435,0.422,0.578,0.713s0.215,0.633,0.215,1.026c0,0.558-0.144,1.041-0.431,1.45
		c-0.287,0.409-0.712,0.672-1.278,0.787v0.023c0.287,0.042,0.524,0.117,0.712,0.228c0.188,0.111,0.343,0.252,0.461,0.425
		c0.119,0.172,0.205,0.37,0.258,0.596c0.053,0.226,0.088,0.47,0.105,0.731c0.008,0.147,0.016,0.328,0.024,0.541
		c0.008,0.214,0.025,0.428,0.049,0.646c0.024,0.217,0.063,0.422,0.117,0.614c0.053,0.192,0.124,0.342,0.215,0.449h-0.921
		c-0.05-0.082-0.089-0.183-0.118-0.302s-0.049-0.241-0.061-0.369c-0.012-0.126-0.023-0.251-0.031-0.374
		c-0.008-0.123-0.016-0.229-0.025-0.32c-0.017-0.312-0.043-0.62-0.079-0.928c-0.038-0.307-0.116-0.582-0.234-0.824
		c-0.119-0.241-0.291-0.436-0.516-0.583c-0.225-0.147-0.534-0.213-0.928-0.197h-3.171v3.897h-0.836v-8.776H139.073z
		 M139.012,162.823c0.253,0,0.496-0.038,0.725-0.116s0.43-0.19,0.602-0.338c0.172-0.147,0.31-0.325,0.412-0.535
		c0.103-0.209,0.153-0.449,0.153-0.719c0-0.541-0.156-0.967-0.467-1.278c-0.312-0.312-0.787-0.467-1.426-0.467h-3.122v3.453H139.012
		z"/>
	<path fill="#4D6B6D" d="M146.289,158.657c1.335,0.032,2.34,0.407,3.017,1.124s1.015,1.806,1.015,3.264
		c0,1.459-0.338,2.546-1.015,3.264c-0.676,0.717-1.682,1.092-3.017,1.125h-3.037v-8.776H146.289z M145.87,166.72
		c0.631,0,1.174-0.067,1.629-0.203c0.455-0.136,0.83-0.351,1.125-0.646c0.294-0.295,0.511-0.676,0.651-1.144
		c0.139-0.467,0.209-1.028,0.209-1.684s-0.07-1.217-0.209-1.684c-0.14-0.468-0.356-0.849-0.651-1.144
		c-0.295-0.295-0.67-0.511-1.125-0.646c-0.455-0.135-0.998-0.202-1.629-0.202h-1.782v7.351H145.87z"/>
	<path fill="#4D6B6D" d="M158.986,158.657c0.394,0,0.75,0.055,1.069,0.165c0.319,0.111,0.594,0.274,0.824,0.492
		c0.229,0.217,0.405,0.481,0.528,0.793s0.185,0.664,0.185,1.057c0,0.394-0.062,0.746-0.185,1.058s-0.299,0.575-0.528,0.793
		c-0.229,0.217-0.504,0.381-0.824,0.491s-0.675,0.166-1.069,0.166h-3.061v3.762h-0.836v-8.776H158.986z M158.802,162.958
		c0.582,0,1.053-0.147,1.413-0.442c0.361-0.295,0.542-0.746,0.542-1.353s-0.18-1.057-0.542-1.352
		c-0.36-0.295-0.831-0.442-1.413-0.442h-2.876v3.589H158.802z"/>
	<path fill="#4D6B6D" d="M166.853,158.657c0.36,0,0.703,0.045,1.026,0.135c0.324,0.091,0.606,0.228,0.848,0.412
		c0.242,0.184,0.435,0.422,0.579,0.713c0.143,0.291,0.215,0.633,0.215,1.026c0,0.558-0.144,1.041-0.431,1.45
		c-0.287,0.409-0.712,0.672-1.277,0.787v0.023c0.287,0.042,0.524,0.117,0.712,0.228c0.189,0.111,0.343,0.252,0.461,0.425
		c0.119,0.172,0.205,0.37,0.258,0.596c0.053,0.226,0.088,0.47,0.104,0.731c0.008,0.147,0.016,0.328,0.024,0.541
		c0.008,0.214,0.025,0.428,0.05,0.646c0.024,0.217,0.063,0.422,0.117,0.614c0.053,0.192,0.124,0.342,0.215,0.449h-0.922
		c-0.049-0.082-0.088-0.183-0.117-0.302s-0.049-0.241-0.062-0.369c-0.012-0.126-0.022-0.251-0.031-0.374
		c-0.008-0.123-0.016-0.229-0.024-0.32c-0.017-0.312-0.043-0.62-0.08-0.928c-0.037-0.307-0.115-0.582-0.234-0.824
		c-0.119-0.241-0.291-0.436-0.516-0.583c-0.226-0.147-0.534-0.213-0.928-0.197h-3.172v3.897h-0.836v-8.776H166.853z
		 M166.792,162.823c0.253,0,0.496-0.038,0.725-0.116c0.229-0.078,0.43-0.19,0.602-0.338c0.172-0.147,0.31-0.325,0.412-0.535
		c0.103-0.209,0.153-0.449,0.153-0.719c0-0.541-0.156-0.967-0.467-1.278c-0.312-0.312-0.787-0.467-1.426-0.467h-3.123v3.453H166.792
		z"/>
	<path fill="#4D6B6D" d="M170.823,161.311c0.172-0.549,0.43-1.034,0.774-1.456c0.344-0.422,0.776-0.759,1.297-1.009
		c0.52-0.249,1.125-0.374,1.813-0.374c0.688,0,1.29,0.125,1.807,0.374c0.516,0.25,0.946,0.587,1.29,1.009
		c0.344,0.422,0.603,0.907,0.775,1.456c0.172,0.549,0.258,1.127,0.258,1.733s-0.086,1.185-0.258,1.733
		c-0.172,0.549-0.431,1.032-0.775,1.45c-0.344,0.418-0.773,0.752-1.29,1.002c-0.517,0.25-1.119,0.375-1.807,0.375
		c-0.688,0-1.293-0.125-1.813-0.375c-0.521-0.25-0.953-0.584-1.297-1.002c-0.344-0.418-0.602-0.901-0.774-1.45
		s-0.259-1.127-0.259-1.733S170.651,161.86,170.823,161.311z M171.592,164.452c0.126,0.464,0.323,0.877,0.589,1.242
		c0.266,0.364,0.608,0.657,1.026,0.879c0.418,0.221,0.917,0.331,1.5,0.331c0.582,0,1.079-0.11,1.494-0.331
		c0.414-0.222,0.753-0.515,1.02-0.879c0.266-0.365,0.463-0.778,0.59-1.242c0.126-0.463,0.191-0.932,0.191-1.407
		c0-0.483-0.064-0.955-0.191-1.414c-0.127-0.458-0.324-0.87-0.59-1.234c-0.266-0.365-0.606-0.658-1.02-0.879
		c-0.415-0.222-0.912-0.332-1.494-0.332c-0.583,0-1.082,0.11-1.5,0.332c-0.418,0.221-0.76,0.514-1.026,0.879
		c-0.267,0.364-0.463,0.776-0.589,1.234c-0.128,0.459-0.191,0.931-0.191,1.414C171.401,163.52,171.464,163.989,171.592,164.452z"/>
	<path fill="#4D6B6D" d="M184.516,158.657v6.33c0,0.45-0.045,0.84-0.135,1.168c-0.091,0.327-0.235,0.598-0.436,0.812
		c-0.202,0.212-0.464,0.372-0.787,0.479c-0.324,0.106-0.724,0.16-1.199,0.16c-0.5,0-0.91-0.084-1.229-0.252
		c-0.32-0.168-0.57-0.389-0.75-0.664c-0.181-0.274-0.304-0.592-0.369-0.953c-0.065-0.359-0.099-0.732-0.099-1.118h0.836
		c0.008,0.188,0.02,0.414,0.037,0.677c0.017,0.262,0.074,0.512,0.173,0.749c0.097,0.238,0.259,0.441,0.485,0.609
		c0.225,0.168,0.556,0.251,0.989,0.251c0.327,0,0.598-0.043,0.812-0.129c0.213-0.086,0.381-0.221,0.504-0.405
		s0.208-0.42,0.258-0.707c0.049-0.286,0.074-0.631,0.074-1.032v-5.974H184.516z"/>
	<path fill="#4D6B6D" d="M192.347,158.657v0.713h-5.225v3.171h4.893v0.713h-4.893v3.467h5.286v0.713h-6.122v-8.776H192.347z"/>
	<path fill="#4D6B6D" d="M199.629,160.408c-0.168-0.266-0.373-0.489-0.614-0.67c-0.242-0.181-0.509-0.317-0.8-0.412
		c-0.291-0.094-0.596-0.141-0.915-0.141c-0.582,0-1.081,0.11-1.5,0.332c-0.418,0.221-0.76,0.514-1.026,0.879
		c-0.267,0.364-0.463,0.776-0.59,1.234c-0.127,0.459-0.19,0.931-0.19,1.414c0,0.476,0.063,0.944,0.19,1.407
		c0.127,0.464,0.323,0.877,0.59,1.242c0.267,0.364,0.608,0.657,1.026,0.879c0.419,0.221,0.918,0.331,1.5,0.331
		c0.409,0,0.778-0.073,1.105-0.221c0.328-0.148,0.611-0.348,0.849-0.603c0.237-0.254,0.431-0.551,0.577-0.892
		c0.148-0.34,0.242-0.706,0.283-1.1h0.836c-0.057,0.541-0.184,1.028-0.381,1.463c-0.196,0.434-0.451,0.803-0.762,1.106
		c-0.312,0.303-0.679,0.536-1.101,0.7s-0.891,0.246-1.407,0.246c-0.688,0-1.293-0.125-1.813-0.375s-0.952-0.584-1.297-1.002
		c-0.344-0.418-0.602-0.901-0.774-1.45c-0.172-0.549-0.258-1.127-0.258-1.733s0.086-1.185,0.258-1.733
		c0.173-0.549,0.431-1.034,0.774-1.456c0.345-0.422,0.776-0.759,1.297-1.009c0.521-0.249,1.125-0.374,1.813-0.374
		c0.418,0,0.826,0.061,1.224,0.185c0.397,0.122,0.757,0.305,1.081,0.547c0.323,0.241,0.594,0.539,0.812,0.891
		c0.217,0.353,0.354,0.759,0.412,1.217h-0.837C199.918,160.975,199.797,160.674,199.629,160.408z"/>
	<path fill="#4D6B6D" d="M208.239,158.657v0.713h-3.061v8.063h-0.836v-8.063h-3.048v-0.713H208.239z"/>
</g>
</svg>
