<?xml version="1.0" encoding="utf-8"?>
<!-- Generator: Adobe Illustrator 16.0.0, SVG Export Plug-In . SVG Version: 6.00 Build 0)  -->
<!DOCTYPE svg PUBLIC "-//W3C//DTD SVG 1.1//EN" "http://www.w3.org/Graphics/SVG/1.1/DTD/svg11.dtd">
<svg version="1.1" id="Layer_1" xmlns="http://www.w3.org/2000/svg" xmlns:xlink="http://www.w3.org/1999/xlink" x="0px" y="0px"
	 width="223.332px" height="100.351px" viewBox="283.675 259.982 223.332 100.351"
	 enable-background="new 283.675 259.982 223.332 100.351" xml:space="preserve">
<g opacity="0.5" enable-background="new    ">
	<rect x="283.675" y="259.982" fill="#F7E6B6" width="223.332" height="100.351"/>
</g>
<g>
	<rect x="293.164" y="268.334" fill="#F7E6B6" width="203.614" height="83.299"/>
</g>
<g>
	
		<rect x="388.396" y="308.601" transform="matrix(-0.9957 0.0924 -0.0924 -0.9957 816.9997 582.5732)" fill="#EFE8AA" width="13.228" height="3.209"/>
</g>
<g>
	
		<rect x="387.77" y="309.368" transform="matrix(-0.8908 -0.4544 0.4544 -0.8908 595.9397 765.1778)" fill="#EFE8AA" width="4.311" height="3.208"/>
</g>
<path d="M468.012,282.589c-3.486-1.022-7.314-1.541-11.379-1.541c-6.871,0-12.806,2.632-17.64,7.823
	c-4.827,5.174-7.274,11.541-7.274,18.922c0,4.707,1.3,8.421,3.864,11.037c2.565,2.619,6.211,3.947,10.834,3.947
	c4.24,0,9.221-1.141,14.804-3.39l0.251-0.101l0.742-3.702l-0.885,0.396c-4.285,1.917-8.377,2.89-12.161,2.89
	c-3.296,0-5.918-1.038-7.793-3.085c-1.885-2.063-2.841-4.949-2.841-8.577c0-3.061,0.624-6.346,1.856-9.765
	c1.23-3.423,2.841-6.326,4.784-8.628c2.889-3.431,6.294-5.17,10.122-5.17c2.556,0,4.649,0.454,6.224,1.349
	c1.503,0.854,2.233,1.922,2.233,3.264c0,0.494-0.084,1.138-0.249,1.914l-0.128,0.604h2.636l2.486-8.044L468.012,282.589z"/>
<path d="M361.981,282.181c-3.479-1.022-7.307-1.541-11.38-1.541c-6.871,0-12.806,2.631-17.638,7.821
	c-4.827,5.18-7.275,11.547-7.275,18.924c0,4.706,1.3,8.42,3.864,11.038c2.567,2.619,6.213,3.947,10.835,3.947
	c4.234,0,9.214-1.141,14.804-3.391l0.251-0.101l0.74-3.701l-0.884,0.396c-4.286,1.917-8.377,2.89-12.16,2.89
	c-3.295,0-5.917-1.038-7.792-3.085c-1.886-2.064-2.842-4.949-2.842-8.576c0-3.059,0.625-6.345,1.857-9.766
	c1.229-3.419,2.838-6.323,4.784-8.629c2.89-3.432,6.295-5.172,10.123-5.172c2.552,0,4.646,0.455,6.224,1.351
	c1.502,0.855,2.233,1.923,2.233,3.263c0,0.492-0.084,1.136-0.25,1.916l-0.128,0.604h2.638l2.484-8.046L361.981,282.181z"/>
<g>
	<g>
		<g>
			<path d="M315.653,333.127c-0.168-0.736-0.479-1.26-0.937-1.572c-0.456-0.311-1.053-0.467-1.788-0.467
				c-0.521,0-0.968,0.104-1.344,0.311c-0.376,0.209-0.687,0.488-0.931,0.843c-0.244,0.352-0.424,0.758-0.539,1.217
				c-0.117,0.461-0.174,0.947-0.174,1.459c0,0.479,0.049,0.951,0.148,1.416c0.102,0.463,0.268,0.877,0.498,1.242
				c0.231,0.362,0.544,0.655,0.938,0.881c0.391,0.226,0.883,0.336,1.476,0.336c0.368,0,0.704-0.062,1.008-0.18
				c0.304-0.119,0.569-0.285,0.798-0.498c0.229-0.211,0.42-0.464,0.576-0.75c0.156-0.287,0.273-0.604,0.354-0.947h0.853
				c-0.097,0.416-0.236,0.81-0.42,1.183c-0.185,0.371-0.427,0.696-0.726,0.979c-0.302,0.279-0.664,0.502-1.094,0.666
				c-0.428,0.162-0.93,0.244-1.506,0.244c-0.664,0-1.23-0.121-1.704-0.365c-0.472-0.244-0.856-0.574-1.157-0.99
				s-0.519-0.898-0.654-1.445c-0.135-0.549-0.203-1.131-0.203-1.746c0-0.823,0.102-1.522,0.306-2.1
				c0.204-0.576,0.486-1.047,0.848-1.41c0.358-0.365,0.782-0.629,1.271-0.793s1.021-0.246,1.596-0.246
				c0.439,0,0.851,0.06,1.23,0.174c0.38,0.117,0.716,0.291,1.008,0.523s0.531,0.518,0.722,0.857c0.188,0.34,0.316,0.734,0.389,1.182
				h-0.841V333.127z"/>
		</g>
		<g>
			<path d="M318.522,336.318c0,0.338,0.043,0.654,0.131,0.955s0.219,0.561,0.391,0.778c0.172,0.222,0.391,0.396,0.654,0.529
				c0.264,0.131,0.566,0.196,0.912,0.196c0.472,0,0.875-0.123,1.211-0.371c0.336-0.247,0.561-0.602,0.672-1.057h0.805
				c-0.088,0.295-0.204,0.57-0.348,0.822c-0.146,0.252-0.324,0.471-0.541,0.66c-0.215,0.188-0.472,0.334-0.769,0.438
				c-0.296,0.104-0.64,0.156-1.03,0.156c-0.496,0-0.925-0.084-1.285-0.252c-0.359-0.168-0.655-0.398-0.888-0.691
				c-0.231-0.291-0.403-0.635-0.517-1.03c-0.113-0.396-0.168-0.822-0.168-1.277c0-0.457,0.065-0.885,0.198-1.285
				c0.132-0.397,0.32-0.75,0.562-1.049c0.244-0.301,0.542-0.537,0.895-0.709s0.752-0.258,1.201-0.258
				c0.854,0,1.526,0.295,2.016,0.883s0.728,1.44,0.72,2.562H318.522L318.522,336.318z M322.577,335.719
				c0-0.303-0.041-0.59-0.125-0.857c-0.084-0.266-0.209-0.5-0.372-0.694c-0.164-0.196-0.37-0.354-0.618-0.469
				c-0.248-0.115-0.532-0.175-0.852-0.175c-0.32,0-0.604,0.062-0.848,0.181c-0.244,0.121-0.452,0.28-0.624,0.479
				s-0.311,0.433-0.414,0.695c-0.103,0.264-0.172,0.545-0.202,0.84H322.577z"/>
		</g>
		<g>
			<path d="M325.47,339.26h-0.721v-6.217h0.721v0.865c0.288-0.305,0.586-0.553,0.896-0.744c0.307-0.193,0.678-0.289,1.108-0.289
				c0.386,0,0.74,0.066,1.068,0.199c0.328,0.131,0.604,0.361,0.828,0.689c0.151,0.225,0.242,0.452,0.27,0.688
				c0.028,0.235,0.042,0.481,0.042,0.737v4.068h-0.72v-4.057c0-0.561-0.125-0.98-0.372-1.26c-0.248-0.279-0.66-0.42-1.236-0.42
				c-0.224,0-0.428,0.032-0.611,0.102c-0.185,0.068-0.351,0.158-0.498,0.27c-0.147,0.113-0.273,0.24-0.377,0.385
				c-0.104,0.146-0.186,0.298-0.24,0.455c-0.072,0.201-0.116,0.394-0.133,0.576c-0.017,0.187-0.023,0.385-0.023,0.603L325.47,339.26
				L325.47,339.26z"/>
		</g>
		<g>
			<path d="M333.605,339.283c-0.089,0.016-0.204,0.045-0.349,0.084c-0.144,0.039-0.304,0.061-0.479,0.061
				c-0.361,0-0.636-0.09-0.822-0.27c-0.188-0.182-0.282-0.502-0.282-0.967v-4.549h-0.876v-0.601h0.876v-1.729h0.72v1.729h1.164
				v0.601h-1.164v4.26c0,0.152,0.005,0.285,0.013,0.396c0.008,0.113,0.032,0.205,0.071,0.277c0.04,0.069,0.103,0.123,0.187,0.153
				c0.084,0.033,0.203,0.049,0.354,0.049c0.098,0,0.194-0.008,0.295-0.022c0.1-0.015,0.197-0.037,0.294-0.062L333.605,339.283
				L333.605,339.283z"/>
		</g>
		<g>
			<path d="M335.202,336.318c0,0.338,0.043,0.654,0.131,0.955s0.219,0.561,0.391,0.778c0.173,0.222,0.392,0.396,0.654,0.529
				c0.264,0.131,0.567,0.196,0.912,0.196c0.472,0,0.875-0.123,1.211-0.371c0.336-0.247,0.561-0.602,0.672-1.057h0.805
				c-0.088,0.295-0.203,0.57-0.348,0.822s-0.324,0.471-0.541,0.66c-0.215,0.188-0.472,0.334-0.768,0.438
				c-0.296,0.104-0.641,0.156-1.031,0.156c-0.496,0-0.924-0.084-1.285-0.252c-0.359-0.168-0.655-0.398-0.887-0.691
				c-0.232-0.291-0.404-0.635-0.518-1.03c-0.112-0.396-0.168-0.822-0.168-1.277c0-0.457,0.065-0.885,0.198-1.285
				c0.132-0.397,0.32-0.75,0.563-1.049c0.243-0.301,0.542-0.537,0.894-0.709c0.354-0.172,0.752-0.258,1.201-0.258
				c0.854,0,1.527,0.295,2.016,0.883c0.489,0.588,0.729,1.44,0.721,2.562H335.202L335.202,336.318z M339.257,335.719
				c0-0.303-0.041-0.59-0.125-0.857c-0.084-0.266-0.209-0.5-0.372-0.694c-0.164-0.196-0.37-0.354-0.618-0.469
				c-0.248-0.115-0.531-0.175-0.852-0.175s-0.604,0.062-0.847,0.181c-0.244,0.121-0.452,0.28-0.624,0.479s-0.312,0.433-0.414,0.695
				c-0.104,0.264-0.172,0.545-0.203,0.84H339.257z"/>
		</g>
		<g>
			<path d="M342.186,339.26h-0.72v-6.217h0.72v1.164h0.024c0.199-0.496,0.457-0.842,0.773-1.037
				c0.315-0.197,0.733-0.295,1.254-0.295v0.781c-0.408-0.01-0.744,0.055-1.009,0.191c-0.264,0.135-0.475,0.319-0.63,0.551
				s-0.265,0.508-0.323,0.822c-0.061,0.315-0.091,0.646-0.091,0.989L342.186,339.26L342.186,339.26z"/>
		</g>
		<g>
			<path d="M348.138,333.643v-0.6h0.925v-0.984c0-0.496,0.1-0.887,0.3-1.176c0.2-0.287,0.54-0.432,1.021-0.432
				c0.111,0,0.216,0.004,0.312,0.012s0.191,0.02,0.288,0.037v0.66c-0.16-0.041-0.306-0.061-0.433-0.061
				c-0.185,0-0.328,0.032-0.432,0.102c-0.105,0.068-0.182,0.158-0.229,0.27c-0.049,0.113-0.078,0.238-0.09,0.379
				s-0.019,0.281-0.019,0.426v0.769h1.2v0.601h-1.2v5.616h-0.721v-5.616h-0.923V333.643z"/>
		</g>
		<g>
			<path d="M354.569,339.428c-0.4-0.008-0.773-0.08-1.122-0.217c-0.349-0.135-0.651-0.34-0.912-0.611
				c-0.26-0.271-0.466-0.613-0.618-1.02c-0.152-0.408-0.228-0.885-0.228-1.43c0-0.455,0.06-0.881,0.181-1.277
				c0.119-0.396,0.299-0.742,0.539-1.037c0.24-0.297,0.54-0.531,0.899-0.703s0.779-0.258,1.261-0.258
				c0.487,0,0.912,0.086,1.271,0.258c0.36,0.172,0.66,0.404,0.9,0.697c0.24,0.291,0.418,0.637,0.534,1.037
				c0.115,0.4,0.174,0.828,0.174,1.283c0,0.496-0.067,0.945-0.204,1.346c-0.136,0.398-0.33,0.744-0.582,1.031
				s-0.556,0.51-0.912,0.666C355.396,339.35,355.001,339.428,354.569,339.428z M356.682,336.15c0-0.367-0.04-0.711-0.119-1.031
				c-0.08-0.32-0.204-0.598-0.372-0.834s-0.385-0.422-0.647-0.559c-0.265-0.136-0.588-0.203-0.973-0.203
				c-0.376,0-0.698,0.074-0.967,0.223c-0.269,0.146-0.485,0.344-0.653,0.588s-0.292,0.523-0.372,0.84
				c-0.08,0.317-0.119,0.641-0.119,0.977c0,0.386,0.045,0.738,0.137,1.062c0.094,0.324,0.228,0.602,0.402,0.834
				s0.396,0.412,0.66,0.541c0.264,0.127,0.567,0.191,0.912,0.191c0.376,0,0.696-0.074,0.966-0.223
				c0.269-0.146,0.486-0.347,0.654-0.595s0.292-0.526,0.372-0.84C356.642,336.809,356.682,336.486,356.682,336.15z"/>
		</g>
		<g>
			<path d="M359.525,339.26h-0.721v-6.217h0.721v1.164h0.023c0.199-0.496,0.457-0.842,0.773-1.037
				c0.315-0.197,0.733-0.295,1.254-0.295v0.781c-0.408-0.01-0.744,0.055-1.008,0.191c-0.265,0.135-0.476,0.319-0.631,0.551
				s-0.265,0.508-0.323,0.822c-0.061,0.315-0.09,0.646-0.09,0.989L359.525,339.26L359.525,339.26z"/>
		</g>
	</g>
	<g>
		<g>
			<path d="M429.12,333.191c-0.168-0.736-0.48-1.26-0.938-1.572c-0.456-0.311-1.052-0.467-1.788-0.467
				c-0.52,0-0.968,0.104-1.344,0.311c-0.377,0.209-0.686,0.488-0.93,0.842c-0.244,0.353-0.425,0.758-0.541,1.217
				c-0.115,0.461-0.174,0.947-0.174,1.459c0,0.479,0.051,0.951,0.149,1.416c0.101,0.463,0.267,0.877,0.498,1.242
				c0.232,0.363,0.544,0.656,0.937,0.881c0.393,0.226,0.885,0.336,1.477,0.336c0.367,0,0.703-0.061,1.008-0.18
				c0.306-0.119,0.57-0.285,0.799-0.498c0.228-0.211,0.421-0.463,0.575-0.75c0.156-0.287,0.274-0.604,0.354-0.947h0.852
				c-0.096,0.416-0.235,0.81-0.42,1.183c-0.184,0.371-0.426,0.696-0.727,0.979c-0.299,0.278-0.664,0.502-1.092,0.666
				c-0.429,0.162-0.931,0.244-1.507,0.244c-0.664,0-1.231-0.121-1.704-0.365c-0.472-0.244-0.857-0.574-1.156-0.99
				c-0.302-0.416-0.52-0.898-0.654-1.445c-0.137-0.549-0.204-1.131-0.204-1.746c0-0.824,0.104-1.523,0.306-2.1
				c0.204-0.576,0.486-1.047,0.847-1.41c0.359-0.365,0.784-0.629,1.271-0.793s1.021-0.246,1.598-0.246
				c0.438,0,0.85,0.059,1.229,0.174c0.38,0.117,0.716,0.291,1.008,0.523s0.532,0.518,0.721,0.857
				c0.188,0.338,0.317,0.733,0.391,1.182h-0.84V333.191z"/>
		</g>
		<g>
			<path d="M434.015,339.492c-0.398-0.008-0.772-0.08-1.121-0.217c-0.348-0.135-0.651-0.34-0.911-0.611
				c-0.261-0.271-0.468-0.613-0.618-1.02c-0.152-0.408-0.229-0.886-0.229-1.431c0-0.455,0.061-0.881,0.181-1.276
				c0.118-0.396,0.3-0.742,0.539-1.037c0.239-0.297,0.541-0.531,0.899-0.703c0.36-0.172,0.78-0.258,1.26-0.258
				c0.488,0,0.912,0.086,1.272,0.258s0.66,0.404,0.898,0.697c0.24,0.291,0.418,0.637,0.535,1.037
				c0.115,0.399,0.174,0.827,0.174,1.282c0,0.496-0.067,0.945-0.203,1.347c-0.137,0.397-0.33,0.744-0.582,1.03
				c-0.252,0.287-0.557,0.511-0.912,0.666C434.841,339.413,434.447,339.492,434.015,339.492z M436.128,336.215
				c0-0.367-0.041-0.711-0.121-1.031s-0.203-0.598-0.371-0.834s-0.385-0.422-0.647-0.559c-0.265-0.135-0.588-0.203-0.974-0.203
				c-0.375,0-0.696,0.074-0.965,0.223c-0.269,0.146-0.485,0.344-0.653,0.588c-0.169,0.244-0.294,0.523-0.372,0.84
				c-0.08,0.316-0.12,0.642-0.12,0.978c0,0.386,0.046,0.738,0.138,1.062c0.093,0.324,0.226,0.603,0.402,0.834
				c0.176,0.232,0.396,0.412,0.658,0.541c0.266,0.127,0.568,0.191,0.912,0.191c0.377,0,0.698-0.074,0.968-0.223
				c0.268-0.146,0.485-0.346,0.653-0.594s0.291-0.527,0.371-0.84C436.087,336.874,436.128,336.551,436.128,336.215z"/>
		</g>
		<g>
			<path d="M438.323,339.324v-8.641h0.72v8.641H438.323z"/>
		</g>
		<g>
			<path d="M440.987,339.324v-8.641h0.72v8.641H440.987z"/>
		</g>
		<g>
			<path d="M443.987,336.383c0,0.338,0.044,0.654,0.132,0.955s0.218,0.561,0.39,0.779c0.172,0.221,0.392,0.396,0.654,0.529
				c0.264,0.131,0.568,0.196,0.912,0.196c0.473,0,0.876-0.123,1.212-0.37c0.336-0.248,0.56-0.603,0.672-1.058h0.804
				c-0.088,0.295-0.203,0.569-0.348,0.821c-0.146,0.252-0.324,0.472-0.54,0.66s-0.472,0.334-0.768,0.438
				c-0.297,0.104-0.641,0.155-1.032,0.155c-0.496,0-0.924-0.084-1.284-0.252s-0.655-0.397-0.888-0.69
				c-0.232-0.291-0.404-0.635-0.517-1.03c-0.112-0.396-0.168-0.822-0.168-1.277c0-0.457,0.065-0.885,0.197-1.285
				c0.133-0.398,0.32-0.75,0.563-1.049c0.244-0.301,0.541-0.537,0.895-0.709c0.353-0.172,0.752-0.258,1.2-0.258
				c0.854,0,1.526,0.295,2.016,0.883s0.729,1.44,0.721,2.561H443.987L443.987,336.383z M448.043,335.783
				c0-0.303-0.042-0.59-0.126-0.857c-0.084-0.267-0.208-0.5-0.371-0.695c-0.164-0.196-0.371-0.354-0.619-0.469
				s-0.53-0.174-0.852-0.174s-0.603,0.061-0.847,0.18c-0.243,0.121-0.451,0.281-0.625,0.48c-0.172,0.199-0.31,0.432-0.412,0.695
				c-0.104,0.264-0.174,0.545-0.204,0.84H448.043z"/>
		</g>
		<g>
			<path d="M454.619,335.064c-0.128-0.465-0.35-0.826-0.66-1.086c-0.311-0.261-0.708-0.392-1.188-0.392
				c-0.367,0-0.685,0.076-0.947,0.229c-0.264,0.152-0.48,0.354-0.648,0.604s-0.292,0.535-0.371,0.853
				c-0.08,0.315-0.121,0.635-0.121,0.955c0,0.328,0.039,0.646,0.114,0.959c0.076,0.312,0.198,0.592,0.366,0.84
				s0.384,0.447,0.648,0.594c0.264,0.148,0.584,0.223,0.959,0.223c0.536,0,0.967-0.148,1.291-0.443
				c0.323-0.297,0.528-0.705,0.616-1.225h0.77c-0.064,0.344-0.167,0.658-0.307,0.941c-0.141,0.285-0.319,0.529-0.541,0.732
				c-0.22,0.205-0.48,0.36-0.784,0.475c-0.306,0.111-0.652,0.168-1.045,0.168c-0.496,0-0.925-0.084-1.283-0.252
				c-0.36-0.168-0.656-0.398-0.89-0.691c-0.23-0.291-0.403-0.637-0.516-1.037s-0.168-0.828-0.168-1.283
				c0-0.434,0.062-0.848,0.186-1.242c0.125-0.396,0.308-0.745,0.548-1.051c0.239-0.305,0.536-0.545,0.894-0.727
				c0.356-0.18,0.767-0.27,1.229-0.27c0.721,0,1.303,0.172,1.745,0.516c0.444,0.344,0.724,0.881,0.835,1.609H454.619
				L454.619,335.064z"/>
		</g>
		<g>
			<path d="M459.071,339.348c-0.088,0.016-0.204,0.045-0.349,0.084s-0.305,0.062-0.479,0.062c-0.36,0-0.635-0.091-0.822-0.271
				c-0.188-0.182-0.281-0.502-0.281-0.967v-4.549h-0.877v-0.6h0.877v-1.729h0.72v1.729h1.164v0.6h-1.164v4.26
				c0,0.152,0.004,0.285,0.013,0.396c0.008,0.113,0.032,0.205,0.071,0.277c0.041,0.069,0.103,0.123,0.187,0.153
				c0.084,0.033,0.202,0.049,0.354,0.049c0.096,0,0.192-0.008,0.293-0.022c0.101-0.016,0.198-0.037,0.295-0.062L459.071,339.348
				L459.071,339.348z"/>
		</g>
		<g>
			<path d="M460.295,331.752v-1.068h0.792v1.068H460.295z M460.331,339.324v-6.217h0.72v6.217H460.331z"/>
		</g>
		<g>
			<path d="M465.358,339.492c-0.399-0.008-0.773-0.08-1.121-0.217c-0.349-0.135-0.652-0.34-0.912-0.611s-0.467-0.613-0.618-1.02
				c-0.152-0.408-0.229-0.886-0.229-1.431c0-0.455,0.061-0.881,0.181-1.276c0.119-0.396,0.3-0.742,0.539-1.037
				c0.239-0.297,0.541-0.531,0.899-0.703c0.36-0.172,0.78-0.258,1.261-0.258c0.487,0,0.911,0.086,1.271,0.258
				s0.66,0.404,0.899,0.697c0.239,0.291,0.418,0.637,0.535,1.037c0.114,0.399,0.174,0.827,0.174,1.282
				c0,0.496-0.068,0.945-0.204,1.347c-0.136,0.397-0.33,0.744-0.582,1.03c-0.252,0.287-0.556,0.511-0.912,0.666
				C466.184,339.413,465.791,339.492,465.358,339.492z M467.472,336.215c0-0.367-0.041-0.711-0.121-1.031s-0.202-0.598-0.37-0.834
				c-0.169-0.236-0.386-0.422-0.648-0.559c-0.264-0.135-0.588-0.203-0.973-0.203c-0.375,0-0.697,0.074-0.966,0.223
				c-0.269,0.146-0.485,0.344-0.653,0.588s-0.293,0.523-0.372,0.84c-0.08,0.316-0.12,0.642-0.12,0.978
				c0,0.386,0.046,0.738,0.138,1.062c0.093,0.324,0.227,0.603,0.402,0.834c0.176,0.232,0.396,0.412,0.659,0.541
				c0.265,0.127,0.567,0.191,0.912,0.191c0.377,0,0.697-0.074,0.967-0.223c0.268-0.146,0.485-0.346,0.654-0.594
				c0.168-0.248,0.29-0.527,0.37-0.84C467.431,336.874,467.472,336.551,467.472,336.215z"/>
		</g>
		<g>
			<path d="M470.278,339.324h-0.721v-6.217h0.721v0.865c0.289-0.306,0.586-0.554,0.895-0.744c0.309-0.193,0.678-0.289,1.109-0.289
				c0.385,0,0.74,0.065,1.067,0.199c0.328,0.131,0.604,0.36,0.828,0.688c0.152,0.225,0.242,0.452,0.271,0.688
				c0.027,0.236,0.043,0.482,0.043,0.738v4.068h-0.722v-4.057c0-0.562-0.123-0.98-0.37-1.261c-0.248-0.278-0.66-0.42-1.236-0.42
				c-0.226,0-0.428,0.033-0.612,0.103c-0.184,0.068-0.351,0.157-0.498,0.27c-0.146,0.113-0.273,0.24-0.378,0.385
				c-0.104,0.145-0.184,0.297-0.24,0.455c-0.071,0.201-0.114,0.393-0.132,0.576c-0.017,0.186-0.023,0.385-0.023,0.602
				L470.278,339.324L470.278,339.324z"/>
		</g>
		<g>
			<path d="M476.651,337.379c0.11,0.537,0.312,0.914,0.604,1.135c0.292,0.221,0.71,0.33,1.254,0.33c0.265,0,0.492-0.031,0.685-0.096
				c0.191-0.064,0.35-0.15,0.475-0.258c0.123-0.109,0.218-0.23,0.281-0.367c0.063-0.135,0.097-0.279,0.097-0.432
				c0-0.303-0.099-0.529-0.294-0.678c-0.196-0.148-0.442-0.265-0.738-0.349s-0.615-0.156-0.96-0.218
				c-0.345-0.059-0.664-0.149-0.96-0.27c-0.296-0.119-0.542-0.291-0.737-0.516s-0.295-0.541-0.295-0.949
				c0-0.52,0.19-0.945,0.57-1.277s0.918-0.498,1.614-0.498c0.672,0,1.218,0.15,1.638,0.451c0.42,0.299,0.674,0.801,0.763,1.506
				h-0.731c-0.064-0.479-0.246-0.817-0.547-1.016c-0.299-0.195-0.678-0.293-1.133-0.293c-0.457,0-0.806,0.098-1.045,0.293
				c-0.24,0.197-0.359,0.455-0.359,0.775c0,0.279,0.098,0.494,0.293,0.641c0.197,0.148,0.442,0.27,0.738,0.361
				c0.297,0.092,0.615,0.174,0.961,0.246c0.344,0.072,0.664,0.174,0.959,0.305c0.297,0.133,0.543,0.311,0.738,0.535
				s0.295,0.535,0.295,0.936c0,0.297-0.064,0.559-0.193,0.785c-0.127,0.229-0.304,0.42-0.527,0.57
				c-0.225,0.152-0.489,0.268-0.798,0.342c-0.308,0.076-0.646,0.115-1.015,0.115c-0.367,0-0.693-0.055-0.979-0.162
				s-0.525-0.258-0.726-0.451c-0.201-0.191-0.356-0.416-0.469-0.672c-0.111-0.256-0.177-0.531-0.191-0.828h0.732V337.379z"/>
		</g>
	</g>
	<g>
		<g>
			<path d="M367.005,339.764l3.962-10.08h1.078l3.864,10.08h-0.98l-1.162-3.164h-4.592l-1.188,3.164H367.005z M369.497,335.789
				h3.947l-1.975-5.293L369.497,335.789z"/>
		</g>
		<g>
			<path d="M378.022,339.764h-0.841v-7.252h0.841v1.359h0.027c0.233-0.58,0.534-0.982,0.903-1.213
				c0.368-0.229,0.854-0.342,1.463-0.342v0.91c-0.477-0.011-0.868,0.063-1.176,0.223c-0.31,0.16-0.553,0.375-0.735,0.645
				c-0.183,0.271-0.308,0.59-0.378,0.959s-0.104,0.754-0.104,1.156V339.764L378.022,339.764z"/>
		</g>
		<g>
			<path d="M386.94,334.795c-0.148-0.541-0.405-0.965-0.771-1.268c-0.363-0.303-0.826-0.455-1.386-0.455
				c-0.43,0-0.798,0.088-1.106,0.266c-0.308,0.178-0.56,0.414-0.756,0.707c-0.195,0.295-0.341,0.625-0.434,0.994
				c-0.094,0.369-0.142,0.74-0.142,1.113c0,0.383,0.045,0.756,0.134,1.119c0.089,0.364,0.23,0.69,0.428,0.979
				c0.195,0.289,0.447,0.521,0.756,0.692c0.309,0.173,0.682,0.261,1.12,0.261c0.625,0,1.127-0.175,1.505-0.521
				c0.378-0.344,0.618-0.819,0.721-1.428h0.896c-0.075,0.402-0.194,0.768-0.357,1.1s-0.373,0.615-0.63,0.854
				s-0.562,0.422-0.917,0.554c-0.354,0.131-0.761,0.196-1.218,0.196c-0.579,0-1.078-0.101-1.498-0.295
				c-0.421-0.194-0.766-0.465-1.036-0.806c-0.271-0.34-0.472-0.743-0.602-1.211c-0.131-0.467-0.196-0.967-0.196-1.498
				c0-0.504,0.071-0.985,0.217-1.448s0.356-0.871,0.638-1.226c0.279-0.354,0.628-0.637,1.043-0.848
				c0.414-0.209,0.894-0.314,1.436-0.314c0.84,0,1.519,0.201,2.036,0.603c0.519,0.401,0.843,1.026,0.974,1.877L386.94,334.795
				L386.94,334.795z"/>
		</g>
		<g>
			<path d="M389.587,339.764v-10.08h0.84v3.836c0.336-0.354,0.685-0.643,1.043-0.867c0.359-0.223,0.791-0.336,1.295-0.336
				c0.448,0,0.863,0.076,1.246,0.23s0.705,0.422,0.968,0.805c0.177,0.263,0.28,0.531,0.313,0.806s0.049,0.562,0.049,0.86v4.746
				h-0.84v-4.731c0-0.652-0.145-1.144-0.434-1.47s-0.771-0.489-1.442-0.489c-0.261,0-0.499,0.038-0.714,0.118
				s-0.408,0.185-0.581,0.314c-0.173,0.131-0.319,0.281-0.44,0.449c-0.122,0.168-0.215,0.344-0.28,0.531
				c-0.084,0.231-0.136,0.457-0.153,0.672s-0.028,0.447-0.028,0.699v3.906H389.587L389.587,339.764z"/>
		</g>
		<g>
			<path d="M397.455,330.93v-1.246h0.925v1.246H397.455z M397.497,339.764v-7.252h0.84v7.252H397.497z"/>
		</g>
		<g>
			<path d="M399.709,332.512h0.91l2.353,6.217l2.353-6.217h0.91l-2.814,7.252h-0.938L399.709,332.512z"/>
		</g>
		<g>
			<path d="M410.812,335.537c0.157-0.02,0.348-0.047,0.565-0.084c0.219-0.039,0.399-0.09,0.539-0.154
				c0.141-0.066,0.227-0.176,0.26-0.33c0.032-0.154,0.049-0.295,0.049-0.426c0-0.43-0.139-0.783-0.413-1.059
				c-0.275-0.273-0.739-0.412-1.394-0.412c-0.289,0-0.555,0.025-0.798,0.076c-0.243,0.053-0.455,0.141-0.637,0.268
				c-0.184,0.125-0.331,0.293-0.448,0.504c-0.117,0.209-0.193,0.473-0.23,0.791h-0.854c0.028-0.43,0.126-0.797,0.294-1.1
				s0.385-0.551,0.65-0.742c0.267-0.191,0.573-0.332,0.925-0.42c0.351-0.088,0.721-0.133,1.111-0.133
				c0.365,0,0.707,0.039,1.029,0.119c0.322,0.078,0.603,0.205,0.84,0.377c0.238,0.174,0.425,0.403,0.562,0.692
				c0.135,0.289,0.203,0.646,0.203,1.063v3.947c0,0.328,0.059,0.535,0.175,0.623c0.116,0.09,0.353,0.068,0.707-0.062v0.657
				c-0.065,0.021-0.161,0.047-0.287,0.084s-0.25,0.058-0.371,0.058c-0.131,0-0.257-0.017-0.378-0.043
				c-0.141-0.021-0.252-0.062-0.336-0.133s-0.152-0.154-0.203-0.253c-0.051-0.098-0.086-0.204-0.105-0.321
				c-0.018-0.117-0.026-0.24-0.026-0.371c-0.355,0.394-0.761,0.69-1.219,0.896c-0.457,0.205-0.951,0.31-1.483,0.31
				c-0.317,0-0.623-0.043-0.917-0.127s-0.553-0.215-0.777-0.394c-0.224-0.176-0.399-0.393-0.53-0.649
				c-0.132-0.257-0.196-0.562-0.196-0.916c0-1.231,0.845-1.961,2.534-2.187L410.812,335.537z M412.226,335.957
				c-0.354,0.148-0.715,0.246-1.077,0.293c-0.364,0.047-0.729,0.084-1.093,0.111c-0.645,0.047-1.146,0.19-1.506,0.436
				c-0.358,0.242-0.539,0.611-0.539,1.105c0,0.225,0.045,0.418,0.133,0.58c0.091,0.164,0.206,0.299,0.352,0.406
				c0.145,0.106,0.312,0.188,0.504,0.237s0.386,0.078,0.581,0.078c0.336,0,0.662-0.043,0.979-0.127
				c0.316-0.084,0.601-0.214,0.848-0.386s0.444-0.393,0.595-0.657s0.225-0.58,0.225-0.945L412.226,335.957L412.226,335.957z"/>
		</g>
		<g>
			<path d="M415.39,339.764v-10.08h0.841v10.08H415.39z"/>
		</g>
	</g>
</g>
<g>
	<polygon fill="none" points="388.065,309.539 401.594,309.541 399.832,289.035 	"/>
	<path d="M415.82,318.448c-2.289,0.141-2.929,0.161-3.106,0.161c-1.5,0-2.505-0.578-3.073-1.768
		c-0.621-1.305-1.115-4.112-1.469-8.344l-1.554-18.516l-0.369-9.509l-5.989,1.088c-1.766,0.145-3.083,0.241-3.962,0.294
		c-4.419,0.308-7.851,1-10.198,2.057c-2.377,1.07-4.466,2.888-6.208,5.401c-1.579,2.257-2.556,5.146-2.903,8.583l-0.091,0.9
		l6.343-3.144v-0.31c0-3.308,0.97-5.879,2.882-7.642c1.923-1.772,4.718-2.671,8.307-2.671c1.187,0,2.597,0.086,4.199,0.257
		l-11.172,19.309c-1.422,2.463-2.755,4.583-4.003,6.385h3.757c0.237-0.393,0.473-0.78,0.711-1.193h0l0.143-0.248h13.529
		l-13.528-0.002l11.767-20.504l1.762,20.506l0.004,0.043l1.146,13.754l13.183-2.185l0.541-2.745L415.82,318.448z M402.065,309.544
		l0.031-0.003L402.065,309.544z"/>
</g>
<g>
	<g>
		<path d="M360.07,328.715c0,0,0.225-0.098,0.599-0.295c0.188-0.092,0.414-0.213,0.669-0.363c0.254-0.145,0.547-0.299,0.855-0.488
			c0.608-0.391,1.331-0.823,2.066-1.346c0.368-0.258,0.751-0.522,1.141-0.789c0.375-0.289,0.758-0.58,1.139-0.871
			c0.374-0.299,0.769-0.571,1.119-0.891c0.358-0.303,0.715-0.602,1.059-0.891c0.357-0.273,0.693-0.547,1.029-0.789
			c0.322-0.258,0.625-0.5,0.912-0.717c0.579-0.435,1.061-0.797,1.417-1.031c0.353-0.24,0.562-0.369,0.562-0.369l0.054,0.055
			c-0.002,0-0.15,0.191-0.432,0.508c-0.272,0.326-0.69,0.76-1.193,1.285c-0.254,0.26-0.531,0.537-0.834,0.822
			c-0.312,0.277-0.659,0.549-1.009,0.84c-0.361,0.271-0.737,0.559-1.118,0.844c-0.377,0.291-0.799,0.541-1.198,0.818
			c-0.403,0.27-0.807,0.541-1.202,0.807c-0.408,0.25-0.812,0.496-1.2,0.734c-0.393,0.229-0.761,0.471-1.137,0.658
			c-0.37,0.195-0.72,0.379-1.041,0.549c-0.325,0.168-0.634,0.301-0.9,0.428c-0.265,0.131-0.503,0.234-0.702,0.312
			c-0.394,0.168-0.623,0.246-0.623,0.246L360.07,328.715z"/>
	</g>
	<g>
		<path fill="#94381F" d="M368.416,323.182c0,0,0.654-0.795,1.854-2.117c0.61-0.647,1.333-1.457,2.196-2.346
			c0.858-0.893,1.839-1.887,2.926-2.949c0.546-0.526,1.104-1.09,1.701-1.646c0.299-0.283,0.601-0.574,0.906-0.867
			c0.348-0.321,0.697-0.627,1.066-0.918c1.46-1.188,3.111-2.254,4.929-3.209c3.63-1.885,7.979-3.191,12.477-3.449
			c1.124-0.074,2.251-0.072,3.372-0.031c1.12,0.055,2.233,0.182,3.331,0.332c0.546,0.096,1.092,0.184,1.628,0.293
			c0.505,0.121,1.009,0.241,1.51,0.357l0.724,0.175l0.354,0.084l0.288,0.053l0.579,0.127l0.627,0.104
			c1.671,0.271,3.337,0.339,4.947,0.318c1.605-0.043,3.152-0.197,4.594-0.406c1.437-0.226,2.771-0.487,3.953-0.77
			c1.181-0.285,2.222-0.562,3.085-0.809c1.709-0.514,2.713-0.863,2.713-0.863s-0.157,0.211-0.494,0.566
			c-0.338,0.355-0.84,0.877-1.544,1.461c-0.697,0.6-1.585,1.291-2.676,1.988c-1.091,0.695-2.382,1.412-3.88,2.049
			c-1.494,0.643-3.199,1.205-5.084,1.582c-0.945,0.184-1.93,0.336-2.953,0.4c-0.512,0.049-1.033,0.057-1.559,0.074
			c-0.53-0.017-1.063-0.002-1.604-0.05c-2.36-0.11-4.213-0.686-5.984-0.881c-1.813-0.229-3.665-0.312-5.514-0.244
			c-0.924,0.035-1.847,0.113-2.767,0.214c-0.913,0.12-1.823,0.268-2.725,0.446c-0.899,0.179-1.782,0.399-2.651,0.646
			c-0.875,0.24-1.728,0.517-2.554,0.826c-1.664,0.594-3.241,1.303-4.662,2.062c-0.346,0.194-0.687,0.385-1.021,0.571l-0.215,0.127
			l-0.031,0.019l-0.067,0.054l-0.017,0.012l-0.066,0.039l-0.134,0.086c-0.179,0.111-0.354,0.219-0.527,0.326
			c-0.693,0.44-1.383,0.842-2.034,1.239c-1.312,0.787-2.526,1.492-3.614,2.101c-1.084,0.617-2.059,1.117-2.846,1.551
			C369.357,322.744,368.416,323.182,368.416,323.182z"/>
	</g>
	<g>
		<path d="M372.103,320.092c0,0,0.551-0.682,1.666-1.744c0.561-0.527,1.249-1.156,2.088-1.832c0.826-0.686,1.801-1.414,2.911-2.139
			c1.104-0.738,2.353-1.461,3.709-2.168c0.679-0.352,1.4-0.664,2.127-1.01c0.746-0.301,1.517-0.602,2.304-0.887
			c0.804-0.238,1.607-0.529,2.449-0.734c0.845-0.184,1.686-0.445,2.563-0.568c0.438-0.072,0.875-0.141,1.314-0.215
			c0.228-0.031,0.429-0.072,0.676-0.104l0.663-0.058c0.884-0.079,1.765-0.18,2.687-0.161c1.823-0.046,3.638,0.178,5.381,0.536
			c1.748,0.354,3.412,0.854,5.037,1.138c1.626,0.309,3.221,0.305,4.725,0.19c1.502-0.151,2.904-0.457,4.186-0.795
			c0.635-0.187,1.244-0.365,1.824-0.537c0.578-0.164,1.109-0.381,1.623-0.551c0.508-0.185,0.98-0.351,1.422-0.506
			c0.438-0.166,0.827-0.337,1.188-0.48c1.438-0.577,2.26-0.907,2.26-0.907s-0.802,0.381-2.198,1.043
			c-0.354,0.16-0.736,0.35-1.165,0.537c-0.434,0.178-0.902,0.366-1.401,0.571c-0.503,0.195-1.025,0.438-1.604,0.636
			c-0.579,0.188-1.188,0.391-1.821,0.6c-1.285,0.377-2.7,0.729-4.242,0.932c-1.54,0.162-3.211,0.223-4.896-0.092
			c-1.684-0.279-3.355-0.77-5.064-1.096c-1.705-0.334-3.469-0.533-5.217-0.472c-0.868-0.028-1.762,0.06-2.646,0.132l-0.662,0.051
			l-0.639,0.094c-0.43,0.066-0.858,0.131-1.289,0.197c-0.86,0.11-1.686,0.363-2.518,0.533c-0.824,0.19-1.616,0.471-2.408,0.698
			c-0.778,0.269-1.53,0.566-2.275,0.834c-0.725,0.32-1.444,0.604-2.124,0.937c-1.355,0.656-2.611,1.332-3.726,2.031
			c-0.56,0.348-1.092,0.684-1.582,1.026c-0.501,0.332-0.967,0.658-1.393,0.979c-0.863,0.629-1.579,1.222-2.162,1.724
			C372.705,319.453,372.103,320.092,372.103,320.092z"/>
	</g>
</g>
<g>
	<path fill="#A53C23" d="M497.778,352.633H292.164v-85.301h205.614V352.633z M294.164,350.633h201.614v-81.301H294.164V350.633z"/>
</g>
</svg>
