<?xml version="1.0" encoding="utf-8"?>
<!-- Generator: Adobe Illustrator 16.0.0, SVG Export Plug-In . SVG Version: 6.00 Build 0)  -->
<!DOCTYPE svg PUBLIC "-//W3C//DTD SVG 1.1//EN" "http://www.w3.org/Graphics/SVG/1.1/DTD/svg11.dtd">
<svg version="1.1" id="Layer_1" xmlns="http://www.w3.org/2000/svg" xmlns:xlink="http://www.w3.org/1999/xlink" x="0px" y="0px"
	 width="396px" height="309.6px" viewBox="0 0 396 309.6" enable-background="new 0 0 396 309.6" xml:space="preserve">
<g>
	<polygon fill="#F16F22" points="30.706,153.037 29.963,4.041 379.308,78.54 	"/>
	<g>
		<path fill="#4F2D17" stroke="#FFFFFF" stroke-width="0.5" stroke-miterlimit="10" d="M54.741,79.801l3.82-0.705l0.939,5.079
			l-1.439,2.093l-8.394,1.553l-2.178-1.498l-2.983-16.136l1.328-1.871l8.614-1.595l2.087,1.416l0.698,3.774l-3.798,0.702
			l-0.372-2.007l-4.426,0.818l2.334,12.628l4.403-0.816L54.741,79.801z"/>
		<path fill="#4F2D17" stroke="#FFFFFF" stroke-width="0.5" stroke-miterlimit="10" d="M64.788,85.024l-1.864-1.282l-2.975-16.084
			l1.514-2.232l8.031-1.486l2.175,1.475l2.943,15.918l-1.456,2.146L64.788,85.024z M68.183,67.81l-4.135,0.765l2.337,12.652
			l4.137-0.764L68.183,67.81z"/>
		<path fill="#4F2D17" stroke="#FFFFFF" stroke-width="0.5" stroke-miterlimit="10" d="M85.437,74.126l3.821-0.707l0.939,5.08
			l-1.439,2.092l-8.394,1.554l-2.177-1.501l-2.984-16.135l1.331-1.871l8.611-1.593l2.087,1.417l0.698,3.774l-3.798,0.702
			l-0.371-2.008l-4.427,0.817l2.334,12.629l4.403-0.815L85.437,74.126z"/>
		<path fill="#4F2D17" stroke="#FFFFFF" stroke-width="0.5" stroke-miterlimit="10" d="M97.832,70.533l0.867,4.693l1.378-0.254
			l0.632,3.41l-6.63,1.226l-0.582-3.42l1.381-0.256l-2.345-12.675l-1.403,0.26l-0.641-3.46l6.605-1.22l0.648,3.507l-1.378,0.255
			l0.805,4.353l3.458-0.637l-0.805-4.357l-1.426,0.265l-0.648-3.508l6.603-1.222l0.65,3.508l-1.354,0.252l1.465,7.934l0.869,4.692
			l1.354-0.251l0.629,3.412l-6.627,1.226l-0.63-3.412l1.45-0.268l-0.866-4.694L97.832,70.533z"/>
		<path fill="#4F2D17" stroke="#FFFFFF" stroke-width="0.5" stroke-miterlimit="10" d="M117.98,75.188l-6.604,1.222L110.746,73
			l1.38-0.256l-2.334-12.627l-1.356,0.25l-0.646-3.483l10.67-1.974l2.241,1.837l1.341,7.259l-1.689,2.362l-1.21,0.224l3.505,4.206
			l0.724-0.134l0.632,3.411l-5.468,1.012l-0.629-3.411l0.797-0.146l-3.259-4.102l-0.167,0.032l0.839,4.546l1.233-0.228
			L117.98,75.188z M116.906,58.824l-3.12,0.577l0.815,4.403l3.118-0.576L116.906,58.824z"/>
		<path fill="#4F2D17" stroke="#FFFFFF" stroke-width="0.5" stroke-miterlimit="10" d="M132.325,72.537l-5.128,0.947l-0.622-3.363
			l0.702-0.129l0.593-13.169l-0.847,0.158l-0.673-3.505l5.806-1.074l0.638,3.46l-0.652,0.122l5.553,12.032l0.703-0.13l0.628,3.411
			l-5.152,0.953l-0.629-3.41l0.845-0.158l-0.462-1.015l-2.734,0.506l-0.094,1.118l0.895-0.164L132.325,72.537z M132.489,65.175
			l-1.308-2.886l-0.215,3.168L132.489,65.175z"/>
		<path fill="#4F2D17" stroke="#FFFFFF" stroke-width="0.5" stroke-miterlimit="10" d="M148.802,69.514l-6.41,1.186l-0.652-3.532
			l1.451-0.268l-2.331-12.604l-1.499,0.278l-0.632-3.412l5.662-1.047l4.374,7.823l-0.928-5.009l-1.378,0.256l-0.617-3.339
			l6.677-1.234l0.632,3.41l-1.379,0.256l2.33,12.602l1.378-0.254l0.654,3.531l-5.273,0.977l-5.085-9.368l1.2,6.483l1.185-0.219
			L148.802,69.514z"/>
		<path fill="#4F2D17" stroke="#FFFFFF" stroke-width="0.5" stroke-miterlimit="10" d="M171.948,65.208l-12.725,2.352l-0.63-3.41
			l1.379-0.254l-2.345-12.676l-1.476,0.273l-0.64-3.458l12.822-2.373l1.041,5.637l-3.75,0.694l-0.393-2.13l-3.775,0.699l0.831,4.499
			l2.929-0.541l0.635,3.437l-2.927,0.541l0.867,4.693l3.823-0.708l-0.478-2.587l3.701-0.684L171.948,65.208z"/>
	</g>
	<g>
		<path fill="#4F2D17" stroke="#FFFFFF" stroke-width="0.5" stroke-miterlimit="10" d="M76.17,103.821l3.815-0.739l0.98,5.073
			l-1.421,2.104l-8.38,1.624l-2.192-1.48L65.856,94.29l1.314-1.882l8.599-1.664l2.101,1.399l0.729,3.768l-3.792,0.73l-0.389-2.004
			l-4.419,0.858l2.439,12.605l4.396-0.851L76.17,103.821z"/>
		<path fill="#4F2D17" stroke="#FFFFFF" stroke-width="0.5" stroke-miterlimit="10" d="M93.833,107.572l-5.726,1.107l-2.487-1.724
			l-2.709-14.009l-1.062,0.205l-0.65-3.356l5.24-1.015l0.658,3.405l-0.892,0.173l2.437,12.606l3.334-0.644l-2.439-12.607
			l-0.942,0.183l-0.659-3.406l5.242-1.013l0.659,3.403l-1.014,0.199l2.699,13.958L93.833,107.572z"/>
		<path fill="#4F2D17" stroke="#FFFFFF" stroke-width="0.5" stroke-miterlimit="10" d="M106.745,105.024l-6.399,1.238l-0.682-3.526
			l1.448-0.28l-2.434-12.584l-1.499,0.29l-0.658-3.405l5.652-1.095l4.439,7.788l-0.969-5l-1.375,0.267l-0.646-3.333l6.667-1.29
			l0.658,3.406l-1.377,0.266l2.434,12.581l1.378-0.267l0.682,3.528l-5.267,1.019l-5.161-9.325l1.252,6.475l1.184-0.23
			L106.745,105.024z"/>
		<path fill="#4F2D17" stroke="#FFFFFF" stroke-width="0.5" stroke-miterlimit="10" d="M123.603,101.761l-6.4,1.237l-0.682-3.524
			l1.448-0.281l-2.434-12.583l-1.497,0.289l-0.66-3.405l5.652-1.092l4.438,7.786l-0.968-5l-1.375,0.266l-0.647-3.332l6.667-1.291
			l0.659,3.406l-1.376,0.266l2.434,12.584l1.376-0.266l0.682,3.525l-5.265,1.019l-5.161-9.325l1.25,6.476l1.185-0.229
			L123.603,101.761z"/>
		<path fill="#4F2D17" stroke="#FFFFFF" stroke-width="0.5" stroke-miterlimit="10" d="M140.136,95.006l0.659,3.405l-6.616,1.282
			l-0.659-3.406l1.423-0.277l-2.447-12.654l-1.401,0.272l-0.667-3.456l6.593-1.275l0.678,3.502l-1.378,0.266l1.533,7.923
			l0.907,4.684L140.136,95.006z"/>
		<path fill="#4F2D17" stroke="#FFFFFF" stroke-width="0.5" stroke-miterlimit="10" d="M150.776,96.507l-6.402,1.237l-0.681-3.524
			l1.448-0.281l-2.434-12.584l-1.496,0.289l-0.661-3.406l5.653-1.093l4.438,7.789l-0.968-5l-1.375,0.267l-0.645-3.334l6.667-1.29
			l0.658,3.407l-1.378,0.267l2.434,12.584l1.378-0.267l0.681,3.524l-5.266,1.02l-5.161-9.324l1.252,6.475l1.185-0.231
			L150.776,96.507z"/>
		<path fill="#4F2D17" stroke="#FFFFFF" stroke-width="0.5" stroke-miterlimit="10" d="M163.016,94.117l-2.191-1.483l-3.115-16.11
			l1.314-1.881l9.153-1.772l2.099,1.397l0.729,3.769l-3.792,0.736l-0.386-2.007l-4.977,0.962l2.44,12.609l4.927-0.953l-0.649-3.359
			l-3.141,0.609l-0.677-3.503l5.144-0.994l2.196,1.504l1.285,6.642l-1.421,2.106L163.016,94.117z"/>
		<path fill="#4F2D17" stroke="#FFFFFF" stroke-width="0.5" stroke-miterlimit="10" d="M181.134,82.218l0.907,4.685l1.377-0.267
			l0.659,3.405l-6.618,1.281l-0.611-3.417l1.378-0.267l-2.449-12.655l-1.401,0.27l-0.667-3.454l6.593-1.275l0.678,3.502
			l-1.377,0.266l0.841,4.349l3.455-0.668l-0.842-4.347l-1.425,0.275l-0.677-3.502l6.593-1.275l0.68,3.502l-1.354,0.262l1.532,7.923
			l0.907,4.684l1.351-0.26l0.659,3.405l-6.616,1.281l-0.658-3.408l1.449-0.278l-0.907-4.687L181.134,82.218z"/>
		<path fill="#4F2D17" stroke="#FFFFFF" stroke-width="0.5" stroke-miterlimit="10" d="M199.894,86.984l-5.12,0.989l-0.649-3.358
			l0.703-0.135l0.482-13.175l-0.847,0.164l-0.702-3.498l5.796-1.121l0.671,3.452l-0.653,0.126l5.649,11.989l0.702-0.135l0.659,3.405
			l-5.145,0.995l-0.658-3.406l0.842-0.164l-0.47-1.012l-2.727,0.529l-0.086,1.118l0.893-0.173L199.894,86.984z M200,79.62
			l-1.335-2.874l-0.188,3.167L200,79.62z"/>
		<path fill="#4F2D17" stroke="#FFFFFF" stroke-width="0.5" stroke-miterlimit="10" d="M218.443,63.173l6.788-1.314l0.681,3.527
			l-1.161,0.224l2.429,12.561l1.162-0.226l0.664,3.431l-6.137,1.188l-0.664-3.429l1.013-0.196l-1.387-7.175l-0.969,11.187
			l-2.56,0.497l-5.021-10.031l1.386,7.175l1.232-0.236l0.665,3.429l-6.619,1.278l-0.664-3.429l1.401-0.272l-2.428-12.559
			l-1.451,0.279l-0.682-3.527l7.127-1.378l5.252,12.64L218.443,63.173z"/>
	</g>
	<rect x="23.305" y="1.102" fill="#4F2D17" width="8.156" height="155.291"/>
	<g>
		<polygon fill="#4F2D17" points="24.529,137.828 4.432,130.148 4.432,133.985 24.529,142.131 		"/>
		<polygon fill="#4F2D17" points="22.707,139.818 1.558,143.771 3.565,147.045 24.955,143.488 		"/>
	</g>
	<polygon fill="none" stroke="#FFFFFF" stroke-width="0.5" stroke-miterlimit="10" points="38.063,143.999 37.377,13.496 
		351.865,78.789 	"/>
	<g>
		<path fill="#FFFFFF" d="M133.822,113.342l-0.135,3.379l-1.025-0.072l0.58-10.249l1.179-0.231l4.406,9.271l-0.922,0.456
			l-1.399-3.079L133.822,113.342z M134.103,107.592l-0.029,0.006l-0.19,4.813l2.212-0.435L134.103,107.592z"/>
		<path fill="#FFFFFF" d="M139.655,105.139l2.654-0.519c0.974-0.188,2.362,0.411,2.708,2.18c0.237,1.211-0.025,2.455-1.151,3.105
			l2.86,3.817l-0.802,0.603l-3.106-4.138l-1.106,0.217l0.858,4.379l-0.988,0.191L139.655,105.139z M141.539,109.52l1.446-0.283
			c0.854-0.168,1.262-0.906,1.001-2.234c-0.251-1.284-0.958-1.604-1.96-1.406l-1.208,0.238L141.539,109.52z"/>
		<path fill="#FFFFFF" d="M153.945,111.023c-0.395,1.042-1.116,1.887-2.237,2.105c-2.566,0.504-3.556-2.514-3.937-4.461
			c-0.385-1.964-0.608-5.135,1.958-5.64c1.12-0.217,2.015,0.28,2.714,1.125l-0.741,0.664c-0.431-0.558-1.04-1.008-1.791-0.86
			c-1.799,0.354-1.363,3.209-1.107,4.507c0.25,1.282,0.922,4.09,2.722,3.737c0.766-0.148,1.248-0.903,1.496-1.579L153.945,111.023z"
			/>
		<path fill="#FFFFFF" d="M154.899,102.155l0.989-0.196l0.808,4.131l3.038-0.597l-0.808-4.128l0.987-0.191l1.929,9.833l-0.989,0.195
			l-0.946-4.823l-3.037,0.596l0.944,4.821l-0.986,0.194L154.899,102.155z"/>
		<path fill="#FFFFFF" d="M164.937,101.107l-1.328,0.26l-0.173-0.887l3.656-0.715l0.174,0.884l-1.343,0.265l1.583,8.064l1.34-0.265
			l0.172,0.887l-3.654,0.716l-0.174-0.883l1.327-0.262L164.937,101.107z"/>
		<path fill="#FFFFFF" d="M175.121,97.991l1.043,0.012l-0.958,10.583l-0.235,0.046l-4.882-9.438l0.961-0.401l3.479,6.959
			L175.121,97.991z"/>
		<path fill="#FFFFFF" d="M178.873,97.458l4.792-0.939l0.172,0.883l-3.803,0.744l0.634,3.245l3.143-0.614l0.172,0.885l-3.142,0.615
			l0.772,3.937l3.803-0.747l0.177,0.885l-4.793,0.939L178.873,97.458z"/>
		<path fill="#FFFFFF" d="M196.214,99.616c-0.541-0.493-0.925-0.891-1.077-1.657c-0.231-1.18,0.346-2.15,1.524-2.38
			c1.15-0.226,2.121,0.518,2.337,1.624c0.188,0.942-0.143,1.604-1.155,2.615l1.831,1.676c0.197-0.482,0.197-1.018,0.144-1.526h1.013
			c0.056,0.755-0.047,1.555-0.372,2.247l0.771,0.722l-0.646,0.692l-0.673-0.617c-0.437,0.499-0.963,0.86-1.643,0.993
			c-1.284,0.253-2.513-0.47-2.768-1.781c-0.195-0.988,0.357-1.695,0.992-2.355L196.214,99.616z M197.176,100.466
			c-0.447,0.455-0.781,0.861-0.649,1.537c0.154,0.782,0.837,1.215,1.618,1.062c0.427-0.085,0.831-0.363,1.082-0.716L197.176,100.466
			z M197.438,98.917c0.404-0.434,0.768-0.854,0.642-1.488c-0.126-0.651-0.589-1.052-1.281-0.916
			c-0.603,0.121-0.858,0.629-0.743,1.204c0.099,0.502,0.4,0.873,1.117,1.481L197.438,98.917z"/>
		<path fill="#FFFFFF" d="M213.829,90.606l1.238-0.242l2.224,9.775l-1.048,0.205l-1.8-8.161l-0.029,0.007l-0.711,5.269l-2.65-4.608
			l-0.029,0.004l1.417,8.235l-1.033,0.202l-1.633-9.89l1.223-0.241l2.235,3.896L213.829,90.606z"/>
		<path fill="#FFFFFF" d="M218.855,89.619l1.401,7.153c0.19,0.972,0.562,1.85,1.784,1.609c1.227-0.238,1.25-1.21,1.063-2.167
			l-1.402-7.153l0.989-0.192l1.457,7.447c0.301,1.532-0.463,2.707-1.926,2.993c-1.486,0.294-2.601-0.544-2.887-2.004l-1.466-7.491
			L218.855,89.619z"/>
		<path fill="#FFFFFF" d="M229.985,89.766c-0.304-0.691-0.802-1.345-1.642-1.177c-0.928,0.18-1.15,1.005-0.986,1.83
			c0.155,0.797,0.365,1.015,2.096,1.64c1.352,0.486,2.296,0.929,2.594,2.448c0.303,1.549-0.283,2.934-1.936,3.259
			c-1.738,0.34-2.599-0.687-3.052-2.221l0.963-0.327c0.345,1.068,0.742,1.848,1.936,1.613c0.855-0.168,1.35-0.862,1.119-2.043
			c-0.254-1.296-1.183-1.574-2.315-1.967c-1.267-0.44-2.108-0.763-2.393-2.208c-0.261-1.328,0.393-2.68,1.793-2.957
			c1.387-0.271,2.26,0.585,2.753,1.775L229.985,89.766z"/>
		<path fill="#FFFFFF" d="M233.88,86.675l4.792-0.938l0.172,0.885l-3.803,0.745l0.635,3.244l3.143-0.617l0.172,0.885l-3.139,0.615
			l0.769,3.939l3.807-0.746l0.173,0.885l-4.792,0.939L233.88,86.675z"/>
		<path fill="#FFFFFF" d="M242.431,84.999l1.401,7.152c0.19,0.977,0.562,1.851,1.785,1.61c1.223-0.238,1.25-1.208,1.062-2.166
			l-1.401-7.153l0.988-0.193l1.457,7.446c0.302,1.534-0.464,2.709-1.925,2.993c-1.489,0.295-2.601-0.545-2.888-2.003l-1.469-7.491
			L242.431,84.999z"/>
		<path fill="#FFFFFF" d="M253.119,82.906l1.24-0.241l2.221,9.776l-1.045,0.204l-1.799-8.161l-0.029,0.006l-0.714,5.27l-2.648-4.611
			l-0.032,0.007l1.417,8.235l-1.033,0.203l-1.633-9.894l1.226-0.24l2.233,3.895L253.119,82.906z"/>
	</g>
	<g>
		<polygon fill="#4F2D17" points="24.529,16.137 4.432,8.456 4.432,12.295 24.529,20.44 		"/>
		<polygon fill="#4F2D17" points="22.707,18.127 1.558,22.08 3.565,25.354 24.955,21.797 		"/>
	</g>
</g>
</svg>
