<?xml version="1.0" encoding="utf-8"?>
<!-- Generator: Adobe Illustrator 16.0.0, SVG Export Plug-In . SVG Version: 6.00 Build 0)  -->
<!DOCTYPE svg PUBLIC "-//W3C//DTD SVG 1.1//EN" "http://www.w3.org/Graphics/SVG/1.1/DTD/svg11.dtd">
<svg version="1.1" xmlns="http://www.w3.org/2000/svg" xmlns:xlink="http://www.w3.org/1999/xlink" x="0px" y="0px"
	 width="310.484px" height="494.975px" viewBox="0 0 310.484 494.975" enable-background="new 0 0 310.484 494.975"
	 xml:space="preserve">
<g id="Layer_4">
	<g>
		<path fill="#FFFFFF" d="M13.407,483.184l-0.074-324.528c0-38.875,15.139-75.424,42.628-102.914
			c27.488-27.489,64.038-42.628,102.916-42.628l142.525,0.08v469.989H13.407z"/>
		<path d="M158.884,15.115l123.528,0.069l9.994,0.006l6.996,0.004v6.996v9.994v449H15.407l-0.074-322.528
			c0-38.341,14.931-74.387,42.042-101.499c27.111-27.111,63.158-42.042,101.502-42.042h0.003h0.002H158.884 M158.886,11.115
			L158.886,11.115h-0.002h-0.002c-39.417,0-76.469,15.347-104.335,43.213C26.68,82.195,11.333,119.247,11.333,158.656l0.074,322.529
			l0.001,3.999h3.999h283.995h4v-4v-449V22.19v-6.996v-3.998l-3.998-0.002l-6.996-0.004l-9.994-0.006L158.886,11.115L158.886,11.115
			z"/>
	</g>
</g>
<g id="Layer_1">
	<g>
		<defs>
			<path id="SVGID_1_" d="M32.333,158.656c0-69.887,56.654-126.541,126.541-126.541l123.528,0.069v400h-250L32.333,158.656z"/>
		</defs>
		<clipPath id="SVGID_2_">
			<use xlink:href="#SVGID_1_"  overflow="visible"/>
		</clipPath>
		<linearGradient id="SVGID_3_" gradientUnits="userSpaceOnUse" x1="158.9434" y1="328.5034" x2="158.9433" y2="29.3984">
			<stop  offset="0" style="stop-color:#8EBDD3"/>
			<stop  offset="1" style="stop-color:#9FD3F0"/>
		</linearGradient>
		<rect x="29.443" y="29.398" clip-path="url(#SVGID_2_)" fill="url(#SVGID_3_)" width="259" height="299.105"/>
		<path clip-path="url(#SVGID_2_)" fill="#FFFFFF" d="M284.908,173.398c0.28-0.879,0.437-1.814,0.437-2.786
			c0-5.067-4.108-9.175-9.175-9.175c-2.809,0-5.318,1.265-7.002,3.252c-0.688-0.31-1.398-0.576-2.133-0.791
			c-1.92-3.712-5.717-6.284-10.137-6.474c-4.287-8.041-12.755-13.517-22.504-13.517c-12.309,0-22.578,8.724-24.966,20.326
			c-2.423-1.503-5.271-2.385-8.332-2.385c-8.752,0-15.847,7.095-15.847,15.847c0,0.844,0.085,1.666,0.212,2.473
			c-0.734,0.541-1.408,1.156-2.011,1.838c-3.908-2.899-8.747-4.615-13.987-4.615c-12.982,0-23.507,10.524-23.507,23.507
			c0,5.568,1.94,10.681,5.176,14.708c-1.303,1.515-2.095,3.481-2.095,5.636c0,0.895,0.136,1.758,0.388,2.57
			c-2.479-1.497-5.375-2.374-8.482-2.374c-9.09,0-16.459,7.369-16.459,16.459c0,7.562,5.105,13.916,12.053,15.845
			c-0.254,1.012-0.404,2.064-0.404,3.155c0,3.526,1.418,6.72,3.711,9.05c-0.968,0.217-1.828,0.711-2.495,1.398
			c-2.668-3.057-6.582-4.997-10.958-4.997c-4.074,0-23.942,7.045-25.179,11.766c-6.438,1.286-11.29,6.967-11.29,13.783
			c0,2.396,0.603,4.648,1.659,6.622c-1.505,1.965-2.409,4.415-2.409,7.081c0,0.924,0.118,1.818,0.321,2.68
			c-2.481-1.986-5.624-3.182-9.05-3.182c-6.81,0-12.508,4.701-14.064,11.031c-1.004-0.606-2.177-0.962-3.436-0.962
			c-3.68,0-6.662,2.982-6.662,6.662c0,0.035,0.005,0.069,0.005,0.104l-37.343,0.938l3.5,123.525h270.793v-269H284.908z"/>
		<polygon clip-path="url(#SVGID_2_)" fill="#B7B996" points="27.944,318.898 44.943,317.22 177.277,340.075 209.972,341.866 
			222.492,370.899 233.948,358.603 286.61,346.065 288.277,435.065 27.944,437.398 		"/>
		<polygon clip-path="url(#SVGID_2_)" points="126.393,261.398 44.943,287.898 44.943,340.075 126.393,346.33 126.393,265.398 
			167.693,278.523 		"/>
		<polygon clip-path="url(#SVGID_2_)" fill="none" points="259.751,290.015 285.221,285.654 259.751,274.58 		"/>
		<g clip-path="url(#SVGID_2_)">
			<polygon points="103.981,307.763 103.981,349.053 221.93,357.72 218.629,280.396 			"/>
		</g>
		<g clip-path="url(#SVGID_2_)">
			<polygon points="336.167,276.929 285.221,285.654 259.751,290.015 259.751,274.58 285.221,285.654 259.751,270.58 
				230.536,277.553 233.948,358.603 336.167,366.114 			"/>
		</g>
		<path clip-path="url(#SVGID_2_)" fill="#FFFFFF" d="M126.393,334.227c-0.692,0.134-1.386,0.235-2.079,0.329
			c-0.693,0.091-1.386,0.218-2.081,0.272l-2.082,0.208c-0.694,0.062-1.389,0.152-2.084,0.193l-4.171,0.23
			c-0.696,0.028-1.39,0.1-2.087,0.093l-2.089,0.024l0.815-0.843l-0.063,2.898c-0.01,0.967-0.112,1.933-0.163,2.899
			c-0.077,0.966-0.098,1.932-0.222,2.898c-0.109,0.966-0.19,1.933-0.346,2.898h-0.1l-0.041-11.595v-0.088l0.088-0.003
			c5.565-0.203,11.134-0.343,16.7-0.517L126.393,334.227z"/>
		<path clip-path="url(#SVGID_2_)" fill="#FFFFFF" d="M319.622,327.785c-1.918,0.24-3.839,0.386-5.759,0.577
			c-1.92,0.166-3.842,0.279-5.764,0.422l-2.882,0.2l-2.885,0.131l-5.769,0.264l0.846-0.871c0.045,2.274-0.037,4.548-0.062,6.822
			l-0.056,3.411c-0.027,1.138-0.02,2.274-0.075,3.411l-0.28,6.822c-0.058,1.137-0.143,2.273-0.212,3.41
			c-0.067,1.137-0.149,2.273-0.255,3.41h-0.1l0.069-27.291v-0.093l0.093-0.003l23.086-0.723L319.622,327.785z"/>
		<path clip-path="url(#SVGID_2_)" fill="#FFFFFF" d="M266.502,329.555c-1.682,0.236-3.366,0.374-5.049,0.561
			c-0.842,0.091-1.685,0.137-2.527,0.207l-2.527,0.193c-0.842,0.061-1.684,0.14-2.527,0.184l-2.529,0.121l-5.06,0.241l0.852-0.881
			c0.049,1.923-0.033,3.845-0.044,5.768l-0.041,2.884c-0.02,0.961-0.011,1.922-0.064,2.884l-0.248,5.767l-0.197,2.884
			c-0.061,0.961-0.138,1.923-0.236,2.884h-0.1l-0.047-23.069v-0.094l0.094-0.003l20.248-0.629L266.502,329.555z"/>
		<path clip-path="url(#SVGID_2_)" fill="#FFFFFF" d="M157.941,333.176c-0.983,0.152-1.967,0.264-2.951,0.375
			c-0.984,0.115-1.968,0.235-2.953,0.305c-1.971,0.146-3.939,0.371-5.912,0.452l-5.917,0.295c-0.986,0.064-1.974,0.054-2.961,0.078
			l-2.962,0.05l0.789-0.816c-0.025,1.139-0.023,2.276-0.07,3.415l-0.17,3.415l-0.085,1.708c-0.026,0.568-0.087,1.138-0.129,1.707
			c-0.095,1.139-0.174,2.276-0.312,3.415h-0.1l-0.036-13.66l-0.001-0.083l0.084-0.003c7.893-0.296,15.789-0.498,23.683-0.752
			L157.941,333.176z"/>
		<path clip-path="url(#SVGID_2_)" fill="#FFFFFF" d="M126.397,318.922c-0.683,0.194-1.368,0.363-2.056,0.52
			s-1.371,0.336-2.062,0.473l-4.141,0.809c-0.691,0.125-1.387,0.218-2.08,0.328l-2.082,0.318l-2.082,0.318
			c-0.692,0.115-1.394,0.167-2.091,0.253l0.754-0.859l-0.069,3.413c-0.006,1.138-0.067,2.275-0.146,3.414l-0.104,1.706
			c-0.039,0.569-0.057,1.138-0.123,1.707c-0.123,1.138-0.204,2.275-0.375,3.413h-0.1l-0.045-13.653v-0.083l0.082-0.011l16.705-2.165
			L126.397,318.922z"/>
		<path clip-path="url(#SVGID_2_)" fill="#FFFFFF" d="M157.946,314.748c-0.973,0.241-1.948,0.449-2.926,0.651
			c-0.978,0.2-1.951,0.431-2.934,0.593l-2.942,0.53c-0.981,0.169-1.959,0.372-2.944,0.512l-5.908,0.875
			c-0.985,0.143-1.968,0.306-2.958,0.407l-2.966,0.347l0.729-0.832l-0.062,4.021c-0.001,0.67-0.046,1.34-0.074,2.01l-0.093,2.011
			c-0.073,1.341-0.1,2.681-0.221,4.021c-0.106,1.34-0.187,2.681-0.34,4.021h-0.1l-0.04-16.084v-0.079l0.078-0.011l23.687-3.093
			L157.946,314.748z"/>
		<path clip-path="url(#SVGID_2_)" fill="#FFFFFF" d="M126.4,310.166c-0.672,0.259-1.354,0.469-2.033,0.686
			c-0.678,0.226-1.359,0.43-2.045,0.615c-1.369,0.382-2.745,0.729-4.128,1.037c-0.69,0.164-1.383,0.312-2.078,0.447
			c-0.694,0.136-1.386,0.29-2.084,0.411l-2.093,0.368c-0.697,0.122-1.4,0.214-2.101,0.322l0.647-0.781
			c-0.045,1.302-0.181,2.604-0.267,3.905c-0.035,0.651-0.126,1.302-0.205,1.953c-0.077,0.65-0.155,1.301-0.273,1.952h-0.1
			l-0.031-7.811l-0.001-0.066l0.067-0.014c5.558-1.096,11.136-2.082,16.704-3.123L126.4,310.166z"/>
		<path clip-path="url(#SVGID_2_)" fill="#FFFFFF" d="M319.627,290.184c-1.89,0.42-3.79,0.771-5.687,1.146
			c-1.895,0.389-3.803,0.688-5.704,1.028c-1.903,0.323-3.803,0.681-5.711,0.977l-5.726,0.872l0.721-0.825l0.028,4.391
			c0.022,1.464-0.015,2.927-0.033,4.391l-0.13,8.781c-0.014,1.464-0.095,2.927-0.14,4.39l-0.158,4.391
			c-0.039,1.464-0.146,2.927-0.221,4.39c-0.079,1.464-0.163,2.927-0.282,4.39h-0.1l0.107-35.126v-0.078l0.077-0.011l22.943-3.204
			L319.627,290.184z"/>
		<path clip-path="url(#SVGID_2_)" fill="#FFFFFF" d="M266.507,297.696c-1.665,0.393-3.341,0.711-5.013,1.059
			c-1.67,0.361-3.354,0.62-5.031,0.936c-1.68,0.289-3.353,0.631-5.039,0.877l-5.053,0.779l0.726-0.836l0.046,3.709
			c0.025,1.236-0.019,2.473-0.025,3.709l-0.091,7.418c-0.021,1.236-0.085,2.472-0.125,3.708l-0.138,3.709
			c-0.031,1.236-0.136,2.473-0.201,3.709c-0.071,1.236-0.149,2.473-0.26,3.709h-0.1l-0.041-29.671v-0.079l0.078-0.011l20.253-2.824
			L266.507,297.696z"/>
		<path clip-path="url(#SVGID_2_)" fill="#FFFFFF" d="M157.949,304.205c-0.962,0.321-1.934,0.586-2.903,0.865
			c-0.967,0.291-1.943,0.53-2.92,0.769l-2.929,0.726c-0.978,0.235-1.965,0.418-2.947,0.63c-1.971,0.386-3.923,0.873-5.91,1.175
			l-2.97,0.505c-0.991,0.162-1.979,0.348-2.973,0.492l0.61-0.736l-0.257,4.601c-0.048,0.767-0.134,1.533-0.199,2.301
			c-0.063,0.767-0.142,1.533-0.244,2.3h-0.1l-0.027-9.201l-0.001-0.064l0.063-0.012c3.945-0.758,7.889-1.521,11.84-2.245
			l11.847-2.201L157.949,304.205z"/>
		<path clip-path="url(#SVGID_2_)" fill="#FFFFFF" d="M226.499,330.889c-2.372,0.227-4.745,0.387-7.118,0.568
			c-2.373,0.195-4.748,0.311-7.122,0.455l-7.123,0.411l-7.128,0.298l-7.127,0.297c-2.376,0.096-4.754,0.129-7.13,0.196l-7.132,0.179
			c-1.188,0.023-2.376,0.074-3.565,0.074l-3.567,0.029l0.633-0.655l-0.104,4.154c-0.041,1.385-0.056,2.77-0.124,4.155
			c-0.123,2.77-0.205,5.539-0.377,8.309h-0.1l-0.022-16.618v-0.07l0.07-0.002l57.033-1.88L226.499,330.889z"/>
		<path clip-path="url(#SVGID_2_)" fill="#FFFFFF" d="M224.987,305.877l-6.899,1.224c-1.15,0.196-2.298,0.424-3.451,0.596
			l-3.459,0.545l-6.917,1.09l-6.931,0.982l-6.933,0.975c-1.155,0.156-2.309,0.339-3.468,0.474l-3.473,0.432l-6.947,0.861
			c-2.317,0.278-4.629,0.598-6.951,0.828l0.623-0.711l-0.241,9.785l-0.427,9.784h-0.1l-0.026-19.569v-0.066l0.066-0.009l55.52-7.319
			L224.987,305.877z"/>
		<path clip-path="url(#SVGID_2_)" fill="#FFFFFF" d="M224.131,291.702c-2.247,0.587-4.51,1.097-6.767,1.638
			c-2.255,0.549-4.527,1.003-6.791,1.51c-2.268,0.482-4.524,1.017-6.802,1.447l-6.82,1.354c-2.276,0.439-4.542,0.93-6.826,1.328
			l-6.844,1.228l-3.422,0.614c-1.143,0.198-2.279,0.423-3.426,0.597l-6.868,1.101l0.446-0.538c-0.04,1.865-0.116,3.731-0.209,5.597
			c-0.084,1.865-0.163,3.731-0.289,5.597h-0.1l-0.017-11.193v-0.056l0.054-0.01l27.325-5.188l27.337-5.122L224.131,291.702z"/>
		<polygon clip-path="url(#SVGID_2_)" points="222.521,370.891 234.395,358.195 222.35,366.901 214.864,192.203 227.334,201.503 
			214.688,188.071 185.385,206.314 179.672,365.511 222.492,370.899 222.492,370.903 222.499,370.9 222.521,370.903 		"/>
		<path clip-path="url(#SVGID_2_)" fill="#FFFFFF" d="M200.021,228.157c0.35-0.415,0.694-0.747,1.027-0.997
			c-0.916-1.157-2.244-0.958-3.683,0.811c-2.486,3.058-4.395,9.733-4.395,15.077c0,4.657,1.447,7.121,3.464,6.07
			c-0.684-1.093-1.09-2.961-1.09-5.432C195.345,238.181,197.373,231.306,200.021,228.157z"/>
		<path clip-path="url(#SVGID_2_)" d="M31.782,341.592c0,0,153.161,1.056,173.892,95.807H-66.463
			C-66.463,437.399,145.437,361.405,31.782,341.592z"/>
		<circle clip-path="url(#SVGID_2_)" fill="#FFFFFF" cx="61.481" cy="168.83" r="10.5"/>
		<circle clip-path="url(#SVGID_2_)" fill="#FFFFFF" cx="77.981" cy="165.436" r="17.553"/>
		<circle clip-path="url(#SVGID_2_)" fill="#FFFFFF" cx="97.481" cy="171.83" r="6.5"/>
		<circle clip-path="url(#SVGID_2_)" fill="#FFFFFF" cx="194.443" cy="74.33" r="10.5"/>
		<circle clip-path="url(#SVGID_2_)" fill="#FFFFFF" cx="185.147" cy="80.83" r="4.63"/>
		<circle clip-path="url(#SVGID_2_)" fill="#FFFFFF" cx="205.064" cy="77.295" r="6.736"/>
	</g>
</g>
<g id="Layer_5">
	<g>
		<path d="M158.874,32.115l123.528,0.069v400h-250l-0.069-273.528C32.333,88.769,88.987,32.115,158.874,32.115 M158.88,22.115
			h-0.003h-0.003c-36.472,0-70.76,14.203-96.549,39.992c-25.789,25.79-39.992,60.078-39.992,96.549l0.069,273.531l0.003,9.997h9.997
			h250h10v-10v-400V22.19l-9.994-0.006L158.88,22.115L158.88,22.115z"/>
	</g>
</g>
<g id="Layer_3">
	<g>
		<path fill="#464142" d="M40.684,455.277h2.237v16.107h-2.237v-7.011h-8.78v7.011h-2.236v-16.107h2.236v6.964h8.78V455.277z"/>
		<path fill="#464142" d="M46.388,455.277h2.236v16.107h-2.236V455.277z"/>
		<path fill="#464142" d="M55.962,464.635l-1.7-1.064c-1.066-0.672-1.825-1.332-2.276-1.981s-0.677-1.396-0.677-2.242
			c0-1.269,0.427-2.299,1.28-3.091c0.854-0.791,1.963-1.188,3.328-1.188c1.305,0,2.501,0.378,3.59,1.133v2.617
			c-1.126-1.116-2.338-1.675-3.635-1.675c-0.73,0-1.331,0.175-1.801,0.523c-0.47,0.348-0.705,0.794-0.705,1.338
			c0,0.482,0.174,0.934,0.52,1.355c0.346,0.421,0.902,0.863,1.669,1.326l1.709,1.042c1.905,1.174,2.858,2.667,2.858,4.481
			c0,1.291-0.419,2.341-1.258,3.147c-0.839,0.808-1.93,1.211-3.271,1.211c-1.544,0-2.949-0.489-4.217-1.468v-2.928
			c1.208,1.577,2.605,2.366,4.194,2.366c0.7,0,1.284-0.201,1.75-0.604s0.699-0.905,0.699-1.511
			C58.02,466.445,57.333,465.515,55.962,464.635z"/>
		<path fill="#464142" d="M61.252,455.253h13.053v2.053h-5.447v14.078h-2.248v-14.078h-5.357V455.253z"/>
		<path fill="#464142" d="M82.598,455.046c2.414,0,4.424,0.788,6.03,2.363c1.605,1.576,2.408,3.552,2.408,5.927
			s-0.811,4.341-2.431,5.897c-1.621,1.557-3.664,2.335-6.131,2.335c-2.354,0-4.316-0.778-5.885-2.335s-2.353-3.507-2.353-5.852
			c0-2.406,0.789-4.396,2.369-5.973C78.187,455.834,80.184,455.046,82.598,455.046z M82.687,457.237
			c-1.787,0-3.257,0.576-4.408,1.729c-1.15,1.153-1.727,2.625-1.727,4.416c0,1.737,0.578,3.183,1.732,4.335
			c1.154,1.153,2.6,1.729,4.336,1.729c1.743,0,3.197-0.588,4.363-1.764s1.749-2.641,1.749-4.393c0-1.707-0.583-3.143-1.749-4.307
			C85.817,457.819,84.386,457.237,82.687,457.237z"/>
		<path fill="#464142" d="M93.854,471.384v-16.107h3.915c1.581,0,2.835,0.403,3.764,1.21c0.929,0.808,1.393,1.899,1.393,3.275
			c0,0.938-0.228,1.748-0.683,2.433s-1.107,1.195-1.957,1.533c0.499,0.339,0.988,0.8,1.465,1.384
			c0.478,0.584,1.148,1.603,2.014,3.056c0.544,0.915,0.98,1.603,1.309,2.063l0.827,1.153h-2.661l-0.682-1.062
			c-0.022-0.038-0.067-0.104-0.134-0.196l-0.437-0.634l-0.692-1.177l-0.748-1.258c-0.462-0.661-0.885-1.188-1.27-1.579
			c-0.384-0.392-0.731-0.674-1.041-0.846c-0.31-0.173-0.831-0.26-1.562-0.26h-0.582v7.011H93.854z M96.763,457.237h-0.671v5.085
			h0.851c1.133,0,1.91-0.1,2.331-0.3c0.422-0.2,0.75-0.502,0.984-0.905c0.235-0.403,0.353-0.863,0.353-1.378
			c0-0.507-0.131-0.967-0.392-1.378s-0.628-0.701-1.102-0.87S97.859,457.237,96.763,457.237z"/>
		<path fill="#464142" d="M107.646,455.277h2.236v16.107h-2.236V455.277z"/>
		<path fill="#464142" d="M126.816,467.649v2.536c-1.641,0.923-3.534,1.384-5.682,1.384c-1.745,0-3.225-0.361-4.44-1.084
			c-1.215-0.723-2.177-1.718-2.886-2.986c-0.708-1.269-1.062-2.641-1.062-4.116c0-2.345,0.812-4.316,2.433-5.915
			c1.622-1.599,3.622-2.398,6.001-2.398c1.641,0,3.463,0.442,5.469,1.326v2.479c-1.826-1.076-3.612-1.614-5.357-1.614
			c-1.789,0-3.275,0.582-4.457,1.746c-1.182,1.165-1.772,2.623-1.772,4.376c0,1.769,0.582,3.221,1.745,4.358s2.65,1.706,4.463,1.706
			C123.163,469.447,125.012,468.847,126.816,467.649z"/>
		<path fill="#464142" d="M147.565,467.649v2.536c-1.641,0.923-3.534,1.384-5.682,1.384c-1.745,0-3.225-0.361-4.44-1.084
			c-1.215-0.723-2.177-1.718-2.886-2.986c-0.708-1.269-1.062-2.641-1.062-4.116c0-2.345,0.812-4.316,2.433-5.915
			c1.622-1.599,3.622-2.398,6.001-2.398c1.641,0,3.463,0.442,5.469,1.326v2.479c-1.826-1.076-3.612-1.614-5.357-1.614
			c-1.789,0-3.275,0.582-4.457,1.746c-1.182,1.165-1.772,2.623-1.772,4.376c0,1.769,0.582,3.221,1.745,4.358s2.65,1.706,4.463,1.706
			C143.912,469.447,145.761,468.847,147.565,467.649z"/>
		<path fill="#464142" d="M155.876,455.184h1.572l7.006,16.2h-2.289l-2.083-4.773h-6.666l-1.952,4.773h-2.299L155.876,455.184z
			 M159.163,464.558l-2.521-5.834l-2.338,5.834H159.163z"/>
		<path fill="#464142" d="M178.592,455.277h2.092v16.107h-2.248v-12.533l-4.804,6.227h-0.414l-4.859-6.227v12.533h-2.237v-16.107
			h2.118l5.191,6.615L178.592,455.277z"/>
		<path fill="#464142" d="M183.927,471.384v-16.131h4.954c1.491,0,2.681,0.415,3.568,1.245s1.331,1.945,1.331,3.344
			c0,0.938-0.228,1.769-0.683,2.491s-1.077,1.247-1.867,1.573c-0.791,0.327-1.924,0.49-3.4,0.49h-1.655v6.987H183.927z
			 M188.49,457.306h-2.315v5.038h2.449c0.91,0,1.61-0.221,2.103-0.662c0.492-0.442,0.738-1.074,0.738-1.897
			C191.465,458.132,190.474,457.306,188.49,457.306z"/>
		<path fill="#464142" d="M206.598,455.277h2.248v9.144c0,1.237-0.088,2.171-0.263,2.802c-0.175,0.63-0.392,1.154-0.648,1.573
			c-0.258,0.419-0.572,0.794-0.945,1.125c-1.238,1.099-2.855,1.648-4.854,1.648c-2.035,0-3.668-0.546-4.898-1.638
			c-0.373-0.338-0.688-0.717-0.945-1.136c-0.257-0.419-0.47-0.932-0.638-1.539c-0.167-0.607-0.251-1.561-0.251-2.859v-9.12h2.248
			v9.144c0,1.514,0.167,2.567,0.503,3.159s0.847,1.066,1.532,1.424c0.687,0.357,1.495,0.536,2.427,0.536
			c1.327,0,2.409-0.357,3.244-1.072c0.439-0.385,0.757-0.838,0.95-1.36c0.194-0.523,0.291-1.419,0.291-2.687V455.277z"/>
		<path fill="#464142" d="M215.814,464.635l-1.7-1.064c-1.066-0.672-1.825-1.332-2.276-1.981s-0.677-1.396-0.677-2.242
			c0-1.269,0.427-2.299,1.28-3.091c0.854-0.791,1.963-1.188,3.328-1.188c1.305,0,2.501,0.378,3.59,1.133v2.617
			c-1.126-1.116-2.338-1.675-3.635-1.675c-0.73,0-1.331,0.175-1.801,0.523c-0.47,0.348-0.705,0.794-0.705,1.338
			c0,0.482,0.174,0.934,0.52,1.355c0.346,0.421,0.902,0.863,1.669,1.326l1.709,1.042c1.905,1.174,2.858,2.667,2.858,4.481
			c0,1.291-0.419,2.341-1.258,3.147c-0.839,0.808-1.93,1.211-3.271,1.211c-1.544,0-2.949-0.489-4.217-1.468v-2.928
			c1.208,1.577,2.605,2.366,4.194,2.366c0.7,0,1.284-0.201,1.75-0.604s0.699-0.905,0.699-1.511
			C217.872,466.445,217.186,465.515,215.814,464.635z"/>
		<path fill="#464142" d="M225.979,455.253h13.053v2.053h-5.447v14.078h-2.248v-14.078h-5.357V455.253z"/>
		<path fill="#464142" d="M247.325,455.046c2.414,0,4.424,0.788,6.03,2.363c1.605,1.576,2.408,3.552,2.408,5.927
			s-0.811,4.341-2.431,5.897c-1.621,1.557-3.664,2.335-6.131,2.335c-2.354,0-4.316-0.778-5.885-2.335s-2.353-3.507-2.353-5.852
			c0-2.406,0.789-4.396,2.369-5.973C242.914,455.834,244.911,455.046,247.325,455.046z M247.414,457.237
			c-1.787,0-3.257,0.576-4.408,1.729c-1.15,1.153-1.727,2.625-1.727,4.416c0,1.737,0.578,3.183,1.732,4.335
			c1.154,1.153,2.6,1.729,4.336,1.729c1.743,0,3.197-0.588,4.363-1.764s1.749-2.641,1.749-4.393c0-1.707-0.583-3.143-1.749-4.307
			C250.545,457.819,249.113,457.237,247.414,457.237z"/>
		<path fill="#464142" d="M269.387,455.277h2.248v9.144c0,1.237-0.088,2.171-0.263,2.802c-0.175,0.63-0.392,1.154-0.648,1.573
			c-0.258,0.419-0.572,0.794-0.945,1.125c-1.238,1.099-2.855,1.648-4.854,1.648c-2.035,0-3.668-0.546-4.898-1.638
			c-0.373-0.338-0.688-0.717-0.945-1.136c-0.257-0.419-0.47-0.932-0.638-1.539c-0.167-0.607-0.251-1.561-0.251-2.859v-9.12h2.248
			v9.144c0,1.514,0.167,2.567,0.503,3.159s0.847,1.066,1.532,1.424c0.687,0.357,1.495,0.536,2.427,0.536
			c1.327,0,2.409-0.357,3.244-1.072c0.439-0.385,0.757-0.838,0.95-1.36c0.194-0.523,0.291-1.419,0.291-2.687V455.277z"/>
		<path fill="#464142" d="M274.8,471.384v-16.107h3.915c1.581,0,2.835,0.403,3.764,1.21c0.929,0.808,1.393,1.899,1.393,3.275
			c0,0.938-0.228,1.748-0.683,2.433s-1.107,1.195-1.957,1.533c0.499,0.339,0.988,0.8,1.465,1.384
			c0.478,0.584,1.148,1.603,2.014,3.056c0.544,0.915,0.98,1.603,1.309,2.063l0.827,1.153h-2.661l-0.682-1.062
			c-0.022-0.038-0.067-0.104-0.134-0.196l-0.437-0.634l-0.692-1.177l-0.748-1.258c-0.462-0.661-0.885-1.188-1.27-1.579
			c-0.384-0.392-0.731-0.674-1.041-0.846c-0.31-0.173-0.831-0.26-1.562-0.26h-0.582v7.011H274.8z M277.708,457.237h-0.671v5.085
			h0.851c1.133,0,1.91-0.1,2.331-0.3c0.422-0.2,0.75-0.502,0.984-0.905c0.235-0.403,0.353-0.863,0.353-1.378
			c0-0.507-0.131-0.967-0.392-1.378s-0.628-0.701-1.102-0.87S278.805,457.237,277.708,457.237z"/>
	</g>
</g>
</svg>
