<?xml version="1.0" encoding="utf-8"?>
<!-- Generator: Adobe Illustrator 16.0.0, SVG Export Plug-In . SVG Version: 6.00 Build 0)  -->
<!DOCTYPE svg PUBLIC "-//W3C//DTD SVG 1.1//EN" "http://www.w3.org/Graphics/SVG/1.1/DTD/svg11.dtd">
<svg version="1.1" id="Layer_1" xmlns="http://www.w3.org/2000/svg" xmlns:xlink="http://www.w3.org/1999/xlink" x="0px" y="0px"
	 width="298px" height="32px" viewBox="0 0 298 32" enable-background="new 0 0 298 32" xml:space="preserve">
<g>
	<polygon fill="#D76A18" points="295.516,1.462 282.929,12.94 295.516,24.422 269.065,24.422 269.065,1.462 	"/>
</g>
<g>
	<polygon fill="#D76A18" points="10.696,1.462 10.696,24.422 6.352,24.422 1,1.462 	"/>
</g>
<g>
	<path fill="#F1F2F2" d="M101.587,1.498h15.828v3.468h-11.814v6.004h10.369v3.273h-10.369v10.178h-4.014V1.498z"/>
	<path fill="#F1F2F2" d="M119.565,1.498h3.661v3.468h-3.661V1.498z M119.565,7.821h3.661v16.6h-3.661V7.821z"/>
	<path fill="#F1F2F2" d="M126.562,7.821h3.468v2.44l0.065,0.063c0.556-0.919,1.283-1.642,2.184-2.167
		c0.899-0.523,1.895-0.787,2.984-0.787c1.821,0,3.252,0.472,4.302,1.412c1.048,0.943,1.573,2.354,1.573,4.238v11.398h-3.66V13.986
		c-0.041-1.305-0.321-2.252-0.833-2.842c-0.515-0.589-1.316-0.883-2.409-0.883c-0.622,0-1.178,0.112-1.669,0.336
		c-0.492,0.225-0.909,0.536-1.251,0.933c-0.342,0.396-0.611,0.86-0.802,1.396c-0.193,0.536-0.29,1.103-0.29,1.701v9.792h-3.661
		V7.821H126.562z"/>
	<path fill="#F1F2F2" d="M159.985,24.421h-3.47v-2.247h-0.062c-0.494,0.962-1.21,1.652-2.15,2.07
		c-0.942,0.417-1.939,0.626-2.985,0.626c-1.306,0-2.445-0.229-3.419-0.689c-0.976-0.46-1.782-1.087-2.425-1.881
		c-0.64-0.789-1.124-1.727-1.444-2.805c-0.319-1.084-0.481-2.244-0.481-3.486c0-1.498,0.204-2.793,0.611-3.885
		c0.405-1.09,0.946-1.989,1.62-2.697c0.674-0.706,1.445-1.226,2.312-1.557c0.867-0.332,1.751-0.497,2.649-0.497
		c0.512,0,1.037,0.048,1.573,0.146c0.533,0.095,1.048,0.252,1.541,0.465c0.49,0.213,0.945,0.488,1.364,0.818
		c0.418,0.332,0.765,0.722,1.042,1.172h0.064V1.498h3.66V24.421z M147.207,16.297c0,0.708,0.092,1.404,0.272,2.087
		c0.184,0.686,0.46,1.294,0.836,1.83c0.374,0.532,0.851,0.962,1.43,1.286c0.578,0.319,1.263,0.48,2.054,0.48
		c0.812,0,1.516-0.173,2.103-0.514c0.589-0.342,1.069-0.791,1.445-1.348c0.373-0.557,0.653-1.184,0.834-1.879
		c0.184-0.694,0.273-1.406,0.273-2.134c0-1.841-0.412-3.274-1.234-4.301c-0.826-1.029-1.944-1.542-3.355-1.542
		c-0.856,0-1.581,0.176-2.167,0.529c-0.588,0.354-1.069,0.815-1.446,1.381c-0.374,0.569-0.639,1.208-0.802,1.927
		C147.289,14.816,147.207,15.548,147.207,16.297z"/>
	<path fill="#F1F2F2" d="M163.418,1.498h3.659v3.468h-3.659V1.498z M163.418,7.821h3.659v16.6h-3.659V7.821z"/>
	<path fill="#F1F2F2" d="M170.418,7.821h3.467v2.44l0.065,0.063c0.556-0.919,1.282-1.642,2.184-2.167
		c0.899-0.523,1.894-0.787,2.984-0.787c1.82,0,3.252,0.472,4.303,1.412c1.048,0.943,1.573,2.354,1.573,4.238v11.398h-3.661V13.986
		c-0.042-1.305-0.321-2.252-0.833-2.842c-0.516-0.589-1.316-0.883-2.409-0.883c-0.623,0-1.179,0.112-1.67,0.336
		c-0.49,0.225-0.908,0.536-1.25,0.933c-0.344,0.396-0.611,0.86-0.803,1.396c-0.193,0.536-0.29,1.103-0.29,1.701v9.792h-3.66V7.821z"
		/>
	<path fill="#F1F2F2" d="M203.546,23.554c0,2.503-0.699,4.371-2.1,5.602c-1.406,1.23-3.423,1.845-6.052,1.845
		c-0.838,0-1.677-0.083-2.522-0.256c-0.845-0.173-1.613-0.46-2.312-0.867c-0.694-0.408-1.277-0.939-1.747-1.604
		c-0.474-0.663-0.75-1.476-0.836-2.439h3.659c0.107,0.514,0.291,0.929,0.548,1.254c0.256,0.319,0.562,0.569,0.914,0.753
		c0.353,0.183,0.744,0.3,1.173,0.354c0.426,0.053,0.879,0.079,1.349,0.079c1.474,0,2.556-0.366,3.24-1.092
		c0.685-0.727,1.03-1.777,1.03-3.146v-2.535h-0.062c-0.517,0.919-1.217,1.636-2.105,2.147c-0.89,0.515-1.846,0.773-2.875,0.773
		c-1.326,0-2.454-0.229-3.384-0.689c-0.934-0.462-1.704-1.092-2.312-1.896c-0.613-0.803-1.056-1.727-1.333-2.775
		c-0.279-1.05-0.419-2.173-0.419-3.373c0-1.112,0.174-2.172,0.515-3.178c0.343-1.006,0.835-1.888,1.477-2.648
		c0.643-0.761,1.43-1.365,2.359-1.815c0.93-0.449,1.985-0.674,3.16-0.674c1.05,0,2.012,0.219,2.889,0.658
		c0.879,0.44,1.553,1.129,2.026,2.071h0.063v-2.28h3.656V23.554L203.546,23.554z M195.427,21.531c0.811,0,1.504-0.167,2.069-0.499
		c0.569-0.332,1.029-0.771,1.38-1.313c0.354-0.549,0.61-1.167,0.772-1.863c0.157-0.694,0.24-1.397,0.24-2.104
		c0-0.706-0.089-1.391-0.256-2.054c-0.172-0.663-0.434-1.252-0.789-1.765c-0.35-0.514-0.816-0.921-1.38-1.221
		c-0.569-0.3-1.249-0.45-2.038-0.45c-0.813,0-1.498,0.171-2.056,0.513c-0.556,0.343-1.008,0.788-1.347,1.333
		c-0.347,0.546-0.592,1.165-0.74,1.863c-0.149,0.694-0.225,1.385-0.225,2.069s0.086,1.353,0.256,2.006
		c0.172,0.652,0.434,1.238,0.785,1.749c0.353,0.513,0.802,0.931,1.35,1.254C193.997,21.37,194.655,21.531,195.427,21.531z"/>
	<path fill="#F1F2F2" d="M218.058,1.498l8.957,22.924h-3.371l-2.503-6.903h-9.699l-2.564,6.903h-3.115l8.927-22.924H218.058z
		 M220.179,14.95l-3.824-10.691h-0.062l-3.881,10.691H220.179z"/>
	<path fill="#F1F2F2" d="M228.331,4.836V1.498h2.727v3.338H228.331z M231.058,7.821v16.6h-2.726v-16.6H231.058z"/>
	<path fill="#F1F2F2" d="M246.759,24.421v-2.247h-0.067c-0.449,0.92-1.155,1.584-2.116,1.988c-0.961,0.405-2.021,0.609-3.175,0.609
		c-1.286,0-2.405-0.235-3.355-0.706c-0.957-0.47-1.746-1.103-2.378-1.892c-0.633-0.794-1.107-1.714-1.426-2.763
		c-0.324-1.047-0.487-2.161-0.487-3.339s0.156-2.29,0.471-3.339c0.308-1.047,0.778-1.963,1.411-2.744s1.422-1.402,2.379-1.861
		c0.95-0.461,2.058-0.691,3.318-0.691c0.428,0,0.888,0.043,1.384,0.129c0.491,0.084,0.981,0.23,1.473,0.431
		c0.49,0.204,0.957,0.473,1.396,0.804s0.81,0.743,1.107,1.236h0.068v-8.54h2.728v22.923H246.759z M236.953,18.528
		c0.203,0.74,0.511,1.396,0.929,1.973c0.418,0.58,0.951,1.041,1.604,1.38c0.653,0.345,1.415,0.518,2.295,0.518
		c0.919,0,1.702-0.184,2.345-0.55c0.643-0.36,1.165-0.838,1.573-1.427c0.408-0.591,0.701-1.259,0.884-2.008
		c0.182-0.748,0.271-1.509,0.271-2.28c0-0.812-0.095-1.598-0.287-2.358c-0.193-0.76-0.497-1.429-0.915-2.006
		c-0.418-0.577-0.961-1.043-1.619-1.396c-0.663-0.353-1.468-0.531-2.408-0.531c-0.921,0-1.703,0.183-2.347,0.546
		c-0.642,0.365-1.155,0.847-1.541,1.445c-0.383,0.6-0.665,1.284-0.831,2.055c-0.174,0.771-0.262,1.563-0.262,2.376
		C236.645,17.037,236.748,17.791,236.953,18.528z"/>
	<path fill="#F1F2F2" d="M255.138,20.711c0.255,0.419,0.595,0.75,1.013,0.996c0.417,0.249,0.887,0.423,1.411,0.531
		c0.527,0.106,1.065,0.162,1.619,0.162c0.429,0,0.878-0.034,1.354-0.101c0.47-0.062,0.904-0.181,1.295-0.349
		c0.397-0.173,0.727-0.425,0.983-0.758c0.257-0.329,0.381-0.753,0.381-1.269c0-0.704-0.265-1.239-0.799-1.603
		c-0.537-0.365-1.207-0.658-2.006-0.884c-0.806-0.224-1.679-0.428-2.618-0.61c-0.941-0.181-1.813-0.438-2.617-0.77
		c-0.8-0.333-1.469-0.797-2.007-1.397c-0.533-0.599-0.8-1.435-0.8-2.504c0-0.834,0.188-1.552,0.559-2.151
		c0.377-0.599,0.858-1.085,1.448-1.461c0.586-0.374,1.249-0.653,1.991-0.835c0.735-0.181,1.467-0.272,2.199-0.272
		c0.94,0,1.808,0.082,2.596,0.242c0.795,0.16,1.494,0.438,2.105,0.834c0.606,0.396,1.097,0.93,1.459,1.604
		c0.366,0.675,0.578,1.515,0.642,2.522h-2.727c-0.042-0.536-0.185-0.98-0.42-1.333c-0.233-0.354-0.533-0.637-0.898-0.851
		c-0.364-0.214-0.767-0.368-1.202-0.466c-0.438-0.097-0.883-0.145-1.333-0.145c-0.407,0-0.82,0.031-1.237,0.097
		c-0.419,0.065-0.799,0.176-1.139,0.337c-0.346,0.161-0.622,0.375-0.837,0.643c-0.214,0.269-0.317,0.615-0.317,1.044
		c0,0.47,0.161,0.861,0.496,1.171c0.328,0.31,0.753,0.567,1.269,0.77c0.512,0.204,1.093,0.375,1.73,0.515
		c0.642,0.138,1.286,0.284,1.928,0.432c0.685,0.15,1.354,0.333,2.007,0.547c0.653,0.213,1.234,0.497,1.735,0.85
		c0.503,0.355,0.909,0.798,1.218,1.333c0.312,0.536,0.466,1.199,0.466,1.991c0,1.006-0.21,1.839-0.622,2.502
		c-0.419,0.664-0.967,1.202-1.642,1.607s-1.432,0.689-2.278,0.85c-0.846,0.162-1.688,0.24-2.519,0.24
		c-0.92,0-1.797-0.095-2.633-0.287c-0.838-0.193-1.573-0.508-2.216-0.946c-0.643-0.439-1.155-1.02-1.541-1.735
		c-0.388-0.715-0.601-1.589-0.644-2.617h2.729C254.738,19.786,254.881,20.293,255.138,20.711z"/>
</g>
<g>
	<path fill="#F1F2F2" d="M13.138,24.366V1.491H24.1c4.309,0.031,7.92,1.963,7.92,5.989c0,2.82-2.375,4.53-4.943,5.004v0.064
		c3.042,0.412,5.514,2.344,5.514,5.609c0,6.653-8.491,6.208-8.712,6.208L13.138,24.366L13.138,24.366z M23.182,19.931
		c1.584,0,2.757-0.951,2.757-2.376c0-1.268-0.887-2.47-2.313-2.566h-4.149v4.943L23.182,19.931L23.182,19.931z M19.475,10.584
		l3.231-0.031c1.711,0,2.82-0.665,2.82-2.409c0-1.299-1.108-2.216-2.597-2.216h-3.454V10.584z"/>
	<path fill="#F1F2F2" d="M49.577,15.812h-4.658v-4.435h10.995v12.229c-5.133,0.758-6.115,1.234-11.628,1.234
		c-7.128-0.222-11.468-4.752-11.468-11.911c0-7.16,4.339-11.691,11.468-11.912c5.544-0.159,11.374,0.665,11.468,7.319h-6.336
		c-0.317-2.218-2.06-2.884-4.149-2.884c-4.277,0-5.798,3.769-5.798,7.477c0,4.499,2.249,7.478,6.811,7.478
		c1.172,0,2.345-0.19,3.295-0.38v-4.215H49.577z"/>
	<path fill="#F1F2F2" d="M65.11,24.949c-3.638,0-6.707-2.656-6.802-6.42h2.214c0.062,3.51,2.658,4.522,5.725,4.522
		c2.562,0,5.505-1.487,5.505-4.398c0-2.277-1.646-3.353-3.575-3.984c-3.702-1.236-9.332-2.405-9.332-7.34
		c0-3.985,3.668-6.168,7.275-6.168c3.004,0,6.928,1.044,7.434,5.44h-2.214c-0.063-2.816-2.624-3.542-4.966-3.542
		c-2.372,0-5.314,1.202-5.314,3.985c0,6.486,12.905,3.542,12.905,11.418C73.966,23.432,69.696,24.949,65.11,24.949z"/>
	<path fill="#F1F2F2" d="M78.406,1.636v14.771c0.158,4.144,2.531,6.643,6.296,6.643c3.763,0,6.137-2.499,6.293-6.643V1.636h2.059
		V16.44c-0.062,4.903-2.817,8.509-8.352,8.509c-5.536,0-8.287-3.605-8.351-8.509V1.636H78.406z"/>
	<path fill="#F1F2F2" d="M94.798,22.477c0.287,0.294,0.429,0.638,0.429,1.036c0,0.411-0.144,0.761-0.43,1.053
		c-0.289,0.291-0.636,0.438-1.041,0.438c-0.409,0-0.755-0.143-1.043-0.435c-0.291-0.288-0.436-0.641-0.436-1.056
		c0-0.4,0.143-0.743,0.427-1.036c0.291-0.299,0.641-0.446,1.052-0.446C94.16,22.031,94.507,22.178,94.798,22.477z M95.02,22.249
		c-0.349-0.348-0.77-0.525-1.265-0.525c-0.471,0-0.881,0.161-1.231,0.486c-0.371,0.345-0.56,0.78-0.56,1.304
		c0,0.503,0.173,0.928,0.517,1.272c0.346,0.344,0.767,0.517,1.273,0.517c0.487,0,0.902-0.169,1.25-0.506
		c0.358-0.347,0.538-0.777,0.538-1.284C95.542,23.019,95.368,22.6,95.02,22.249z M93.975,23.379
		c-0.068,0.048-0.161,0.072-0.284,0.072H93.49v-0.576h0.125c0.131,0,0.229,0.014,0.302,0.041c0.105,0.043,0.161,0.116,0.161,0.227
		C94.079,23.251,94.043,23.329,93.975,23.379z M93.489,23.805h0.109l0.115,0.01c0.079,0.005,0.138,0.017,0.177,0.03
		c0.071,0.027,0.121,0.076,0.144,0.146c0.018,0.042,0.026,0.123,0.032,0.243c0.004,0.119,0.016,0.212,0.031,0.273h0.495
		l-0.019-0.056c-0.006-0.02-0.011-0.04-0.013-0.058c-0.002-0.02-0.004-0.04-0.004-0.059v-0.177c0-0.203-0.057-0.352-0.175-0.445
		c-0.062-0.051-0.156-0.087-0.281-0.115c0.135-0.013,0.25-0.059,0.343-0.132c0.095-0.075,0.14-0.194,0.14-0.361
		c0-0.22-0.087-0.377-0.265-0.475c-0.105-0.058-0.235-0.091-0.39-0.102c-0.029-0.002-0.165-0.003-0.413-0.004
		c-0.244-0.001-0.428-0.001-0.551-0.001v1.982h0.521v-0.701L93.489,23.805L93.489,23.805z"/>
</g>
</svg>
