<?xml version="1.0" encoding="utf-8"?>
<!-- Generator: Adobe Illustrator 16.0.0, SVG Export Plug-In . SVG Version: 6.00 Build 0)  -->
<!DOCTYPE svg PUBLIC "-//W3C//DTD SVG 1.1//EN" "http://www.w3.org/Graphics/SVG/1.1/DTD/svg11.dtd">
<svg version="1.1" id="Layer_1" xmlns="http://www.w3.org/2000/svg" xmlns:xlink="http://www.w3.org/1999/xlink" x="0px" y="0px"
	 width="405px" height="291.6px" viewBox="0 0 405 291.6" enable-background="new 0 0 405 291.6" xml:space="preserve">
<g>
	<path fill="#F7C23F" d="M372.568,199.342c0,23.512-17.972,42.561-40.135,42.561H59.458c-22.159,0-40.128-19.049-40.128-42.561
		V60.261c0-23.517,17.969-42.562,40.128-42.562h272.976c22.163,0,40.135,19.045,40.135,42.562V199.342z"/>
	<g>
		<g>
			<path fill="#FFFFFF" d="M399.059,93.575l-11.931-11.079c-1.051-0.979-2.527-1.495-4.269-1.495c-3.4,0-7.386,1.909-10.71,5.049
				l22.374,20.79l2.221,2.062C401.148,103.312,402.261,96.553,399.059,93.575z"/>
		</g>
		<g>
			<path fill="#231F20" d="M369.648,83.725l2.501,2.325c3.324-3.14,7.31-5.049,10.71-5.049c1.741,0,3.218,0.517,4.269,1.495
				l11.931,11.079c3.202,2.978,2.09,9.737-2.314,15.327l2.586,2.402c5.853-7.229,6.843-15.927,2.107-20.328l-11.931-11.08
				c-1.714-1.589-4.013-2.43-6.647-2.43c-4.4,0-9.276,2.292-13.306,6.188l0.085,0.08L369.648,83.725z"/>
		</g>
		<g>
			<polygon fill="#FFFFFF" points="389.867,114.545 304.256,208.088 305.45,209.197 391.075,115.668 			"/>
		</g>
		<g>
			<polygon fill="#FFFFFF" points="367.973,94.191 366.016,92.374 280.404,185.922 282.35,187.73 			"/>
		</g>
		<g>
			<polygon fill="#FFFFFF" points="373.2,99.051 369.261,95.391 283.639,188.928 287.583,192.594 			"/>
		</g>
		<g>
			<polygon fill="#FFFFFF" points="378.504,103.98 374.489,100.249 288.875,193.793 292.875,197.514 			"/>
		</g>
		<g>
			<polygon fill="#FFFFFF" points="299.377,203.555 302.967,206.891 388.58,113.348 384.999,110.02 			"/>
		</g>
		<g>
			<polygon fill="#FFFFFF" points="294.166,198.711 298.088,202.357 383.711,108.822 379.791,105.178 			"/>
		</g>
		<g>
			<polygon fill="#231F20" points="291.272,199.264 292.875,197.514 288.875,193.793 287.344,195.465 286.055,194.264 
				287.583,192.594 283.639,188.928 282.153,190.551 281.511,189.951 281.509,189.951 281.511,189.951 280.865,189.35 
				282.35,187.73 280.404,185.922 366.016,92.374 363.705,90.225 369.639,83.734 369.554,83.654 369.378,83.49 275.451,186.123 
				276.032,186.664 276.351,185.309 			"/>
		</g>
		<g>
			<polygon fill="#231F20" points="396.744,108.902 394.523,106.84 399.605,111.562 393.655,118.065 391.075,115.668 
				305.45,209.197 304.256,208.088 302.622,209.875 306.245,213.262 305.086,213.668 305.649,214.191 399.609,111.562 
				399.33,111.305 			"/>
		</g>
		<g>
			<polygon fill="#231F20" points="302.967,206.891 299.377,203.555 297.756,205.326 301.335,208.672 			"/>
		</g>
		<g>
			<polygon fill="#231F20" points="298.088,202.357 294.166,198.711 292.56,200.465 296.471,204.123 			"/>
		</g>
		<g>
			<polygon fill="#FFFFFF" points="393.457,113.07 394.652,111.766 369.847,88.72 368.658,90.021 			"/>
		</g>
		<g>
			<path fill="#231F20" d="M369.648,83.725l-0.01,0.01l-5.934,6.49l2.311,2.149l1.957,1.817l0.893-0.975l1.289,1.198l-0.894,0.976
				l3.939,3.66l0.849-0.928l1.289,1.198l-0.849,0.928l4.015,3.731l0.734-0.802l1.287,1.197l-0.734,0.802l3.92,3.645l0.729-0.798
				l1.29,1.198l-0.731,0.797l3.581,3.328l0.74-0.809l1.287,1.197l-0.74,0.809l1.208,1.123l2.58,2.397l5.95-6.503l-5.082-4.723
				l-22.374-20.79L369.648,83.725z M368.658,90.021l1.188-1.301l24.806,23.046l-1.195,1.305L368.658,90.021z"/>
		</g>
		<g>
			<polygon fill="#231F20" points="389.867,114.545 390.607,113.736 389.32,112.539 388.58,113.348 302.967,206.891 
				301.335,208.672 302.622,209.875 304.256,208.088 			"/>
		</g>
		<g>
			
				<line fill="none" stroke="#FFFFFF" stroke-width="0" stroke-linecap="round" stroke-linejoin="round" x1="281.509" y1="189.951" x2="281.511" y2="189.951"/>
		</g>
		<g>
			<polygon fill="#231F20" points="369.261,95.391 370.154,94.415 368.865,93.217 367.973,94.191 282.35,187.73 280.865,189.35 
				281.511,189.951 282.153,190.551 283.639,188.928 			"/>
		</g>
		<g>
			<polygon fill="#231F20" points="299.377,203.555 384.999,110.02 385.73,109.223 384.44,108.024 383.711,108.822 298.088,202.357 
				296.471,204.123 297.756,205.326 			"/>
		</g>
		<g>
			<polygon fill="#231F20" points="294.166,198.711 379.791,105.178 380.525,104.376 379.238,103.179 378.504,103.98 
				292.875,197.514 291.272,199.264 292.56,200.465 			"/>
		</g>
		<g>
			<polygon fill="#231F20" points="374.489,100.249 375.338,99.321 374.049,98.123 373.2,99.051 287.583,192.594 286.055,194.264 
				287.344,195.465 288.875,193.793 			"/>
		</g>
		<g>
			<path fill="#FFFFFF" d="M272.256,220.869c0.644,0.59,0.963,1.359,0.944,2.078l29.715-10.389l-25.551-23.889l-7.395,31.537
				C270.73,220.059,271.604,220.285,272.256,220.869z"/>
		</g>
		<g>
			<path fill="#231F20" d="M302.622,209.875l-1.287-1.203l-3.579-3.346l-1.285-1.203l-3.911-3.658l-1.287-1.201l-14.922-13.955
				l-0.318,1.355l-9.488,40.484l38.542-13.48l1.159-0.406L302.622,209.875z M269.74,225.654c-0.517,0-1.008-0.188-1.37-0.521
				c-0.388-0.35-0.616-0.854-0.646-1.416c-0.028-0.662,0.226-1.348,0.696-1.898c0.059-0.373,0.204-0.729,0.463-1.025
				c0.288-0.314,0.671-0.504,1.086-0.586l7.395-31.537l25.551,23.889L273.2,222.947c-0.013,0.477-0.167,0.93-0.487,1.295
				c-0.312,0.342-0.711,0.549-1.158,0.627C271.043,225.363,270.395,225.654,269.74,225.654z"/>
		</g>
		<g>
			<path fill="#231F20" d="M269.327,224.156c-0.72-0.65-1.03-1.541-0.906-2.338c-0.471,0.551-0.725,1.236-0.696,1.898
				c0.029,0.562,0.258,1.066,0.646,1.416c0.362,0.334,0.854,0.521,1.37,0.521c0.654,0,1.303-0.291,1.814-0.785
				c-0.125,0.02-0.252,0.035-0.384,0.035C270.523,224.904,269.854,224.633,269.327,224.156z"/>
		</g>
		<g>
			<path fill="#231F20" d="M271.411,223.059c0.107-0.121,0.045-0.535-0.321-0.873c-0.2-0.174-0.451-0.283-0.673-0.283
				c-0.06,0-0.171,0.006-0.229,0.072c-0.105,0.121-0.043,0.541,0.316,0.865C270.768,223.082,271.116,223.369,271.411,223.059z"/>
		</g>
		<g>
			<path fill="#231F20" d="M273.2,222.947c0.019-0.719-0.301-1.488-0.944-2.078c-0.651-0.584-1.525-0.811-2.286-0.662
				c-0.415,0.082-0.798,0.271-1.086,0.586c-0.259,0.297-0.404,0.652-0.463,1.025c-0.124,0.797,0.187,1.688,0.906,2.338
				c0.526,0.477,1.196,0.748,1.844,0.748c0.132,0,0.259-0.016,0.384-0.035c0.447-0.078,0.847-0.285,1.158-0.627
				C273.033,223.877,273.188,223.424,273.2,222.947z M270.504,222.84c-0.359-0.324-0.422-0.744-0.316-0.865
				c0.059-0.066,0.17-0.072,0.229-0.072c0.222,0,0.473,0.109,0.673,0.283c0.366,0.338,0.429,0.752,0.321,0.873
				C271.116,223.369,270.768,223.082,270.504,222.84z"/>
		</g>
	</g>
	<g>
		<g>
			<g>
				<path fill="#231F20" d="M81.177,164.659h-0.076c-0.171,0.131-0.378,0.314-0.62,0.527c-0.225,0.215-0.506,0.422-0.826,0.621
					c-0.305,0.193-0.627,0.359-0.986,0.504c-0.355,0.146-0.746,0.221-1.163,0.221c-1.121,0-2.005-0.406-2.643-1.221
					c-0.641-0.814-0.961-1.926-0.961-3.332c0-0.977,0.173-1.914,0.533-2.836c0.359-0.916,0.848-1.732,1.48-2.457
					c0.603-0.705,1.31-1.262,2.127-1.695c0.824-0.426,1.666-0.633,2.543-0.633c0.545,0,1.069,0.066,1.571,0.225
					c0.504,0.146,0.894,0.311,1.179,0.504l2.143-0.559l0.137,0.18l-1.777,7.572c-0.056,0.242-0.123,0.543-0.188,0.887
					c-0.065,0.35-0.098,0.611-0.098,0.77c0,0.449,0.089,0.75,0.278,0.904c0.184,0.156,0.5,0.238,0.94,0.238
					c0.147,0,0.36-0.023,0.634-0.072c0.268-0.047,0.478-0.096,0.625-0.15l-0.175,0.744c-0.692,0.283-1.22,0.49-1.562,0.619
					c-0.337,0.123-0.756,0.182-1.249,0.182c-0.556,0-1.003-0.166-1.329-0.49C81.391,165.581,81.212,165.159,81.177,164.659z
					 M82.863,157.235c0-0.264-0.027-0.512-0.085-0.746c-0.051-0.232-0.161-0.449-0.336-0.656c-0.161-0.199-0.375-0.352-0.641-0.469
					c-0.275-0.117-0.612-0.176-1.025-0.176c-0.567,0-1.121,0.186-1.651,0.568c-0.548,0.365-1.022,0.869-1.449,1.508
					c-0.408,0.605-0.735,1.316-0.983,2.164c-0.257,0.844-0.393,1.713-0.393,2.576c0,0.473,0.031,0.896,0.087,1.266
					c0.049,0.363,0.154,0.701,0.312,1.012c0.141,0.291,0.356,0.531,0.634,0.691c0.282,0.162,0.634,0.248,1.062,0.248
					c0.427,0,0.884-0.131,1.362-0.373c0.473-0.248,1.013-0.676,1.61-1.295L82.863,157.235z"/>
				<path fill="#231F20" d="M90.272,166.446c-0.738,0-1.277-0.148-1.623-0.445c-0.334-0.303-0.507-0.738-0.507-1.305
					c0-0.18,0.007-0.344,0.027-0.504c0.031-0.166,0.066-0.342,0.103-0.549l1.812-7.832h-2.082l0.243-1.068h2.121l0.817-3.436h2.088
					l-0.785,3.436h3.244l-0.246,1.068h-3.21l-1.502,6.463c-0.068,0.293-0.127,0.586-0.174,0.861
					c-0.049,0.277-0.071,0.516-0.071,0.709c0,0.432,0.109,0.748,0.323,0.936c0.21,0.207,0.594,0.311,1.159,0.311
					c0.198,0,0.477-0.027,0.848-0.08c0.362-0.051,0.646-0.107,0.853-0.197l-0.206,0.863c-0.538,0.207-1.053,0.391-1.536,0.543
					C91.487,166.374,90.922,166.446,90.272,166.446z"/>
				<path fill="#231F20" d="M114.52,150.222c0.428,0.234,0.764,0.545,1.002,0.924c0.236,0.387,0.362,0.842,0.362,1.354
					c0,0.715-0.141,1.342-0.422,1.877c-0.283,0.545-0.645,0.988-1.093,1.363c-0.462,0.377-0.979,0.68-1.551,0.922
					c-0.583,0.252-1.166,0.436-1.762,0.553v0.104c0.45,0.059,0.921,0.162,1.402,0.332c0.482,0.15,0.915,0.365,1.302,0.635
					c0.413,0.275,0.752,0.625,1.007,1.062c0.261,0.436,0.393,0.949,0.393,1.533c0,0.893-0.204,1.67-0.611,2.346
					c-0.407,0.684-0.925,1.227-1.542,1.65c-0.669,0.455-1.384,0.787-2.151,1.008c-0.768,0.215-1.554,0.311-2.358,0.311h-8.072
					l0.18-0.77c0.186-0.014,0.471-0.049,0.844-0.1c0.371-0.049,0.639-0.104,0.804-0.176c0.271-0.107,0.476-0.266,0.622-0.453
					c0.145-0.193,0.242-0.42,0.302-0.697l2.775-12.08c0.014-0.076,0.028-0.158,0.043-0.23c0.009-0.08,0.014-0.148,0.014-0.229
					c0-0.162-0.037-0.307-0.098-0.424c-0.069-0.117-0.185-0.229-0.343-0.314c-0.228-0.121-0.469-0.219-0.715-0.277
					c-0.251-0.061-0.488-0.092-0.705-0.109l0.189-0.777h7.285c0.553,0,1.063,0.049,1.543,0.145
					C113.638,149.806,114.096,149.972,114.52,150.222z M111.294,163.661c0.333-0.455,0.591-0.967,0.759-1.512
					c0.174-0.545,0.252-1.084,0.252-1.615c0-0.842-0.277-1.498-0.843-1.975c-0.552-0.477-1.346-0.721-2.349-0.721
					c-0.491,0-0.91,0.004-1.266,0.02c-0.351,0.012-0.606,0.025-0.792,0.025l-1.317,5.742c-0.025,0.115-0.041,0.219-0.052,0.311
					c-0.012,0.09-0.022,0.188-0.022,0.27c0,0.408,0.212,0.705,0.625,0.885c0.413,0.18,0.934,0.266,1.568,0.266
					c0.792,0,1.477-0.162,2.054-0.486C110.493,164.544,110.954,164.144,111.294,163.661z M112.048,155.626
					c0.373-0.428,0.63-0.891,0.784-1.371c0.165-0.473,0.247-1.023,0.247-1.631c0-0.418-0.078-0.773-0.227-1.057
					c-0.147-0.293-0.347-0.525-0.605-0.691c-0.261-0.166-0.542-0.283-0.852-0.352c-0.309-0.062-0.632-0.096-0.981-0.096
					c-0.254,0-0.546,0-0.859,0.016c-0.312,0.012-0.581,0.018-0.799,0.031l-1.47,6.473h1.452c0.761,0,1.421-0.121,1.979-0.363
					C111.274,156.341,111.716,156.019,112.048,155.626z"/>
				<path fill="#231F20" d="M128.382,158.968c0,0.924-0.154,1.85-0.464,2.771c-0.306,0.928-0.763,1.736-1.351,2.434
					c-0.598,0.717-1.316,1.297-2.157,1.732c-0.844,0.428-1.821,0.652-2.933,0.652c-1.284,0-2.329-0.426-3.135-1.254
					c-0.804-0.848-1.203-1.975-1.203-3.389c0-1.039,0.172-2.01,0.511-2.914c0.34-0.893,0.797-1.688,1.373-2.375
					c0.583-0.676,1.306-1.221,2.163-1.643c0.856-0.428,1.785-0.625,2.789-0.625c1.375,0,2.458,0.422,3.239,1.275
					C127.998,156.476,128.382,157.597,128.382,158.968z M126.008,158.528c0-1.117-0.192-1.943-0.586-2.51
					c-0.394-0.545-0.96-0.83-1.69-0.83c-0.652,0-1.257,0.203-1.826,0.596c-0.574,0.4-1.062,1.057-1.476,1.955
					c-0.312,0.68-0.545,1.441-0.692,2.27c-0.153,0.828-0.229,1.596-0.229,2.307c0,1.117,0.202,1.967,0.581,2.547
					c0.387,0.572,0.968,0.859,1.744,0.859c0.685,0,1.305-0.217,1.839-0.658c0.534-0.436,0.968-0.992,1.299-1.668
					c0.335-0.652,0.589-1.412,0.773-2.254C125.917,160.29,126.008,159.415,126.008,158.528z"/>
				<path fill="#231F20" d="M148.037,156.522c0,1.244-0.176,2.451-0.524,3.66c-0.358,1.203-0.829,2.264-1.432,3.176
					c-0.68,1.021-1.44,1.809-2.294,2.363c-0.86,0.553-1.785,0.836-2.785,0.836c-0.73,0-1.401-0.211-2.018-0.611
					c-0.62-0.408-1.036-0.973-1.24-1.678c-0.278,0.27-0.54,0.521-0.774,0.764c-0.237,0.23-0.547,0.473-0.927,0.729
					c-0.379,0.248-0.727,0.434-1.042,0.564c-0.315,0.139-0.715,0.207-1.206,0.207c-0.589,0-1.076-0.09-1.462-0.275
					c-0.379-0.184-0.69-0.424-0.924-0.725c-0.213-0.291-0.367-0.602-0.461-0.959c-0.094-0.346-0.147-0.729-0.147-1.125
					c0-0.139,0.021-0.328,0.06-0.557c0.033-0.225,0.069-0.428,0.112-0.586l0.986-3.711c0.092-0.359,0.161-0.674,0.203-0.959
					c0.045-0.297,0.067-0.539,0.067-0.723c0-0.438-0.077-0.734-0.219-0.873c-0.146-0.141-0.438-0.221-0.88-0.221
					c-0.168,0-0.391,0.035-0.649,0.104c-0.268,0.059-0.464,0.117-0.619,0.162l0.177-0.76c0.603-0.275,1.134-0.486,1.592-0.625
					c0.466-0.145,0.83-0.213,1.106-0.213c0.625,0,1.078,0.148,1.369,0.441c0.29,0.289,0.437,0.705,0.437,1.25
					c0,0.137-0.014,0.338-0.045,0.572c-0.035,0.248-0.08,0.49-0.139,0.729l-1.084,4.332c-0.063,0.289-0.12,0.586-0.167,0.895
					c-0.049,0.299-0.074,0.537-0.074,0.68c0,0.586,0.121,1.027,0.35,1.338c0.241,0.297,0.627,0.445,1.175,0.445
					c0.488,0,1.006-0.137,1.54-0.402c0.54-0.27,1.026-0.666,1.471-1.182l2.059-8.912l2.03-0.145l0.136,0.18l-1.641,7.158
					c-0.051,0.232-0.109,0.518-0.166,0.855c-0.067,0.34-0.089,0.561-0.089,0.637c0,0.434,0.058,0.771,0.204,1.027
					c0.134,0.248,0.305,0.428,0.514,0.545c0.205,0.125,0.411,0.193,0.634,0.229c0.214,0.027,0.424,0.035,0.63,0.035
					c0.524,0,1.071-0.17,1.621-0.498c0.552-0.344,1.035-0.779,1.451-1.322c0.456-0.6,0.821-1.273,1.081-2.004
					c0.264-0.725,0.396-1.52,0.396-2.369c0-0.461-0.065-0.828-0.197-1.08c-0.128-0.258-0.269-0.473-0.422-0.658
					c-0.154-0.201-0.294-0.412-0.426-0.629c-0.128-0.203-0.188-0.514-0.188-0.896c0-0.457,0.149-0.795,0.444-1.029
					c0.289-0.23,0.599-0.35,0.927-0.35c0.458,0,0.812,0.188,1.081,0.553C147.907,155.28,148.037,155.819,148.037,156.522z"/>
				<path fill="#231F20" d="M155.764,148.226l-3.255,14.117c-0.068,0.293-0.131,0.594-0.198,0.9
					c-0.06,0.287-0.094,0.535-0.094,0.719c0,0.445,0.103,0.748,0.297,0.914c0.194,0.17,0.525,0.248,0.962,0.248
					c0.152,0,0.385-0.027,0.692-0.061c0.303-0.039,0.534-0.09,0.692-0.139l-0.18,0.752c-0.701,0.277-1.235,0.484-1.605,0.598
					c-0.387,0.113-0.807,0.172-1.283,0.172c-0.617,0-1.089-0.162-1.41-0.486c-0.327-0.318-0.481-0.725-0.481-1.201
					c0-0.176,0.01-0.373,0.05-0.566c0.034-0.193,0.089-0.441,0.143-0.738l2.842-12.357c0.046-0.24,0.085-0.41,0.106-0.504
					c0.022-0.09,0.032-0.209,0.032-0.352c0-0.283-0.05-0.504-0.139-0.658c-0.099-0.148-0.228-0.266-0.402-0.34
					c-0.157-0.072-0.367-0.123-0.616-0.141c-0.257-0.027-0.503-0.055-0.764-0.09l0.163-0.707l4.33-0.26L155.764,148.226z"/>
				<path fill="#231F20" d="M161.982,164.925l-0.179,0.752c-0.709,0.291-1.277,0.484-1.71,0.598
					c-0.424,0.113-0.788,0.172-1.096,0.172c-0.616,0-1.082-0.162-1.391-0.486c-0.311-0.318-0.471-0.725-0.471-1.201
					c0-0.176,0.015-0.373,0.047-0.566c0.033-0.193,0.084-0.441,0.152-0.744l1.229-4.984c0.069-0.277,0.125-0.566,0.181-0.877
					c0.06-0.318,0.086-0.58,0.086-0.809c0-0.428-0.069-0.725-0.216-0.869c-0.141-0.145-0.434-0.215-0.875-0.215
					c-0.167,0-0.396,0.025-0.679,0.084c-0.282,0.051-0.5,0.1-0.648,0.137l0.176-0.752c0.603-0.27,1.15-0.469,1.628-0.607
					c0.483-0.139,0.86-0.197,1.145-0.197c0.634,0,1.101,0.156,1.384,0.459c0.284,0.305,0.429,0.713,0.429,1.223
					c0,0.145-0.015,0.338-0.044,0.58c-0.032,0.248-0.081,0.49-0.141,0.732l-1.238,4.99c-0.076,0.297-0.143,0.602-0.208,0.9
					c-0.056,0.287-0.083,0.535-0.083,0.719c0,0.445,0.1,0.748,0.293,0.914c0.196,0.17,0.52,0.248,0.961,0.248
					c0.144,0,0.356-0.027,0.633-0.061C161.627,165.024,161.834,164.974,161.982,164.925z M162.803,149.921
					c0,0.451-0.143,0.832-0.426,1.17c-0.288,0.332-0.647,0.49-1.071,0.49c-0.393,0-0.737-0.152-1.025-0.471
					c-0.288-0.312-0.43-0.682-0.43-1.082c0-0.43,0.143-0.801,0.43-1.133c0.288-0.314,0.632-0.477,1.025-0.477
					c0.441,0,0.803,0.156,1.083,0.449C162.667,149.179,162.803,149.53,162.803,149.921z"/>
				<path fill="#231F20" d="M176.038,164.841l-0.177,0.746c-0.706,0.291-1.249,0.49-1.641,0.619
					c-0.39,0.127-0.788,0.195-1.179,0.195c-0.627,0-1.095-0.162-1.401-0.49c-0.308-0.324-0.471-0.717-0.471-1.201
					c0-0.172,0.021-0.357,0.045-0.572c0.035-0.201,0.084-0.449,0.161-0.732l1.147-4.373c0.084-0.342,0.154-0.641,0.205-0.922
					c0.043-0.271,0.072-0.49,0.072-0.652c0-0.527-0.122-0.941-0.362-1.252c-0.248-0.305-0.622-0.449-1.098-0.449
					c-0.478,0-0.999,0.152-1.588,0.467c-0.584,0.316-1.131,0.762-1.652,1.363l-1.984,8.607h-2.181l1.75-7.6
					c0.042-0.184,0.094-0.463,0.166-0.822c0.074-0.352,0.114-0.641,0.114-0.859c0-0.438-0.072-0.734-0.223-0.879
					c-0.146-0.146-0.445-0.223-0.889-0.223c-0.166,0-0.395,0.031-0.651,0.088c-0.269,0.051-0.476,0.105-0.621,0.141l0.172-0.748
					c0.607-0.273,1.143-0.471,1.618-0.605c0.469-0.131,0.867-0.199,1.206-0.199c0.615,0,1.057,0.172,1.32,0.504
					c0.268,0.334,0.409,0.801,0.418,1.395h0.077c0.844-0.684,1.583-1.197,2.206-1.525c0.61-0.34,1.314-0.502,2.104-0.502
					c0.742,0,1.323,0.207,1.739,0.656c0.419,0.426,0.626,0.998,0.626,1.701c0,0.143-0.017,0.395-0.063,0.754
					c-0.048,0.357-0.11,0.715-0.2,1.07l-0.98,3.766c-0.076,0.252-0.143,0.541-0.206,0.861c-0.065,0.322-0.101,0.576-0.101,0.76
					c0,0.445,0.101,0.75,0.292,0.908c0.193,0.162,0.51,0.244,0.958,0.244c0.142,0,0.358-0.023,0.633-0.074
					C175.669,164.952,175.883,164.903,176.038,164.841z"/>
				<path fill="#231F20" d="M184.97,164.62l-0.081-0.027c-0.155,0.131-0.37,0.305-0.653,0.531c-0.289,0.229-0.583,0.426-0.892,0.598
					c-0.355,0.211-0.718,0.381-1.087,0.514c-0.359,0.133-0.767,0.201-1.207,0.201c-1.129,0-1.999-0.4-2.602-1.201
					c-0.612-0.809-0.913-1.908-0.913-3.32c0-0.963,0.169-1.916,0.527-2.83c0.348-0.912,0.841-1.727,1.447-2.434
					c0.589-0.701,1.304-1.246,2.118-1.668c0.826-0.428,1.69-0.625,2.584-0.625c0.559,0,1.093,0.066,1.588,0.207
					c0.494,0.148,0.894,0.314,1.201,0.521l2.125-0.559l0.141,0.18l-1.955,9.246c-0.296,1.402-0.67,2.586-1.134,3.559
					c-0.462,0.961-0.994,1.727-1.602,2.285c-0.623,0.58-1.302,1.002-2.06,1.25c-0.747,0.234-1.595,0.365-2.541,0.365
					c-0.641,0-1.166-0.055-1.57-0.158c-0.417-0.1-0.738-0.234-0.971-0.4c-0.229-0.158-0.384-0.342-0.471-0.559
					c-0.072-0.201-0.115-0.395-0.115-0.58c0-0.355,0.109-0.648,0.319-0.891c0.204-0.242,0.496-0.363,0.853-0.363
					c0.288,0,0.533,0.094,0.741,0.256c0.192,0.172,0.355,0.35,0.485,0.549c0.129,0.203,0.259,0.449,0.382,0.725
					c0.126,0.283,0.218,0.498,0.276,0.635h0.35c0.43,0,0.887-0.104,1.374-0.297c0.487-0.195,0.939-0.506,1.34-0.945
					c0.417-0.449,0.795-1.066,1.156-1.818C184.483,166.792,184.766,165.815,184.97,164.62z M186.52,157.116
					c0-0.221-0.031-0.455-0.094-0.682c-0.067-0.229-0.189-0.443-0.371-0.637c-0.169-0.182-0.388-0.338-0.649-0.447
					c-0.262-0.111-0.604-0.162-1.01-0.162c-0.598,0-1.156,0.176-1.692,0.549c-0.531,0.352-1.01,0.861-1.44,1.498
					c-0.392,0.592-0.71,1.305-0.959,2.16c-0.249,0.85-0.374,1.691-0.374,2.547c0,0.455,0.035,0.883,0.094,1.27
					c0.069,0.387,0.182,0.725,0.352,1.021c0.161,0.283,0.37,0.512,0.643,0.678c0.265,0.152,0.613,0.238,1.039,0.238
					c0.544,0,1.083-0.162,1.621-0.473c0.533-0.324,1.044-0.729,1.527-1.223L186.52,157.116z"/>
				<path fill="#231F20" d="M203.888,166.603c-0.933,0-1.793-0.145-2.594-0.441c-0.799-0.309-1.494-0.74-2.101-1.32
					c-0.591-0.578-1.062-1.287-1.396-2.119c-0.339-0.82-0.512-1.779-0.512-2.85c0-1.512,0.266-2.914,0.794-4.211
					c0.522-1.299,1.235-2.43,2.146-3.4c0.886-0.963,1.944-1.723,3.163-2.271c1.218-0.555,2.499-0.832,3.853-0.832
					c1.072,0,1.991,0.131,2.757,0.377c0.761,0.252,1.364,0.531,1.803,0.824l0.644-0.801h0.932l-1.219,5.816h-0.96
					c-0.009-0.645-0.067-1.283-0.157-1.916c-0.1-0.621-0.289-1.188-0.583-1.691c-0.301-0.504-0.719-0.91-1.246-1.205
					c-0.524-0.299-1.268-0.447-2.214-0.447c-0.952,0-1.854,0.244-2.699,0.742c-0.853,0.5-1.603,1.193-2.249,2.094
					c-0.623,0.871-1.116,1.916-1.489,3.135c-0.356,1.225-0.539,2.523-0.539,3.914c0,1.746,0.417,3.109,1.233,4.117
					c0.802,1.002,1.933,1.506,3.369,1.506c0.681,0,1.27-0.113,1.777-0.311c0.501-0.197,0.903-0.428,1.198-0.684
					c0.111-0.314,0.213-0.656,0.307-1.012c0.103-0.359,0.201-0.793,0.325-1.301l0.219-1.018c0.014-0.088,0.027-0.191,0.051-0.301
					c0.021-0.121,0.031-0.229,0.031-0.328c0-0.197-0.031-0.359-0.076-0.48c-0.054-0.123-0.174-0.234-0.37-0.32
					c-0.225-0.113-0.545-0.203-0.979-0.262c-0.433-0.066-0.761-0.102-0.995-0.115l0.18-0.801h7.249l-0.179,0.801
					c-0.199,0.025-0.465,0.062-0.78,0.115c-0.326,0.051-0.598,0.119-0.809,0.209c-0.281,0.133-0.494,0.297-0.624,0.518
					c-0.144,0.209-0.238,0.457-0.309,0.746l-0.309,1.35c-0.174,0.746-0.3,1.301-0.37,1.668c-0.067,0.373-0.129,0.717-0.184,1.053
					c-0.514,0.207-0.97,0.389-1.37,0.549c-0.398,0.152-0.892,0.311-1.495,0.463c-0.546,0.137-1.064,0.24-1.564,0.324
					C205.045,166.563,204.496,166.603,203.888,166.603z"/>
				<path fill="#231F20" d="M224.517,156.269c0,0.221-0.027,0.455-0.097,0.717c-0.054,0.264-0.144,0.484-0.264,0.664
					c-0.14,0.199-0.29,0.365-0.458,0.475c-0.162,0.111-0.404,0.174-0.72,0.174c-0.422,0-0.737-0.104-0.942-0.322
					c-0.205-0.207-0.309-0.438-0.309-0.699c0-0.238,0.062-0.518,0.176-0.812c0.109-0.303,0.229-0.604,0.363-0.9
					c-0.1,0-0.254,0.027-0.465,0.076c-0.218,0.049-0.474,0.152-0.772,0.297c-0.303,0.152-0.65,0.377-1.027,0.676
					c-0.384,0.291-0.795,0.691-1.227,1.182l-1.877,8.4h-2.169l1.692-7.6c0.037-0.184,0.093-0.471,0.17-0.85
					c0.072-0.379,0.115-0.648,0.115-0.832c0-0.438-0.076-0.734-0.227-0.879c-0.145-0.146-0.438-0.223-0.885-0.223
					c-0.165,0-0.384,0.031-0.644,0.088c-0.268,0.051-0.473,0.105-0.616,0.141l0.171-0.748c0.606-0.273,1.138-0.471,1.61-0.605
					c0.465-0.131,0.855-0.199,1.192-0.199c0.62,0,1.067,0.172,1.325,0.504c0.271,0.346,0.4,0.859,0.4,1.531h0.075
					c0.915-0.803,1.616-1.363,2.09-1.684c0.486-0.324,0.977-0.48,1.505-0.48c0.246,0,0.486,0.025,0.719,0.094
					c0.232,0.062,0.429,0.166,0.593,0.311c0.17,0.166,0.295,0.359,0.384,0.574C224.477,155.554,224.517,155.86,224.517,156.269z"/>
				<path fill="#231F20" d="M235.194,156.806c0,0.83-0.264,1.541-0.773,2.135c-0.519,0.596-1.271,1.068-2.255,1.422
					c-0.719,0.262-1.448,0.475-2.188,0.641c-0.737,0.174-1.555,0.305-2.446,0.414c0,1.236,0.227,2.176,0.687,2.832
					c0.451,0.662,1.116,0.979,1.992,0.979c0.777,0,1.46-0.195,2.055-0.586c0.594-0.393,1.179-0.971,1.749-1.746l0.667,0.49
					c-0.622,0.955-1.395,1.711-2.326,2.291c-0.931,0.562-1.898,0.855-2.903,0.855c-1.372,0-2.416-0.387-3.147-1.166
					c-0.732-0.773-1.089-1.877-1.089-3.293c0-0.986,0.158-1.932,0.459-2.83c0.307-0.891,0.755-1.711,1.352-2.465
					c0.568-0.725,1.273-1.305,2.105-1.756c0.839-0.439,1.754-0.664,2.766-0.664c1.122,0,1.953,0.232,2.487,0.691
					C234.925,155.505,235.194,156.089,235.194,156.806z M233.054,156.517c0-0.311-0.045-0.545-0.129-0.725
					c-0.09-0.166-0.201-0.311-0.33-0.395c-0.138-0.09-0.285-0.15-0.438-0.172c-0.156-0.027-0.32-0.037-0.482-0.037
					c-0.929,0-1.789,0.514-2.574,1.543c-0.784,1.037-1.287,2.318-1.492,3.852c0.54-0.076,1.155-0.188,1.836-0.332
					c0.678-0.145,1.245-0.334,1.699-0.572c0.647-0.332,1.122-0.76,1.438-1.287C232.897,157.87,233.054,157.241,233.054,156.517z"/>
				<path fill="#231F20" d="M246.441,156.806c0,0.83-0.265,1.541-0.782,2.135c-0.509,0.596-1.267,1.068-2.246,1.422
					c-0.724,0.262-1.456,0.475-2.187,0.641c-0.742,0.174-1.555,0.305-2.444,0.414c0,1.236,0.225,2.176,0.68,2.832
					c0.45,0.662,1.115,0.979,1.996,0.979c0.772,0,1.459-0.195,2.051-0.586c0.596-0.393,1.178-0.971,1.75-1.746l0.668,0.49
					c-0.624,0.955-1.394,1.711-2.326,2.291c-0.933,0.562-1.9,0.855-2.894,0.855c-1.378,0-2.434-0.387-3.155-1.166
					c-0.729-0.773-1.086-1.877-1.086-3.293c0-0.986,0.151-1.932,0.451-2.83c0.309-0.891,0.762-1.711,1.351-2.465
					c0.574-0.725,1.278-1.305,2.117-1.756c0.828-0.439,1.755-0.664,2.761-0.664c1.117,0,1.942,0.232,2.481,0.691
					C246.173,155.505,246.441,156.089,246.441,156.806z M244.289,156.517c0-0.311-0.04-0.545-0.122-0.725
					c-0.085-0.166-0.191-0.311-0.326-0.395c-0.141-0.09-0.284-0.15-0.445-0.172c-0.147-0.027-0.312-0.037-0.47-0.037
					c-0.934,0-1.794,0.514-2.58,1.543c-0.794,1.037-1.286,2.318-1.496,3.852c0.546-0.076,1.157-0.188,1.832-0.332
					c0.69-0.145,1.259-0.334,1.704-0.572c0.644-0.332,1.123-0.76,1.441-1.287C244.14,157.87,244.289,157.241,244.289,156.517z"/>
				<path fill="#231F20" d="M260.273,164.841l-0.164,0.746c-0.706,0.291-1.253,0.49-1.637,0.619
					c-0.395,0.127-0.793,0.195-1.19,0.195c-0.617,0-1.077-0.162-1.397-0.49c-0.31-0.324-0.469-0.717-0.469-1.201
					c0-0.172,0.021-0.357,0.049-0.572c0.035-0.201,0.081-0.449,0.154-0.732l1.14-4.373c0.096-0.342,0.166-0.641,0.215-0.922
					c0.045-0.271,0.08-0.49,0.08-0.652c0-0.527-0.129-0.941-0.373-1.252c-0.247-0.305-0.616-0.449-1.1-0.449
					c-0.473,0-0.992,0.152-1.582,0.467c-0.587,0.316-1.132,0.762-1.651,1.363l-1.983,8.607h-2.176l1.74-7.6
					c0.04-0.184,0.099-0.463,0.172-0.822c0.074-0.352,0.109-0.641,0.109-0.859c0-0.438-0.072-0.734-0.22-0.879
					c-0.151-0.146-0.451-0.223-0.884-0.223c-0.179,0-0.397,0.031-0.665,0.088c-0.259,0.051-0.474,0.105-0.622,0.141l0.176-0.748
					c0.611-0.273,1.151-0.471,1.619-0.605c0.465-0.131,0.869-0.199,1.206-0.199c0.619,0,1.055,0.172,1.327,0.504
					c0.262,0.334,0.398,0.801,0.412,1.395h0.074c0.852-0.684,1.584-1.197,2.207-1.525c0.61-0.34,1.315-0.502,2.107-0.502
					c0.743,0,1.319,0.207,1.744,0.656c0.41,0.426,0.622,0.998,0.622,1.701c0,0.143-0.019,0.395-0.063,0.754
					c-0.045,0.357-0.111,0.715-0.202,1.07l-0.984,3.766c-0.072,0.252-0.137,0.541-0.194,0.861c-0.075,0.322-0.103,0.576-0.103,0.76
					c0,0.445,0.092,0.75,0.279,0.908c0.199,0.162,0.521,0.244,0.964,0.244c0.146,0,0.359-0.023,0.633-0.074
					C259.921,164.952,260.131,164.903,260.273,164.841z"/>
			</g>
			<g>
				<path fill="#231F20" d="M86.242,193.422c-0.954,0-1.79-0.109-2.511-0.348c-0.714-0.238-1.297-0.516-1.737-0.832l-0.666,0.855
					h-0.933l1.14-5.695h0.95c0.028,0.68,0.131,1.318,0.272,1.912c0.14,0.588,0.37,1.125,0.702,1.609
					c0.324,0.496,0.744,0.869,1.259,1.143c0.524,0.271,1.163,0.396,1.936,0.396c1.152,0,2.074-0.318,2.78-0.961
					c0.692-0.648,1.041-1.525,1.041-2.643c0-0.607-0.147-1.146-0.443-1.609c-0.292-0.469-0.736-0.838-1.326-1.098
					c-0.555-0.238-1.104-0.463-1.658-0.641c-0.539-0.193-1.079-0.422-1.602-0.678c-0.697-0.338-1.259-0.82-1.69-1.449
					c-0.421-0.635-0.64-1.342-0.64-2.137c0-0.748,0.17-1.439,0.498-2.066c0.326-0.633,0.762-1.182,1.309-1.645
					c0.529-0.447,1.17-0.807,1.917-1.072c0.747-0.264,1.495-0.398,2.227-0.398c0.694,0,1.342,0.084,1.964,0.242
					c0.615,0.174,1.235,0.49,1.857,0.932l0.636-0.797h0.932l-1.17,5.525H92.34c-0.031-0.604-0.084-1.221-0.178-1.867
					c-0.099-0.639-0.266-1.17-0.494-1.59c-0.259-0.463-0.616-0.828-1.069-1.084c-0.458-0.264-1.069-0.396-1.826-0.396
					c-0.916,0-1.684,0.312-2.307,0.955c-0.619,0.643-0.929,1.402-0.929,2.271c0,0.58,0.121,1.07,0.346,1.473
					c0.231,0.404,0.583,0.732,1.063,0.979c0.511,0.268,1.049,0.496,1.609,0.689c0.57,0.186,1.063,0.395,1.508,0.602
					c0.895,0.42,1.594,0.932,2.089,1.525c0.496,0.594,0.749,1.318,0.749,2.182c0,0.834-0.177,1.607-0.535,2.326
					c-0.356,0.721-0.836,1.318-1.435,1.801c-0.632,0.512-1.335,0.912-2.112,1.184C88.04,193.291,87.179,193.422,86.242,193.422z"/>
				<path fill="#231F20" d="M97.405,193.34c-0.742,0-1.279-0.152-1.618-0.457c-0.34-0.297-0.514-0.738-0.514-1.291
					c0-0.178,0.009-0.355,0.037-0.518c0.021-0.15,0.051-0.338,0.092-0.541l1.811-7.838h-2.08l0.243-1.064h2.125l0.815-3.441h2.096
					l-0.79,3.441h3.236l-0.241,1.064h-3.21l-1.499,6.467c-0.081,0.301-0.134,0.58-0.185,0.863c-0.043,0.27-0.063,0.514-0.063,0.705
					c0,0.434,0.104,0.748,0.32,0.945c0.214,0.203,0.596,0.297,1.156,0.297c0.203,0,0.487-0.018,0.853-0.076
					c0.361-0.049,0.647-0.111,0.846-0.189l-0.198,0.859c-0.543,0.211-1.052,0.387-1.532,0.535
					C98.621,193.264,98.052,193.34,97.405,193.34z"/>
				<path fill="#231F20" d="M110.248,191.545h-0.083c-0.174,0.141-0.375,0.316-0.61,0.523c-0.239,0.215-0.518,0.428-0.83,0.619
					c-0.304,0.195-0.634,0.365-0.989,0.514c-0.354,0.139-0.748,0.221-1.161,0.221c-1.125,0-2.004-0.414-2.647-1.229
					c-0.641-0.814-0.958-1.926-0.958-3.334c0-0.967,0.179-1.912,0.534-2.828c0.357-0.92,0.851-1.732,1.476-2.461
					c0.596-0.697,1.31-1.256,2.132-1.684c0.82-0.424,1.666-0.643,2.538-0.643c0.547,0,1.072,0.072,1.574,0.229
					c0.499,0.145,0.894,0.311,1.182,0.496l2.139-0.545l0.139,0.17l-1.773,7.568c-0.059,0.25-0.127,0.543-0.192,0.891
					c-0.069,0.346-0.105,0.607-0.105,0.768c0,0.447,0.094,0.756,0.285,0.91c0.183,0.152,0.497,0.232,0.947,0.232
					c0.146,0,0.354-0.031,0.625-0.074c0.271-0.041,0.48-0.096,0.625-0.148l-0.174,0.756c-0.699,0.281-1.214,0.477-1.563,0.602
					c-0.341,0.131-0.752,0.193-1.248,0.193c-0.561,0-0.997-0.166-1.331-0.49C110.457,192.463,110.279,192.041,110.248,191.545z
					 M111.921,184.117c0-0.26-0.025-0.504-0.081-0.732c-0.051-0.238-0.167-0.463-0.335-0.662c-0.158-0.201-0.374-0.354-0.647-0.477
					c-0.265-0.111-0.611-0.174-1.02-0.174c-0.567,0-1.118,0.193-1.652,0.566c-0.531,0.377-1.018,0.885-1.449,1.516
					c-0.399,0.598-0.731,1.314-0.988,2.164c-0.257,0.842-0.379,1.705-0.379,2.574c0,0.467,0.021,0.891,0.081,1.262
					c0.059,0.369,0.162,0.703,0.314,1.01c0.145,0.297,0.354,0.531,0.638,0.697c0.277,0.166,0.625,0.25,1.057,0.25
					c0.43,0,0.89-0.129,1.368-0.373c0.474-0.25,1.012-0.684,1.601-1.299L111.921,184.117z"/>
				<path fill="#231F20" d="M119.338,193.34c-0.743,0-1.279-0.152-1.617-0.457c-0.35-0.297-0.515-0.738-0.515-1.291
					c0-0.178,0.015-0.355,0.035-0.518c0.026-0.15,0.054-0.338,0.092-0.541l1.815-7.838h-2.086l0.249-1.064h2.128l0.811-3.441h2.09
					l-0.789,3.441h3.247l-0.249,1.064h-3.212l-1.5,6.467c-0.07,0.301-0.126,0.58-0.173,0.863c-0.049,0.27-0.072,0.514-0.072,0.705
					c0,0.434,0.104,0.748,0.32,0.945c0.212,0.203,0.605,0.297,1.163,0.297c0.199,0,0.475-0.018,0.848-0.076
					c0.358-0.049,0.646-0.111,0.852-0.189l-0.202,0.859c-0.54,0.211-1.061,0.387-1.533,0.535
					C120.558,193.264,119.99,193.34,119.338,193.34z"/>
				<path fill="#231F20" d="M134.865,183.686c0,0.832-0.257,1.543-0.774,2.139c-0.516,0.594-1.268,1.07-2.255,1.426
					c-0.716,0.264-1.453,0.473-2.183,0.643c-0.742,0.166-1.552,0.303-2.446,0.408c0,1.242,0.226,2.18,0.675,2.832
					c0.459,0.66,1.122,0.979,2.002,0.979c0.774,0,1.456-0.188,2.054-0.58c0.594-0.387,1.182-0.971,1.753-1.748l0.662,0.484
					c-0.618,0.967-1.396,1.725-2.328,2.299c-0.932,0.568-1.898,0.855-2.898,0.855c-1.375,0-2.424-0.393-3.152-1.166
					c-0.725-0.777-1.085-1.871-1.085-3.301c0-0.98,0.147-1.918,0.459-2.822c0.307-0.895,0.752-1.713,1.347-2.465
					c0.572-0.719,1.272-1.312,2.109-1.754c0.833-0.441,1.754-0.67,2.766-0.67c1.114,0,1.943,0.229,2.482,0.688
					C134.593,182.391,134.865,182.977,134.865,183.686z M132.725,183.398c0-0.303-0.042-0.545-0.125-0.719
					c-0.093-0.182-0.197-0.303-0.328-0.4c-0.136-0.082-0.289-0.145-0.443-0.164c-0.16-0.027-0.314-0.043-0.478-0.043
					c-0.933,0-1.795,0.52-2.584,1.543c-0.786,1.037-1.284,2.324-1.487,3.855c0.538-0.076,1.156-0.182,1.834-0.338
					c0.682-0.145,1.251-0.33,1.697-0.559c0.649-0.338,1.127-0.773,1.438-1.299C132.563,184.752,132.725,184.123,132.725,183.398z"/>
				<path fill="#231F20" d="M148.751,193.49c-1.632,0-2.905-0.348-3.822-1.041c-0.924-0.697-1.38-1.629-1.38-2.783
					c0-0.168,0.01-0.316,0.029-0.469c0.017-0.141,0.047-0.305,0.092-0.494l2.27-9.895c0.009-0.062,0.022-0.133,0.031-0.207
					c0.01-0.07,0.015-0.133,0.015-0.193c0-0.16-0.037-0.305-0.109-0.436c-0.067-0.139-0.173-0.26-0.335-0.365
					c-0.17-0.111-0.4-0.201-0.688-0.264c-0.283-0.055-0.525-0.104-0.718-0.123l0.183-0.777h6.857l-0.186,0.777
					c-0.223,0.002-0.498,0.041-0.839,0.109c-0.343,0.057-0.598,0.115-0.764,0.17c-0.31,0.107-0.526,0.262-0.656,0.48
					c-0.13,0.213-0.229,0.459-0.292,0.703l-2.112,9.258c-0.052,0.199-0.094,0.428-0.123,0.676c-0.032,0.248-0.052,0.5-0.052,0.732
					c0,0.406,0.045,0.76,0.123,1.057c0.089,0.303,0.274,0.6,0.562,0.91c0.246,0.266,0.579,0.482,1.013,0.656
					c0.427,0.166,0.974,0.248,1.628,0.248c0.884,0,1.638-0.135,2.271-0.414c0.629-0.275,1.151-0.621,1.576-1.035
					c0.391-0.408,0.718-0.842,0.968-1.332c0.255-0.484,0.433-0.947,0.527-1.391c0.284-1.129,0.547-2.225,0.784-3.293
					c0.244-1.07,0.499-2.24,0.772-3.508c0.134-0.617,0.229-1.121,0.274-1.516c0.049-0.4,0.076-0.717,0.076-0.967
					c0-0.227-0.026-0.402-0.071-0.545c-0.043-0.135-0.132-0.248-0.242-0.352c-0.225-0.201-0.566-0.346-1.018-0.455
					c-0.442-0.111-0.788-0.174-1.022-0.193l0.188-0.777h6.745l-0.188,0.777c-0.212,0.002-0.54,0.062-0.992,0.145
					c-0.449,0.09-0.813,0.217-1.096,0.387c-0.315,0.184-0.6,0.59-0.843,1.236c-0.24,0.635-0.44,1.301-0.597,1.994
					c-0.245,1.121-0.492,2.25-0.743,3.389c-0.254,1.141-0.54,2.361-0.869,3.697c-0.269,1.084-0.677,1.984-1.227,2.695
					c-0.547,0.697-1.17,1.264-1.842,1.658c-0.663,0.387-1.343,0.654-2.051,0.816C150.151,193.408,149.453,193.49,148.751,193.49z"/>
				<path fill="#231F20" d="M172.488,191.73l-0.177,0.752c-0.706,0.283-1.245,0.477-1.632,0.615
					c-0.39,0.131-0.785,0.193-1.177,0.193c-0.625,0-1.093-0.166-1.404-0.49c-0.314-0.324-0.47-0.725-0.47-1.197
					c0-0.184,0.018-0.367,0.048-0.574c0.034-0.209,0.081-0.451,0.15-0.742l1.151-4.373c0.087-0.334,0.156-0.639,0.204-0.918
					c0.051-0.271,0.081-0.482,0.081-0.654c0-0.529-0.128-0.936-0.375-1.246c-0.25-0.312-0.617-0.457-1.095-0.457
					c-0.474,0-0.997,0.145-1.579,0.463c-0.591,0.32-1.141,0.773-1.656,1.373l-1.994,8.615h-2.17l1.746-7.609
					c0.038-0.184,0.098-0.457,0.172-0.818c0.071-0.355,0.107-0.643,0.107-0.859c0-0.441-0.072-0.729-0.219-0.881
					c-0.149-0.148-0.444-0.227-0.889-0.227c-0.171,0-0.392,0.033-0.66,0.086c-0.262,0.062-0.469,0.107-0.62,0.141l0.177-0.746
					c0.61-0.268,1.149-0.473,1.61-0.607c0.476-0.131,0.873-0.199,1.212-0.199c0.611,0,1.053,0.172,1.319,0.51
					c0.264,0.328,0.406,0.801,0.421,1.395h0.074c0.847-0.689,1.583-1.201,2.2-1.531c0.624-0.332,1.321-0.498,2.111-0.498
					c0.747,0,1.322,0.219,1.738,0.643c0.422,0.441,0.633,1.008,0.633,1.723c0,0.131-0.023,0.387-0.066,0.742
					c-0.045,0.355-0.109,0.715-0.213,1.07l-0.971,3.768c-0.069,0.25-0.144,0.547-0.208,0.863c-0.066,0.332-0.099,0.574-0.099,0.756
					c0,0.449,0.099,0.76,0.286,0.912c0.201,0.162,0.52,0.242,0.963,0.242c0.154,0,0.363-0.031,0.631-0.08
					C172.13,191.834,172.343,191.785,172.488,191.73z"/>
				<path fill="#231F20" d="M179.59,191.807l-0.167,0.76c-0.72,0.283-1.287,0.486-1.717,0.6c-0.429,0.111-0.793,0.174-1.091,0.174
					c-0.625,0-1.095-0.166-1.405-0.49c-0.306-0.324-0.457-0.725-0.457-1.201c0-0.188,0.012-0.377,0.046-0.574
					c0.024-0.186,0.084-0.432,0.143-0.738l1.236-4.984c0.062-0.275,0.123-0.572,0.179-0.877c0.051-0.312,0.084-0.586,0.084-0.807
					c0-0.436-0.071-0.725-0.214-0.869c-0.145-0.152-0.438-0.215-0.875-0.215c-0.171,0-0.399,0.021-0.682,0.08
					c-0.284,0.051-0.494,0.1-0.648,0.141l0.176-0.752c0.612-0.273,1.149-0.477,1.637-0.615c0.476-0.123,0.851-0.193,1.136-0.193
					c0.635,0,1.097,0.148,1.38,0.457c0.294,0.303,0.435,0.721,0.435,1.234c0,0.139-0.018,0.336-0.046,0.574
					c-0.024,0.248-0.081,0.486-0.144,0.725l-1.238,4.99c-0.07,0.311-0.141,0.607-0.199,0.9c-0.058,0.297-0.085,0.535-0.085,0.729
					c0,0.439,0.096,0.75,0.297,0.912c0.192,0.162,0.518,0.242,0.953,0.242c0.146,0,0.358-0.016,0.634-0.053
					C179.224,191.918,179.437,191.869,179.59,191.807z M180.417,176.807c0,0.447-0.142,0.834-0.433,1.174
					c-0.282,0.326-0.641,0.496-1.068,0.496c-0.397,0-0.737-0.158-1.026-0.477c-0.284-0.316-0.431-0.676-0.431-1.09
					c0-0.422,0.147-0.801,0.431-1.119c0.29-0.324,0.629-0.477,1.026-0.477c0.443,0,0.803,0.143,1.084,0.449
					C180.284,176.064,180.417,176.408,180.417,176.807z"/>
				<path fill="#231F20" d="M192.358,183.42c0,1.188-0.174,2.389-0.532,3.617c-0.354,1.221-0.843,2.291-1.469,3.209
					c-0.625,0.949-1.375,1.717-2.243,2.312c-0.874,0.588-1.826,0.887-2.867,0.887c-1.011,0-1.826-0.289-2.432-0.852
					c-0.604-0.566-0.91-1.336-0.91-2.285c0-0.184,0.021-0.387,0.065-0.611c0.042-0.23,0.072-0.379,0.089-0.459l1.011-3.758
					c0.079-0.309,0.147-0.605,0.205-0.902c0.059-0.285,0.088-0.549,0.088-0.766c0-0.436-0.077-0.734-0.228-0.891
					c-0.151-0.141-0.451-0.213-0.888-0.213c-0.167,0-0.384,0.027-0.666,0.104c-0.281,0.061-0.494,0.109-0.63,0.158l0.173-0.746
					c0.607-0.275,1.145-0.482,1.618-0.631c0.471-0.148,0.837-0.225,1.119-0.225c0.624,0,1.087,0.152,1.377,0.436
					c0.306,0.297,0.451,0.711,0.451,1.262c0,0.152-0.011,0.346-0.036,0.566c-0.029,0.219-0.08,0.471-0.149,0.738l-1.114,4.377
					c-0.083,0.297-0.14,0.58-0.177,0.854c-0.043,0.279-0.057,0.451-0.057,0.527c0,0.41,0.062,0.738,0.189,0.99
					c0.13,0.26,0.291,0.459,0.483,0.594c0.185,0.135,0.394,0.225,0.615,0.287c0.22,0.055,0.444,0.086,0.678,0.086
					c0.527,0,1.076-0.168,1.638-0.508c0.558-0.342,1.048-0.771,1.467-1.318c0.461-0.586,0.831-1.246,1.111-1.971
					c0.281-0.721,0.418-1.521,0.418-2.391c0-0.477-0.063-0.836-0.19-1.098c-0.128-0.242-0.269-0.463-0.429-0.656
					c-0.152-0.197-0.288-0.404-0.419-0.615c-0.133-0.213-0.195-0.523-0.195-0.91c0-0.449,0.147-0.795,0.44-1.025
					c0.29-0.234,0.604-0.35,0.932-0.35c0.462,0,0.816,0.184,1.077,0.553C192.227,182.17,192.358,182.709,192.358,183.42z"/>
				<path fill="#231F20" d="M203.874,183.686c0,0.832-0.254,1.543-0.776,2.139c-0.514,0.594-1.263,1.07-2.254,1.426
					c-0.721,0.264-1.454,0.473-2.183,0.643c-0.742,0.166-1.556,0.303-2.444,0.408c0,1.242,0.227,2.18,0.674,2.832
					c0.456,0.66,1.123,0.979,2.004,0.979c0.77,0,1.454-0.188,2.051-0.58c0.597-0.387,1.172-0.971,1.75-1.748l0.669,0.484
					c-0.625,0.967-1.402,1.725-2.333,2.299c-0.933,0.568-1.9,0.855-2.904,0.855c-1.369,0-2.421-0.393-3.145-1.166
					c-0.725-0.777-1.086-1.871-1.086-3.301c0-0.98,0.156-1.918,0.461-2.822c0.304-0.895,0.75-1.713,1.345-2.465
					c0.572-0.719,1.277-1.312,2.111-1.754c0.831-0.441,1.754-0.67,2.768-0.67c1.113,0,1.946,0.229,2.483,0.688
					C203.606,182.391,203.874,182.977,203.874,183.686z M201.735,183.398c0-0.303-0.044-0.545-0.13-0.719
					c-0.083-0.182-0.199-0.303-0.33-0.4c-0.14-0.082-0.287-0.145-0.438-0.164c-0.151-0.027-0.318-0.043-0.48-0.043
					c-0.933,0-1.782,0.52-2.573,1.543c-0.789,1.037-1.295,2.324-1.5,3.855c0.542-0.076,1.157-0.182,1.843-0.338
					c0.684-0.145,1.25-0.33,1.7-0.559c0.638-0.338,1.119-0.773,1.435-1.299C201.57,184.752,201.735,184.123,201.735,183.398z"/>
				<path fill="#231F20" d="M215.444,183.156c0,0.221-0.027,0.457-0.088,0.719s-0.154,0.477-0.273,0.648
					c-0.139,0.215-0.291,0.381-0.46,0.494c-0.157,0.113-0.403,0.168-0.715,0.168c-0.415,0-0.731-0.109-0.942-0.316
					c-0.206-0.217-0.309-0.449-0.309-0.707c0-0.242,0.055-0.512,0.166-0.812c0.121-0.303,0.236-0.607,0.367-0.9
					c-0.096,0-0.246,0.023-0.457,0.082c-0.214,0.045-0.474,0.148-0.776,0.295c-0.308,0.15-0.647,0.373-1.032,0.67
					c-0.379,0.303-0.79,0.697-1.222,1.186l-1.877,8.408h-2.171l1.698-7.609c0.041-0.184,0.098-0.473,0.164-0.854
					c0.076-0.365,0.111-0.645,0.111-0.824c0-0.441-0.076-0.729-0.217-0.881c-0.148-0.148-0.446-0.227-0.888-0.227
					c-0.164,0-0.383,0.033-0.648,0.086c-0.263,0.062-0.468,0.107-0.612,0.141l0.171-0.746c0.601-0.268,1.138-0.473,1.61-0.607
					c0.459-0.131,0.861-0.199,1.192-0.199c0.625,0,1.076,0.172,1.33,0.518c0.267,0.338,0.397,0.846,0.397,1.533h0.068
					c0.932-0.814,1.623-1.377,2.099-1.695c0.477-0.324,0.977-0.48,1.499-0.48c0.246,0,0.488,0.027,0.725,0.09
					c0.234,0.066,0.425,0.174,0.589,0.318c0.169,0.166,0.299,0.352,0.379,0.572C215.403,182.439,215.444,182.742,215.444,183.156z"
					/>
				<path fill="#231F20" d="M219.556,193.445c-1.155,0-2.106-0.217-2.874-0.617c-0.764-0.414-1.14-0.949-1.14-1.615
					c0-0.311,0.108-0.607,0.335-0.887c0.227-0.273,0.5-0.404,0.822-0.404c0.315,0,0.562,0.076,0.753,0.221
					c0.193,0.139,0.34,0.318,0.452,0.508c0.111,0.203,0.22,0.445,0.309,0.729c0.086,0.275,0.164,0.51,0.227,0.689
					c0.117,0.135,0.273,0.256,0.482,0.381c0.21,0.104,0.501,0.158,0.894,0.158c0.837,0,1.468-0.215,1.898-0.635
					c0.428-0.422,0.647-1.002,0.647-1.719c0-0.529-0.206-0.961-0.604-1.273c-0.409-0.318-1.001-0.611-1.803-0.873
					c-0.287-0.094-0.625-0.236-1.015-0.43c-0.393-0.193-0.699-0.393-0.932-0.621c-0.277-0.248-0.501-0.545-0.679-0.887
					c-0.167-0.346-0.252-0.752-0.252-1.225c0-1.008,0.439-1.871,1.331-2.604c0.888-0.73,1.983-1.098,3.278-1.098
					c0.303,0,0.63,0.012,0.981,0.043c0.348,0.033,0.725,0.123,1.149,0.262c0.364,0.117,0.678,0.303,0.927,0.555
					c0.26,0.25,0.389,0.566,0.389,0.957c0,0.324-0.102,0.607-0.321,0.877c-0.213,0.262-0.494,0.4-0.844,0.4
					c-0.281,0-0.519-0.07-0.711-0.201c-0.183-0.117-0.343-0.289-0.46-0.504c-0.123-0.211-0.23-0.438-0.306-0.676
					c-0.077-0.242-0.167-0.484-0.256-0.719c-0.151-0.062-0.281-0.104-0.397-0.123c-0.116-0.027-0.271-0.043-0.466-0.043
					c-0.757,0-1.329,0.207-1.727,0.623c-0.394,0.406-0.589,0.889-0.589,1.467c0,0.545,0.178,0.959,0.534,1.234
					c0.35,0.279,0.931,0.566,1.743,0.859c1.059,0.387,1.826,0.828,2.307,1.318c0.472,0.504,0.716,1.111,0.716,1.838
					c0,1.193-0.46,2.164-1.367,2.906C222.08,193.066,220.933,193.445,219.556,193.445z"/>
				<path fill="#231F20" d="M232.032,191.807l-0.171,0.76c-0.713,0.283-1.284,0.486-1.713,0.6c-0.429,0.111-0.795,0.174-1.096,0.174
					c-0.624,0-1.083-0.166-1.392-0.49c-0.313-0.324-0.474-0.725-0.474-1.201c0-0.188,0.027-0.377,0.049-0.574
					c0.035-0.186,0.084-0.432,0.155-0.738l1.229-4.984c0.055-0.275,0.125-0.572,0.185-0.877c0.053-0.312,0.075-0.586,0.075-0.807
					c0-0.436-0.06-0.725-0.205-0.869c-0.148-0.152-0.434-0.215-0.88-0.215c-0.171,0-0.401,0.021-0.679,0.08
					c-0.283,0.051-0.504,0.1-0.647,0.141l0.179-0.752c0.606-0.273,1.144-0.477,1.631-0.615c0.473-0.123,0.86-0.193,1.132-0.193
					c0.635,0,1.099,0.148,1.39,0.457c0.285,0.303,0.434,0.721,0.434,1.234c0,0.139-0.022,0.336-0.05,0.574
					c-0.035,0.248-0.08,0.486-0.138,0.725l-1.239,4.99c-0.079,0.311-0.145,0.607-0.207,0.9c-0.055,0.297-0.086,0.535-0.086,0.729
					c0,0.439,0.107,0.75,0.295,0.912c0.204,0.162,0.522,0.242,0.968,0.242c0.146,0,0.349-0.016,0.626-0.053
					C231.676,191.918,231.889,191.869,232.032,191.807z M232.862,176.807c0,0.447-0.139,0.834-0.425,1.174
					c-0.295,0.326-0.647,0.496-1.084,0.496c-0.386,0-0.729-0.158-1.014-0.477c-0.295-0.316-0.438-0.676-0.438-1.09
					c0-0.422,0.143-0.801,0.438-1.119c0.285-0.324,0.628-0.477,1.014-0.477c0.445,0,0.812,0.143,1.09,0.449
					C232.724,176.064,232.862,176.408,232.862,176.807z"/>
				<path fill="#231F20" d="M236.238,193.34c-0.738,0-1.28-0.152-1.616-0.457c-0.343-0.297-0.514-0.738-0.514-1.291
					c0-0.178,0.008-0.355,0.034-0.518c0.023-0.15,0.055-0.338,0.096-0.541l1.809-7.838h-2.082l0.246-1.064h2.125l0.813-3.441h2.09
					l-0.786,3.441h3.241l-0.24,1.064h-3.211l-1.496,6.467c-0.084,0.301-0.138,0.58-0.187,0.863c-0.047,0.27-0.064,0.514-0.064,0.705
					c0,0.434,0.104,0.748,0.318,0.945c0.214,0.203,0.601,0.297,1.151,0.297c0.21,0,0.495-0.018,0.854-0.076
					c0.373-0.049,0.646-0.111,0.853-0.189l-0.198,0.859c-0.542,0.211-1.052,0.387-1.534,0.535
					C237.458,193.264,236.89,193.34,236.238,193.34z"/>
				<path fill="#231F20" d="M249.34,191.385h-0.068c-0.714,0.607-1.397,1.078-2.041,1.424c-0.646,0.338-1.378,0.51-2.205,0.51
					c-0.742,0-1.335-0.217-1.77-0.645c-0.432-0.439-0.645-1.006-0.645-1.703c0-0.186,0.008-0.41,0.041-0.676
					c0.033-0.256,0.105-0.635,0.221-1.15l0.907-3.654c0.084-0.355,0.146-0.656,0.195-0.926c0.045-0.262,0.067-0.51,0.067-0.758
					c0-0.43-0.067-0.727-0.212-0.863c-0.141-0.16-0.439-0.221-0.878-0.221c-0.174,0-0.387,0.027-0.65,0.096
					c-0.26,0.062-0.47,0.125-0.616,0.158l0.178-0.752c0.599-0.275,1.138-0.49,1.598-0.625c0.457-0.137,0.827-0.209,1.112-0.209
					c0.62,0,1.085,0.137,1.376,0.414c0.299,0.283,0.454,0.703,0.454,1.27c0,0.139-0.025,0.332-0.049,0.576
					c-0.03,0.238-0.079,0.48-0.142,0.725l-1.054,4.281c-0.078,0.324-0.152,0.631-0.201,0.92c-0.049,0.283-0.076,0.504-0.076,0.646
					c0,0.531,0.119,0.941,0.376,1.246c0.258,0.303,0.62,0.459,1.114,0.459c0.568,0,1.123-0.143,1.657-0.426
					c0.549-0.281,1.053-0.662,1.522-1.152l1.92-8.781l2.019-0.141l0.138,0.184l-2,9.18c-0.295,1.348-0.673,2.492-1.128,3.445
					c-0.456,0.959-0.997,1.73-1.608,2.312c-0.649,0.615-1.335,1.062-2.081,1.344c-0.75,0.271-1.604,0.406-2.555,0.406
					c-0.656,0-1.179-0.051-1.567-0.141c-0.393-0.098-0.697-0.221-0.921-0.387c-0.219-0.16-0.381-0.332-0.453-0.531
					c-0.081-0.191-0.116-0.387-0.116-0.584c0-0.332,0.101-0.631,0.294-0.898c0.207-0.244,0.499-0.383,0.879-0.383
					c0.294,0,0.527,0.086,0.733,0.246c0.197,0.162,0.362,0.355,0.495,0.541c0.139,0.207,0.264,0.457,0.377,0.715
					c0.12,0.266,0.209,0.48,0.285,0.639h0.276c0.441,0,0.909-0.117,1.401-0.332c0.501-0.221,0.946-0.559,1.361-1.021
					c0.441-0.504,0.84-1.145,1.188-1.932C248.847,193.445,249.127,192.496,249.34,191.385z"/>
			</g>
		</g>
		<g>
			<path fill="#FFFFFF" d="M68.734,74.493h-5.339V45.455h18.218v4.491H68.734v7.935h10.135v4.356H68.734V74.493z"/>
			<path fill="#FFFFFF" d="M90.543,74.493h-5.195V45.455h5.195V74.493z"/>
			<path fill="#FFFFFF" d="M119.34,74.493h-5.488l-4.476-11.938h-7.309v11.938h-5.192V45.455h12.5c3.476,0,6.033,0.79,7.657,2.375
				c1.637,1.574,2.459,3.631,2.459,6.137c0,3.721-1.74,6.296-5.196,7.697L119.34,74.493z M102.068,58.364h6.463
				c1.867,0,3.262-0.394,4.177-1.188c0.915-0.794,1.375-1.888,1.375-3.271c0-1.274-0.454-2.313-1.354-3.1
				c-0.902-0.787-2.159-1.188-3.778-1.188h-6.884V58.364z"/>
			<path fill="#FFFFFF" d="M121.639,67.494l5.046-1.084c0.603,2.875,2.925,4.317,6.965,4.317c1.849,0,3.267-0.372,4.253-1.104
				c0.993-0.738,1.491-1.656,1.491-2.747c0-0.794-0.227-1.525-0.675-2.202c-0.45-0.67-1.415-1.198-2.894-1.588l-5.51-1.442
				c-1.889-0.497-3.283-1.063-4.177-1.691c-0.899-0.635-1.624-1.519-2.17-2.665c-0.54-1.156-0.806-2.382-0.806-3.687
				c0-2.596,0.952-4.677,2.867-6.24c1.914-1.563,4.367-2.351,7.35-2.351c2.48,0,4.688,0.542,6.635,1.644
				c1.955,1.09,3.193,2.633,3.728,4.628l-4.942,1.236c-0.753-2.202-2.53-3.3-5.318-3.3c-1.619,0-2.851,0.345-3.704,1.021
				c-0.853,0.687-1.277,1.546-1.277,2.599c0,1.653,1.341,2.82,4.01,3.49l4.899,1.229c2.975,0.753,4.96,1.864,5.98,3.331
				c1.01,1.467,1.514,3.082,1.514,4.863c0,2.851-1.062,5.098-3.199,6.727c-2.125,1.64-4.887,2.454-8.284,2.454
				c-2.856,0-5.361-0.594-7.504-1.802C123.768,71.925,122.346,70.047,121.639,67.494z"/>
			<path fill="#FFFFFF" d="M159.426,74.493h-5.571V49.946h-7.666v-4.491h20.898v4.491h-7.662V74.493z"/>
			<path fill="#FFFFFF" d="M192.657,74.493h-5.507V62.237l-9.821-16.782h6.289l6.842,11.978l6.55-11.978h4.978l-9.331,16.782V74.493
				z"/>
			<path fill="#FFFFFF" d="M223.288,74.493h-18.731V45.455h18.539v4.318h-13.338v7.866h10.725v4.218h-10.725v8.121h13.53V74.493z"/>
			<path fill="#FFFFFF" d="M250.376,74.493h-5.554l-2.301-6.92h-11.082l-2.265,6.92h-4.427l9.559-29.038h6.398L250.376,74.493z
				 M241.13,63.389l-4.203-12.957l-4.205,12.957H241.13z"/>
			<path fill="#FFFFFF" d="M276.298,74.493h-5.488l-4.474-11.938h-7.307v11.938h-5.193V45.455h12.5c3.474,0,6.03,0.79,7.666,2.375
				c1.633,1.574,2.442,3.631,2.442,6.137c0,3.721-1.725,6.296-5.188,7.697L276.298,74.493z M259.029,58.364h6.457
				c1.881,0,3.269-0.394,4.18-1.188c0.919-0.794,1.379-1.888,1.379-3.271c0-1.274-0.454-2.313-1.352-3.1
				c-0.904-0.787-2.158-1.188-3.786-1.188h-6.878V58.364z"/>
		</g>
		<g>
			<path fill="#231F20" d="M111.509,86.079l-10.082,38.658h-7.125l-7.515-28.438l-6.821,28.438h-6.998L62.67,86.079h7.208
				l7.293,28.172l6.795-28.172h6.879l7.517,28.172l7.153-28.172H111.509z"/>
			<path fill="#231F20" d="M145.603,124.737h-7.185l-5.858-15.888h-9.556v15.888h-6.801V86.079h16.356
				c4.548,0,7.895,1.057,10.03,3.158c2.136,2.105,3.206,4.825,3.206,8.166c0,4.968-2.268,8.381-6.795,10.255L145.603,124.737z
				 M123.004,103.264h8.452c2.45,0,4.277-0.524,5.471-1.581c1.196-1.06,1.797-2.516,1.797-4.359c0-1.705-0.591-3.079-1.769-4.128
				c-1.178-1.039-2.827-1.567-4.949-1.567h-9.002V103.264z"/>
			<path fill="#231F20" d="M159.361,124.737h-6.8V86.079h6.8V124.737z"/>
			<path fill="#231F20" d="M180.826,124.737h-7.294V92.05h-10.028v-5.972h27.353v5.972h-10.03V124.737z"/>
			<path fill="#231F20" d="M201.795,124.737h-6.798V86.079h6.798V124.737z"/>
			<path fill="#231F20" d="M238.563,124.737h-6.604l-14.31-24.696c-0.219-0.376-0.576-0.991-1.08-1.84
				c-0.216-0.38-0.559-0.977-1.02-1.788v28.324h-5.469V86.079h7.514l13.201,22.771c0.114,0.189,0.913,1.57,2.409,4.166V86.079h5.357
				V124.737z"/>
			<path fill="#231F20" d="M275.477,104.969v19.768h-3.012l-2.072-5.212c-2.193,3.869-5.591,5.799-10.194,5.799
				c-5.147,0-8.98-2.002-11.506-5.992c-2.538-4.011-3.801-8.646-3.801-13.907c0-5.574,1.415-10.281,4.24-14.147
				c2.829-3.866,6.779-5.796,11.866-5.796c3.794,0,6.914,1.129,9.363,3.387c2.449,2.257,4.004,5.06,4.643,8.425l-5.915,1.074
				c-1.103-4.715-3.743-7.076-7.927-7.076c-2.671,0-4.85,1.118-6.527,3.345c-1.693,2.229-2.532,5.646-2.532,10.275
				c0,9.758,2.983,14.645,8.952,14.645c2.318,0,4.239-0.824,5.753-2.475c1.529-1.643,2.281-3.804,2.281-6.506h-7.788v-5.605H275.477
				z"/>
		</g>
		<rect x="63.395" y="135.581" fill="#231F20" width="213.03" height="3.535"/>
	</g>
	<g>
		<path fill="#231F20" d="M195.275,291.934l-92.25-62.936l-70.57-0.006c-0.317-0.027-7.857-0.752-15.663-5.805
			C9.572,218.514,0.798,209.121,0,190.91L-0.001,35.167c0.021-0.412,0.493-8.296,5.383-16.479
			c4.526-7.574,13.826-16.79,32.427-17.686L327.358,1c0.32-0.004,8.33-0.032,16.679,4.603c7.726,4.289,17.156,13.521,18.222,33.148
			l0.004,39.749h-2.978V38.833C357.397,4.159,328.625,4,327.372,4H37.88C5.012,5.585,3.042,34.04,2.974,35.25l0.002,155.593
			c0.594,13.523,5.784,23.578,15.424,29.82c6.853,4.436,13.574,5.26,14.26,5.334h71.277l84.628,57.736l-24.249-57.279h94.994v3
			h-90.487L195.275,291.934z"/>
	</g>
</g>
</svg>
