<?xml version="1.0" encoding="utf-8"?>
<!-- Generator: Adobe Illustrator 15.0.0, SVG Export Plug-In . SVG Version: 6.00 Build 0)  -->
<!DOCTYPE svg PUBLIC "-//W3C//DTD SVG 1.1//EN" "http://www.w3.org/Graphics/SVG/1.1/DTD/svg11.dtd">
<svg version="1.1" id="Layer_1" xmlns="http://www.w3.org/2000/svg" xmlns:xlink="http://www.w3.org/1999/xlink" x="0px" y="0px"
	 width="325px" height="66px" viewBox="0 0 325 66" enable-background="new 0 0 325 66" xml:space="preserve">
<g>
	<path fill-rule="evenodd" clip-rule="evenodd" d="M14.502,22.878c-0.37,0.478-0.017,0.874,0.496,0.771
		c0.267-0.051,0.458-0.201,0.578-0.393c0.365-0.595,0.033-1.191-0.412-1.46c-0.559-0.338-1.354-0.238-1.906,0.208
		c-1.396,1.129-2.06,4.31,0.286,6.519c0.321,0.302,1.783,1.258,0.098,0.786c-3.035-0.849-6.696-0.025-7.708,2.825
		c-0.167,0.466-0.443,0.21-0.33-0.136c0.976-2.971,4.533-3.918,7.695-2.836c1.656,0.565,0.231-0.489-0.096-0.786
		c-3.661-3.349-0.365-8.559,2.163-6.557c0.807,0.641,0.416,1.871-0.419,1.971c-0.613,0.076-1.017-0.624-0.743-1.074
		C14.372,22.443,14.621,22.726,14.502,22.878"/>
	<path fill-rule="evenodd" clip-rule="evenodd" d="M19.973,52.199c0.14,0.166,0.251,0.355,0.337,0.557
		c0.474,1.107,0.094,3.496-1.359,3.701c-1.796,0.256-2.804-2.158-2.853-4.434c-0.084-3.93,1.675-7.195,2.193-10.707
		c0.203-1.377,0.37-2.791,0.301-4.188c-0.14-2.846-1.753-2.887-2.924-1.398c-1.248,1.584-2.02,4.871-0.972,7.025
		c0.215,0.445,0.647,1.057,1.203,1.047c0.443-0.004,0.754-0.41,0.941-0.768c0.583-1.117,1.036-4.732,0.243-5.947
		c-0.041-0.068-0.184-0.271-0.284-0.258c-0.53,0.102-0.5,3.562-0.5,3.975c0,0.145-0.18,0.145-0.18,0c0-0.523-0.105-4.014,0.647-4.15
		c1.279-0.236,1.3,7.307-0.865,7.332c-0.639,0.006-1.228-0.596-1.478-1.111c-1.126-2.316-0.336-5.963,1.018-7.568
		c1.27-1.508,3.185-1.191,3.33,1.814c0.068,1.406-0.098,2.832-0.302,4.217c-0.516,3.504-1.821,7.17-1.732,10.736
		c0.079,3.17,1.308,4.219,2.236,3.943c1.12-0.326,1.888-2.473,0.862-3.703C19.73,52.191,19.889,52.1,19.973,52.199"/>
	<path fill-rule="evenodd" clip-rule="evenodd" d="M19.946,46.805c0.068,0.107,0.125,0.229,0.172,0.369
		c0.259,0.748,0.217,2.48-0.396,2.748c-0.757,0.334-1.309-1.299-1.449-2.916c-0.234-2.785,0.354-5.26,0.398-7.801
		c0.033-0.238,0.073-0.295,0.078,0.002c-0.043,2.535-0.418,5.252-0.199,7.779c0.196,2.252,0.776,2.893,1.16,2.619
		c0.462-0.326,0.685-1.916,0.182-2.707C19.842,46.82,19.906,46.74,19.946,46.805"/>
	<path fill-rule="evenodd" clip-rule="evenodd" d="M19.973,12.452c0.14-0.168,0.251-0.357,0.337-0.558
		c0.474-1.108,0.094-3.496-1.359-3.703c-1.796-0.256-2.804,2.157-2.853,4.436c-0.084,3.929,1.675,7.193,2.193,10.709
		c0.203,1.373,0.37,2.79,0.301,4.182c-0.14,2.85-1.753,2.894-2.924,1.403c-1.248-1.589-2.02-4.874-0.972-7.03
		c0.215-0.442,0.647-1.053,1.203-1.046c0.443,0.005,0.754,0.413,0.941,0.77c0.583,1.118,1.036,4.734,0.243,5.948
		c-0.041,0.067-0.184,0.273-0.284,0.256c-0.53-0.097-0.5-3.561-0.5-3.975c0-0.142-0.18-0.142-0.18,0
		c0,0.521-0.105,4.014,0.647,4.151c1.279,0.237,1.3-7.304-0.865-7.33c-0.639-0.007-1.228,0.597-1.478,1.111
		c-1.126,2.317-0.336,5.963,1.018,7.57c1.27,1.506,3.185,1.19,3.33-1.817c0.068-1.405-0.098-2.832-0.302-4.22
		c-0.516-3.501-1.821-7.167-1.732-10.732c0.079-3.17,1.308-4.217,2.236-3.945c1.12,0.329,1.888,2.471,0.862,3.706
		C19.73,12.459,19.889,12.552,19.973,12.452"/>
	<path fill-rule="evenodd" clip-rule="evenodd" d="M19.946,17.845c0.068-0.107,0.125-0.231,0.172-0.367
		c0.259-0.748,0.217-2.479-0.396-2.75c-0.757-0.334-1.309,1.3-1.449,2.915c-0.234,2.787,0.354,5.257,0.398,7.802
		c0.033,0.238,0.073,0.294,0.078-0.002c-0.043-2.536-0.418-5.254-0.199-7.781c0.196-2.25,0.776-2.892,1.16-2.62
		c0.462,0.328,0.685,1.918,0.182,2.708C19.842,17.831,19.906,17.908,19.946,17.845"/>
	<path fill-rule="evenodd" clip-rule="evenodd" d="M14.502,41.641c-0.37-0.479-0.017-0.871,0.496-0.771
		c0.267,0.053,0.458,0.201,0.578,0.391c0.365,0.598,0.033,1.191-0.412,1.463c-0.559,0.338-1.354,0.236-1.906-0.209
		c-1.396-1.131-2.06-4.307,0.286-6.52c0.321-0.303,1.783-1.258,0.098-0.783c-3.035,0.846-6.696,0.021-7.708-2.827
		c-0.167-0.465-0.443-0.21-0.33,0.136c0.976,2.968,4.533,3.919,7.695,2.839c1.656-0.568,0.231,0.486-0.096,0.785
		c-3.661,3.348-0.365,8.557,2.163,6.555c0.807-0.641,0.416-1.869-0.419-1.973c-0.613-0.072-1.017,0.627-0.743,1.076
		C14.372,42.074,14.621,41.791,14.502,41.641"/>
	<path fill-rule="evenodd" clip-rule="evenodd" d="M18.727,60.518c-1.12-0.369-1.601-2.697-1.193-3.891
		c0.213-0.625-0.185-0.086-0.296,0.035c-1.264,1.383-3.229,0.139-2.473-0.814c0.241-0.303,0.704-0.156,0.744,0.156
		c0.027,0.234-0.238,0.387-0.406,0.283c-0.104-0.066,0.003-0.156,0.061-0.111c0.179,0.139,0.328,0.004,0.292-0.189
		c-0.02-0.102-0.077-0.172-0.148-0.217c-0.225-0.139-0.449-0.014-0.552,0.154c-0.127,0.213-0.088,0.514,0.078,0.719
		c0.427,0.529,1.625,0.777,2.459-0.107c0.115-0.119,0.476-0.672,0.297-0.035c-0.399,1.43,0.351-0.062,1.107-0.068
		c0.754-0.002,1.513,1.486,1.118,0.068c-0.177-0.637,0.182-0.084,0.296,0.035c0.835,0.885,2.035,0.637,2.459,0.107
		c0.169-0.205,0.207-0.506,0.078-0.719c-0.1-0.168-0.326-0.293-0.551-0.154c-0.072,0.045-0.126,0.115-0.148,0.217
		c-0.037,0.193,0.112,0.328,0.292,0.189c0.056-0.045,0.164,0.045,0.06,0.111c-0.168,0.104-0.432-0.049-0.404-0.283
		c0.039-0.312,0.502-0.459,0.744-0.156c0.757,0.953-1.209,2.197-2.471,0.814c-0.115-0.121-0.511-0.66-0.298-0.035
		C20.279,57.82,19.848,60.148,18.727,60.518 M18.727,60.18c0.568-0.277,0.843-1.246,0.929-1.795
		c0.047-0.305,0.071-0.664,0.043-1.006c-0.089-0.043-0.173-0.111-0.248-0.174c-0.129-0.105-0.251-0.219-0.391-0.312
		c-0.096-0.066-0.241-0.146-0.363-0.146c-0.12,0-0.264,0.082-0.36,0.148c-0.137,0.094-0.261,0.207-0.388,0.314
		c-0.073,0.062-0.152,0.127-0.242,0.174c-0.021,0.35,0.008,0.715,0.064,1.023C17.866,58.951,18.162,59.908,18.727,60.18"/>
	<path fill-rule="evenodd" clip-rule="evenodd" d="M18.727,3.982c-1.12,0.368-1.601,2.695-1.193,3.889
		c0.213,0.624-0.185,0.087-0.296-0.038c-1.264-1.379-3.229-0.137-2.473,0.817c0.241,0.304,0.704,0.156,0.744-0.158
		c0.027-0.232-0.238-0.384-0.406-0.28c-0.104,0.062,0.003,0.158,0.061,0.112c0.179-0.14,0.328-0.006,0.292,0.189
		c-0.02,0.098-0.077,0.171-0.148,0.217c-0.225,0.137-0.449,0.011-0.552-0.157c-0.127-0.21-0.088-0.51,0.078-0.718
		c0.427-0.528,1.625-0.779,2.459,0.106c0.115,0.122,0.476,0.675,0.297,0.037c-0.399-1.431,0.351,0.062,1.107,0.066
		c0.754,0.004,1.513-1.483,1.118-0.066c-0.177,0.638,0.182,0.085,0.296-0.037c0.835-0.885,2.035-0.634,2.459-0.106
		c0.169,0.208,0.207,0.508,0.078,0.718c-0.1,0.168-0.326,0.294-0.551,0.157c-0.072-0.045-0.126-0.119-0.148-0.217
		c-0.037-0.195,0.112-0.329,0.292-0.189c0.056,0.046,0.164-0.051,0.06-0.112c-0.168-0.104-0.432,0.048-0.404,0.28
		c0.039,0.314,0.502,0.461,0.744,0.158c0.757-0.954-1.209-2.196-2.471-0.817c-0.115,0.125-0.511,0.661-0.298,0.038
		C20.279,6.678,19.848,4.351,18.727,3.982 M18.727,4.315c0.568,0.279,0.843,1.25,0.929,1.798c0.047,0.307,0.071,0.662,0.043,1.006
		c-0.089,0.043-0.173,0.112-0.248,0.174c-0.129,0.107-0.251,0.22-0.391,0.312c-0.096,0.065-0.241,0.15-0.363,0.147
		c-0.12,0-0.264-0.083-0.36-0.148C18.2,7.51,18.076,7.399,17.949,7.291c-0.073-0.063-0.152-0.131-0.242-0.173
		c-0.021-0.351,0.008-0.714,0.064-1.025C17.866,5.546,18.162,4.592,18.727,4.315"/>
	<path fill-rule="evenodd" clip-rule="evenodd" d="M310.497,41.621c0.369-0.477,0.017-0.873-0.495-0.771
		c-0.268,0.053-0.459,0.201-0.576,0.393c-0.365,0.596-0.035,1.191,0.413,1.461c0.557,0.338,1.353,0.236,1.904-0.207
		c1.395-1.131,2.061-4.309-0.288-6.518c-0.319-0.305-1.782-1.262-0.096-0.789c3.033,0.848,6.696,0.025,7.708-2.825
		c0.168-0.466,0.442-0.21,0.329,0.135c-0.974,2.973-4.532,3.92-7.697,2.838c-1.652-0.564-0.229,0.49,0.099,0.787
		c3.66,3.348,0.364,8.557-2.163,6.555c-0.805-0.641-0.416-1.869,0.419-1.971c0.612-0.074,1.018,0.627,0.742,1.074
		C310.63,42.057,310.38,41.775,310.497,41.621"/>
	<path fill-rule="evenodd" clip-rule="evenodd" d="M305.028,12.3c-0.141-0.167-0.254-0.355-0.338-0.556
		c-0.475-1.107-0.095-3.497,1.359-3.703c1.797-0.258,2.803,2.159,2.851,4.437c0.087,3.927-1.674,7.193-2.189,10.707
		c-0.204,1.373-0.37,2.79-0.302,4.184c0.14,2.849,1.752,2.891,2.924,1.402c1.248-1.587,2.021-4.874,0.973-7.029
		c-0.217-0.444-0.648-1.054-1.203-1.047c-0.445,0.006-0.757,0.412-0.941,0.77c-0.584,1.118-1.038,4.733-0.243,5.949
		c0.043,0.067,0.184,0.271,0.286,0.254c0.528-0.097,0.499-3.561,0.499-3.973c0-0.144,0.178-0.144,0.178,0
		c0,0.523,0.106,4.011-0.645,4.152c-1.282,0.235-1.302-7.306,0.862-7.331c0.639-0.007,1.229,0.595,1.479,1.11
		c1.126,2.316,0.334,5.962-1.019,7.568c-1.272,1.507-3.187,1.19-3.333-1.817c-0.067-1.403,0.102-2.831,0.307-4.217
		c0.516-3.502,1.819-7.167,1.732-10.731c-0.081-3.172-1.312-4.22-2.238-3.947c-1.122,0.328-1.89,2.472-0.861,3.705
		C305.271,12.308,305.111,12.4,305.028,12.3"/>
	<path fill-rule="evenodd" clip-rule="evenodd" d="M305.054,17.693c-0.069-0.107-0.123-0.23-0.174-0.366
		c-0.258-0.75-0.216-2.48,0.397-2.75c0.756-0.332,1.311,1.298,1.446,2.917c0.237,2.784-0.353,5.257-0.396,7.8
		c-0.033,0.24-0.074,0.295-0.077-0.002c0.042-2.534,0.419-5.254,0.197-7.781c-0.194-2.25-0.775-2.893-1.157-2.619
		c-0.465,0.327-0.687,1.916-0.183,2.708C305.157,17.679,305.096,17.759,305.054,17.693"/>
	<path fill-rule="evenodd" clip-rule="evenodd" d="M305.028,52.049c-0.141,0.166-0.254,0.355-0.338,0.557
		c-0.475,1.107-0.095,3.494,1.359,3.703c1.797,0.256,2.803-2.156,2.851-4.436c0.087-3.928-1.674-7.193-2.189-10.709
		c-0.204-1.373-0.37-2.789-0.302-4.182c0.14-2.854,1.752-2.895,2.924-1.402c1.248,1.588,2.021,4.873,0.973,7.029
		c-0.217,0.443-0.648,1.053-1.203,1.047c-0.445-0.008-0.757-0.414-0.941-0.771c-0.584-1.117-1.038-4.732-0.243-5.947
		c0.043-0.066,0.184-0.273,0.286-0.256c0.528,0.098,0.499,3.561,0.499,3.975c0,0.145,0.178,0.145,0.178,0
		c0-0.521,0.106-4.014-0.645-4.15c-1.282-0.236-1.302,7.303,0.862,7.33c0.639,0.008,1.229-0.596,1.479-1.109
		c1.126-2.316,0.334-5.965-1.019-7.57c-1.272-1.508-3.187-1.189-3.333,1.814c-0.067,1.408,0.102,2.834,0.307,4.221
		c0.516,3.502,1.819,7.166,1.732,10.732c-0.081,3.17-1.312,4.217-2.238,3.945c-1.122-0.326-1.89-2.471-0.861-3.705
		C305.271,52.039,305.111,51.949,305.028,52.049"/>
	<path fill-rule="evenodd" clip-rule="evenodd" d="M305.054,46.654c-0.069,0.107-0.123,0.232-0.174,0.369
		c-0.258,0.748-0.216,2.479,0.397,2.748c0.756,0.334,1.311-1.299,1.446-2.914c0.237-2.787-0.353-5.258-0.396-7.803
		c-0.033-0.238-0.074-0.293-0.077,0.004c0.042,2.533,0.419,5.252,0.197,7.779c-0.194,2.248-0.775,2.891-1.157,2.619
		c-0.465-0.328-0.687-1.918-0.183-2.707C305.157,46.67,305.096,46.592,305.054,46.654"/>
	<path fill-rule="evenodd" clip-rule="evenodd" d="M310.497,22.858c0.369,0.48,0.017,0.873-0.495,0.772
		c-0.268-0.054-0.459-0.202-0.576-0.393c-0.365-0.595-0.035-1.19,0.413-1.46c0.557-0.338,1.353-0.238,1.904,0.206
		c1.395,1.131,2.061,4.31-0.288,6.52c-0.319,0.303-1.782,1.26-0.096,0.788c3.033-0.849,6.696-0.025,7.708,2.823
		c0.168,0.468,0.442,0.21,0.329-0.135c-0.974-2.969-4.532-3.917-7.697-2.837c-1.652,0.566-0.229-0.486,0.099-0.788
		c3.66-3.348,0.364-8.556-2.163-6.554c-0.805,0.641-0.416,1.871,0.419,1.971c0.612,0.076,1.018-0.624,0.742-1.074
		C310.63,22.423,310.38,22.707,310.497,22.858"/>
	<path fill-rule="evenodd" clip-rule="evenodd" d="M306.273,3.982c1.119,0.367,1.603,2.696,1.194,3.889
		c-0.215,0.626,0.185,0.086,0.295-0.037c1.265-1.38,3.227-0.136,2.476,0.816c-0.244,0.306-0.708,0.159-0.746-0.157
		c-0.026-0.233,0.237-0.385,0.405-0.281c0.104,0.064-0.004,0.158-0.063,0.112c-0.177-0.14-0.326-0.005-0.287,0.188
		c0.02,0.102,0.074,0.172,0.146,0.217c0.228,0.138,0.451,0.013,0.551-0.156c0.131-0.21,0.092-0.51-0.078-0.718
		c-0.423-0.528-1.624-0.777-2.459,0.107c-0.111,0.122-0.473,0.673-0.294,0.037c0.398-1.432-0.354,0.063-1.11,0.066
		C305.549,8.07,304.79,6.583,305.186,8c0.177,0.637-0.182,0.085-0.298-0.037c-0.833-0.884-2.034-0.635-2.46-0.107
		c-0.168,0.208-0.204,0.507-0.077,0.718c0.101,0.169,0.328,0.294,0.552,0.156c0.071-0.044,0.127-0.115,0.149-0.217
		c0.036-0.193-0.114-0.328-0.293-0.188c-0.059,0.046-0.165-0.048-0.061-0.112c0.168-0.104,0.435,0.048,0.405,0.281
		c-0.039,0.315-0.502,0.463-0.743,0.157c-0.757-0.952,1.21-2.196,2.473-0.816c0.113,0.123,0.509,0.663,0.295,0.037
		C304.724,6.678,305.153,4.349,306.273,3.982 M306.273,4.317c-0.567,0.277-0.845,1.249-0.929,1.795
		c-0.047,0.307-0.071,0.664-0.045,1.007c0.09,0.042,0.176,0.11,0.249,0.173c0.127,0.107,0.25,0.22,0.391,0.314
		c0.096,0.065,0.244,0.148,0.362,0.148c0.12-0.001,0.263-0.084,0.361-0.151c0.138-0.093,0.263-0.207,0.388-0.315
		c0.072-0.062,0.153-0.127,0.241-0.172c0.022-0.35-0.007-0.714-0.062-1.025C307.133,5.547,306.838,4.591,306.273,4.317"/>
	<path fill-rule="evenodd" clip-rule="evenodd" d="M306.273,60.518c1.119-0.367,1.603-2.695,1.194-3.887
		c-0.215-0.627,0.185-0.088,0.295,0.035c1.265,1.379,3.227,0.137,2.476-0.816c-0.244-0.305-0.708-0.156-0.746,0.16
		c-0.026,0.229,0.237,0.381,0.405,0.277c0.104-0.061-0.004-0.156-0.063-0.111c-0.177,0.139-0.326,0.006-0.287-0.188
		c0.02-0.1,0.074-0.172,0.146-0.219c0.228-0.137,0.451-0.01,0.551,0.158c0.131,0.209,0.092,0.51-0.078,0.717
		c-0.423,0.527-1.624,0.777-2.459-0.107c-0.111-0.121-0.473-0.674-0.294-0.035c0.398,1.432-0.354-0.064-1.11-0.066
		c-0.753-0.004-1.512,1.482-1.116,0.066c0.177-0.639-0.182-0.086-0.298,0.035c-0.833,0.885-2.034,0.635-2.46,0.107
		c-0.168-0.207-0.204-0.508-0.077-0.717c0.101-0.168,0.328-0.295,0.552-0.158c0.071,0.047,0.127,0.119,0.149,0.219
		c0.036,0.193-0.114,0.326-0.293,0.188c-0.059-0.045-0.165,0.051-0.061,0.111c0.168,0.104,0.435-0.049,0.405-0.277
		c-0.039-0.316-0.502-0.465-0.743-0.16c-0.757,0.953,1.21,2.195,2.473,0.816c0.113-0.123,0.509-0.662,0.295-0.035
		C304.724,57.822,305.153,60.15,306.273,60.518 M306.273,60.184c-0.567-0.277-0.845-1.248-0.929-1.797
		c-0.047-0.307-0.071-0.662-0.045-1.006c0.09-0.045,0.176-0.113,0.249-0.176c0.127-0.105,0.25-0.219,0.391-0.311
		c0.096-0.066,0.244-0.148,0.362-0.146c0.12,0,0.263,0.08,0.361,0.148c0.138,0.094,0.263,0.205,0.388,0.314
		c0.072,0.062,0.153,0.131,0.241,0.172c0.022,0.352-0.007,0.715-0.062,1.025C307.133,58.955,306.838,59.908,306.273,60.184"/>
	<g>
		<path d="M105.905,10.933h10.813c0.498,0,0.911-0.063,1.241-0.189h0.304l0.084,3.636h-0.294c-0.154-1.065-0.415-1.743-0.783-2.034
			s-0.818-0.437-1.351-0.437h-2.89v12.201c0,0.406,0.045,0.751,0.137,1.035c0.091,0.284,0.276,0.515,0.557,0.693
			c0.28,0.179,0.69,0.268,1.229,0.268v0.305h-7.283v-0.305c0.806,0,1.328-0.182,1.566-0.546c0.238-0.364,0.357-0.848,0.357-1.45
			V11.91h-2.89c-0.491,0-0.889,0.156-1.198,0.468c-0.309,0.312-0.609,0.979-0.904,2.002h-0.326l0.084-3.636h0.305
			C104.994,10.87,105.407,10.933,105.905,10.933z"/>
		<path d="M124.358,17.869h7.314v-4.603c0-0.561-0.105-1.039-0.315-1.434c-0.21-0.396-0.708-0.594-1.492-0.594h-0.105v-0.305h7.272
			v0.305c-0.813,0-1.334,0.186-1.566,0.557c-0.231,0.371-0.347,0.862-0.347,1.471v10.845c0,0.336,0.032,0.643,0.095,0.919
			c0.063,0.276,0.228,0.525,0.494,0.746c0.266,0.221,0.672,0.331,1.219,0.331h0.105v0.305h-7.272v-0.305
			c0.82,0,1.343-0.182,1.571-0.546c0.228-0.364,0.342-0.848,0.342-1.45v-5.213h-7.314v5.213c0,0.343,0.031,0.653,0.095,0.93
			c0.062,0.277,0.227,0.524,0.493,0.741c0.267,0.217,0.673,0.326,1.219,0.326h0.105v0.305h-7.272v-0.305
			c0.813,0,1.334-0.182,1.566-0.546c0.231-0.364,0.347-0.848,0.347-1.45V13.266c0-0.567-0.106-1.047-0.32-1.439
			c-0.214-0.393-0.709-0.588-1.487-0.588h-0.105v-0.305h7.272v0.305c-0.798,0-1.317,0.184-1.555,0.551
			c-0.238,0.368-0.357,0.86-0.357,1.477V17.869z"/>
		<path d="M148.791,10.933l0.126,3.468h-0.305c-0.14-0.582-0.296-1.061-0.468-1.44c-0.171-0.378-0.415-0.667-0.73-0.867
			c-0.315-0.2-0.747-0.299-1.293-0.299H143v6.504h2.491c0.743,0,1.283-0.164,1.624-0.493c0.339-0.33,0.538-0.816,0.594-1.461h0.305
			v4.54h-0.305c-0.105-0.687-0.361-1.146-0.768-1.376c-0.406-0.231-0.889-0.347-1.45-0.347H143v4.456
			c0,1.289,0.666,1.934,1.997,1.934h0.945c0.637,0,1.158-0.084,1.561-0.252c0.402-0.168,0.735-0.458,0.998-0.867
			c0.263-0.41,0.5-0.99,0.709-1.739h0.305l-0.231,3.72H137.62v-0.305c0.812,0,1.338-0.184,1.577-0.552
			c0.238-0.368,0.357-0.849,0.357-1.444V13.266c0-0.567-0.109-1.047-0.327-1.439c-0.216-0.393-0.717-0.588-1.502-0.588h-0.105
			v-0.305H148.791z"/>
		<path d="M169.261,26.413h-11.79v-0.305c0.806,0,1.326-0.18,1.56-0.542c0.235-0.36,0.353-0.845,0.353-1.455V13.245
			c0-0.672-0.146-1.175-0.436-1.508c-0.291-0.333-0.783-0.499-1.477-0.499v-0.305h7.313v0.305c-0.806,0-1.333,0.18-1.581,0.541
			c-0.249,0.361-0.373,0.849-0.373,1.466v10.351c0,0.638,0.122,1.123,0.368,1.456c0.244,0.333,0.725,0.5,1.438,0.5h1.072
			c0.729,0,1.415-0.186,2.06-0.557s1.219-1.233,1.724-2.585h0.305L169.261,26.413z"/>
		<path d="M170.469,11.217v-0.284h7.272v0.305c-0.806,0-1.326,0.184-1.561,0.551c-0.235,0.368-0.352,0.854-0.352,1.456v10.866
			c0,0.343,0.03,0.651,0.094,0.924c0.063,0.273,0.229,0.52,0.499,0.741c0.271,0.221,0.682,0.331,1.235,0.331h0.084v0.305h-7.272
			v-0.305c0.799,0,1.316-0.182,1.556-0.546c0.238-0.364,0.357-0.848,0.357-1.45V13.245c0-0.715-0.156-1.231-0.469-1.55
			C171.603,11.376,171.12,11.217,170.469,11.217z"/>
		<path d="M180.042,10.933h10.813c0.498,0,0.91-0.063,1.24-0.189h0.305l0.084,3.636h-0.294c-0.154-1.065-0.415-1.743-0.783-2.034
			c-0.367-0.291-0.818-0.437-1.35-0.437h-2.891v12.201c0,0.406,0.045,0.751,0.137,1.035c0.091,0.284,0.276,0.515,0.557,0.693
			c0.28,0.179,0.69,0.268,1.229,0.268v0.305h-7.282v-0.305c0.806,0,1.328-0.182,1.565-0.546c0.238-0.364,0.357-0.848,0.357-1.45
			V11.91h-2.889c-0.491,0-0.891,0.156-1.199,0.468c-0.308,0.312-0.609,0.979-0.903,2.002h-0.326l0.084-3.636h0.305
			C179.132,10.87,179.544,10.933,180.042,10.933z"/>
		<path d="M195.365,10.933h10.813c0.498,0,0.91-0.063,1.24-0.189h0.305l0.084,3.636h-0.294c-0.155-1.065-0.415-1.743-0.783-2.034
			s-0.818-0.437-1.35-0.437h-2.891v12.201c0,0.406,0.045,0.751,0.136,1.035c0.092,0.284,0.277,0.515,0.558,0.693
			c0.279,0.179,0.69,0.268,1.229,0.268v0.305h-7.282v-0.305c0.806,0,1.328-0.182,1.565-0.546c0.238-0.364,0.357-0.848,0.357-1.45
			V11.91h-2.89c-0.491,0-0.89,0.156-1.198,0.468c-0.309,0.312-0.609,0.979-0.903,2.002h-0.326l0.084-3.636h0.305
			C194.455,10.87,194.867,10.933,195.365,10.933z"/>
		<path d="M220.249,26.413h-11.79v-0.305c0.806,0,1.325-0.18,1.561-0.542c0.234-0.36,0.352-0.845,0.352-1.455V13.245
			c0-0.672-0.145-1.175-0.436-1.508c-0.29-0.333-0.783-0.499-1.477-0.499v-0.305h7.313v0.305c-0.806,0-1.333,0.18-1.582,0.541
			c-0.247,0.361-0.372,0.849-0.372,1.466v10.351c0,0.638,0.122,1.123,0.368,1.456c0.244,0.333,0.725,0.5,1.439,0.5h1.071
			c0.729,0,1.416-0.186,2.061-0.557s1.218-1.233,1.724-2.585h0.304L220.249,26.413z"/>
		<path d="M232.629,10.933l0.127,3.468h-0.306c-0.14-0.582-0.295-1.061-0.467-1.44c-0.172-0.378-0.415-0.667-0.73-0.867
			s-0.746-0.299-1.293-0.299h-3.121v6.504h2.49c0.743,0,1.284-0.164,1.625-0.493c0.339-0.33,0.537-0.816,0.594-1.461h0.304v4.54
			h-0.304c-0.106-0.687-0.361-1.146-0.769-1.376c-0.405-0.231-0.89-0.347-1.45-0.347h-2.49v4.456c0,1.289,0.666,1.934,1.997,1.934
			h0.945c0.638,0,1.157-0.084,1.562-0.252c0.402-0.168,0.735-0.458,0.998-0.867s0.499-0.99,0.709-1.739h0.305l-0.23,3.72h-11.665
			v-0.305c0.812,0,1.338-0.184,1.576-0.552s0.356-0.849,0.356-1.444V13.266c0-0.567-0.107-1.047-0.324-1.439
			c-0.219-0.393-0.719-0.588-1.504-0.588h-0.104v-0.305H232.629z"/>
		<path d="M247.205,19.161h-0.495v4.95c0,0.588,0.088,1.028,0.264,1.318c0.175,0.291,0.388,0.477,0.641,0.557
			c0.252,0.081,0.589,0.128,1.009,0.142v0.284h-7.271v-0.305c0.812,0,1.334-0.182,1.565-0.546c0.23-0.364,0.348-0.848,0.348-1.45
			V13.266c0-0.743-0.151-1.267-0.452-1.571c-0.302-0.305-0.789-0.457-1.461-0.457v-0.305h8.027c1.059,0,1.986,0.165,2.786,0.494
			c0.799,0.329,1.407,0.795,1.828,1.397c0.421,0.603,0.631,1.293,0.631,2.071c0,0.631-0.134,1.191-0.399,1.682
			c-0.268,0.49-0.626,0.893-1.078,1.208c-0.451,0.315-0.954,0.557-1.508,0.725c0.722,0.456,1.423,1.261,2.102,2.417l1.85,3.143
			c0.315,0.54,0.606,0.958,0.873,1.255c0.266,0.298,0.5,0.494,0.704,0.588c0.203,0.095,0.423,0.16,0.662,0.194v0.305h-4.992
			c-0.483-0.876-0.854-1.573-1.114-2.092c-0.826-1.618-1.429-2.743-1.808-3.373c-0.378-0.63-0.769-1.085-1.171-1.366
			C248.341,19.301,247.827,19.161,247.205,19.161z M247.551,11.795h-0.841v6.504h0.705c1.204,0,2.111-0.289,2.722-0.867
			c0.608-0.578,0.914-1.41,0.914-2.496c0-0.673-0.131-1.242-0.395-1.708c-0.263-0.466-0.654-0.821-1.177-1.066
			C248.957,11.917,248.315,11.795,247.551,11.795z"/>
		<path d="M269.524,10.933l0.127,3.468h-0.306c-0.139-0.582-0.295-1.061-0.467-1.44c-0.172-0.378-0.415-0.667-0.73-0.867
			c-0.314-0.2-0.746-0.299-1.293-0.299h-3.12v6.504h2.49c0.742,0,1.284-0.164,1.624-0.493c0.339-0.33,0.537-0.816,0.594-1.461h0.305
			v4.54h-0.305c-0.106-0.687-0.36-1.146-0.768-1.376c-0.406-0.231-0.891-0.347-1.45-0.347h-2.49v4.456
			c0,1.289,0.665,1.934,1.996,1.934h0.945c0.638,0,1.158-0.084,1.562-0.252c0.402-0.168,0.735-0.458,0.998-0.867
			s0.499-0.99,0.709-1.739h0.305l-0.23,3.72h-11.665v-0.305c0.812,0,1.339-0.184,1.576-0.552c0.238-0.368,0.357-0.849,0.357-1.444
			V13.266c0-0.567-0.108-1.047-0.325-1.439c-0.218-0.393-0.719-0.588-1.504-0.588h-0.104v-0.305H269.524z"/>
		<path d="M270.827,10.933h8.46c1.38,0,2.618,0.212,3.715,0.636c1.097,0.424,2.013,1.011,2.749,1.761
			c0.735,0.749,1.288,1.603,1.66,2.559c0.371,0.956,0.557,1.967,0.557,3.032c0,1.037-0.173,2.003-0.521,2.9
			c-0.347,0.897-0.87,1.692-1.571,2.386s-1.576,1.235-2.627,1.624c-1.051,0.389-2.234,0.583-3.553,0.583h-8.869v-0.305
			c0.813,0,1.337-0.18,1.572-0.542c0.234-0.36,0.352-0.845,0.352-1.455V13.287c0-0.575-0.105-1.06-0.315-1.455
			c-0.21-0.396-0.708-0.594-1.491-0.594h-0.117V10.933z M276.188,11.974v11.338c0,0.547,0.061,0.981,0.184,1.304
			s0.353,0.559,0.689,0.709c0.335,0.151,0.844,0.226,1.522,0.226c0.61,0,1.156-0.041,1.64-0.121c0.482-0.08,0.938-0.24,1.366-0.478
			c0.631-0.364,1.15-0.865,1.561-1.503c0.409-0.637,0.709-1.338,0.898-2.102c0.188-0.763,0.283-1.552,0.283-2.365
			c0-0.84-0.111-1.677-0.336-2.511c-0.224-0.833-0.591-1.604-1.098-2.312c-0.509-0.708-1.194-1.279-2.061-1.713
			c-0.864-0.434-1.917-0.651-3.158-0.651C277.237,11.795,276.741,11.854,276.188,11.974z"/>
	</g>
	<g>
		<path d="M113.313,40.596h-0.41c-0.28-0.969-0.725-1.73-1.334-2.287c-0.61-0.557-1.349-0.836-2.217-0.836
			c-0.427,0-0.818,0.088-1.171,0.258c-0.354,0.172-0.635,0.418-0.841,0.736c-0.206,0.318-0.31,0.686-0.31,1.098
			c0,0.238,0.041,0.473,0.121,0.705c0.081,0.23,0.275,0.516,0.583,0.85c0.308,0.338,0.777,0.709,1.408,1.115
			c0.707,0.441,1.138,0.721,1.292,0.84c0.882,0.555,1.604,1.068,2.165,1.545c0.56,0.477,0.988,0.992,1.282,1.545
			c0.295,0.555,0.442,1.182,0.442,1.881c0,0.645-0.125,1.232-0.373,1.76c-0.249,0.529-0.603,0.988-1.062,1.377
			c-0.459,0.389-1.005,0.691-1.639,0.904c-0.634,0.213-1.322,0.32-2.065,0.32c-0.764,0-1.647-0.145-2.648-0.432
			c-0.113-0.027-0.254-0.059-0.426-0.094s-0.324-0.053-0.457-0.053c-0.329,0-0.567,0.172-0.714,0.516h-0.368l0.095-4.373h0.41
			c0.133,0.828,0.418,1.518,0.856,2.07c0.438,0.555,0.934,0.955,1.487,1.205c0.553,0.248,1.096,0.371,1.629,0.371
			c0.778,0,1.42-0.217,1.928-0.65c0.508-0.436,0.762-0.963,0.762-1.586c0-0.422-0.107-0.787-0.321-1.1
			c-0.213-0.311-0.534-0.619-0.961-0.924c-0.427-0.305-1.233-0.836-2.417-1.592c-0.623-0.406-1.154-0.801-1.591-1.178
			c-0.438-0.379-0.78-0.74-1.025-1.088c-0.245-0.346-0.419-0.693-0.52-1.041c-0.102-0.346-0.153-0.715-0.153-1.107
			c0-0.756,0.195-1.504,0.583-2.238c0.389-0.736,0.94-1.338,1.655-1.803c0.715-0.465,1.531-0.699,2.449-0.699
			c0.427,0,0.837,0.043,1.229,0.127c0.105,0.014,0.245,0.043,0.42,0.09c0.175,0.045,0.322,0.082,0.441,0.109
			c0.308,0.057,0.54,0.084,0.693,0.084c0.238,0,0.405-0.039,0.5-0.115c0.094-0.078,0.184-0.189,0.268-0.338h0.326V40.596z"/>
		<path d="M130.137,42.076h-0.368c-0.112-0.748-0.328-1.416-0.647-1.996c-0.318-0.582-0.704-1.062-1.156-1.445
			c-0.452-0.383-0.959-0.67-1.523-0.867c-0.564-0.195-1.162-0.295-1.792-0.295c-0.841,0-1.582,0.18-2.223,0.537
			s-1.133,0.803-1.477,1.334c-0.414,0.672-0.704,1.418-0.873,2.234c-0.167,0.816-0.252,1.686-0.252,2.611
			c0,1.68,0.294,3.025,0.883,4.035c0.588,1.008,1.298,1.711,2.128,2.107c0.83,0.395,1.648,0.594,2.454,0.594
			c1.947,0,3.636-0.955,5.065-2.859v1.418c-0.47,0.547-0.974,1.029-1.514,1.451c-0.54,0.42-1.211,0.77-2.018,1.051
			c-0.806,0.279-1.748,0.42-2.827,0.42c-1.275,0-2.412-0.215-3.41-0.646c-0.999-0.43-1.827-1.01-2.486-1.738
			c-0.658-0.729-1.156-1.562-1.492-2.502c-0.336-0.939-0.505-1.904-0.505-2.9c0-0.855,0.109-1.648,0.326-2.385
			c0.217-0.736,0.511-1.389,0.883-1.959c0.371-0.572,0.812-1.104,1.324-1.594c0.876-0.799,1.787-1.344,2.732-1.635
			c0.945-0.289,1.965-0.436,3.058-0.436c1.079,0,2.255,0.18,3.531,0.537c0.448,0.105,0.777,0.158,0.988,0.158
			c0.385,0,0.679-0.254,0.883-0.758h0.305V42.076z"/>
		<path d="M136.841,43.693h7.314v-4.602c0-0.561-0.105-1.039-0.315-1.434c-0.21-0.396-0.708-0.594-1.492-0.594h-0.105V36.76h7.271
			v0.305c-0.812,0-1.334,0.186-1.565,0.557s-0.347,0.861-0.347,1.471v10.846c0,0.336,0.032,0.643,0.095,0.918
			c0.063,0.277,0.228,0.525,0.494,0.748c0.266,0.219,0.672,0.33,1.219,0.33h0.104v0.305h-7.271v-0.305
			c0.82,0,1.343-0.182,1.571-0.547c0.228-0.363,0.342-0.848,0.342-1.449v-5.213h-7.314v5.213c0,0.344,0.031,0.652,0.095,0.93
			c0.062,0.277,0.227,0.523,0.493,0.74c0.267,0.219,0.673,0.326,1.219,0.326h0.105v0.305h-7.272v-0.305
			c0.813,0,1.334-0.182,1.566-0.547c0.231-0.363,0.347-0.848,0.347-1.449V39.092c0-0.566-0.106-1.047-0.32-1.439
			s-0.709-0.588-1.487-0.588h-0.105V36.76h7.272v0.305c-0.798,0-1.317,0.184-1.555,0.551c-0.238,0.367-0.357,0.859-0.357,1.477
			V43.693z"/>
		<path d="M151.005,44.451c0-1.051,0.18-2.057,0.541-3.016c0.361-0.961,0.891-1.803,1.592-2.527c0.7-0.725,1.55-1.289,2.548-1.691
			c0.998-0.402,2.127-0.605,3.389-0.605c1.275,0,2.412,0.205,3.41,0.615c0.998,0.41,1.847,0.979,2.543,1.707
			s1.225,1.572,1.582,2.529c0.357,0.955,0.535,1.973,0.535,3.051c0,1.072-0.174,2.082-0.52,3.027
			c-0.348,0.945-0.857,1.783-1.528,2.512c-0.674,0.729-1.52,1.303-2.538,1.723c-1.02,0.422-2.174,0.631-3.463,0.631
			c-1.387,0-2.598-0.236-3.63-0.709c-1.034-0.475-1.878-1.098-2.533-1.875c-0.655-0.779-1.14-1.637-1.455-2.576
			C151.163,46.309,151.005,45.377,151.005,44.451z M154.684,44.252c0,1.051,0.078,2.086,0.236,3.105
			c0.157,1.02,0.565,1.973,1.224,2.857c0.658,0.887,1.65,1.33,2.974,1.33c1.856,0,3.045-0.748,3.567-2.244
			c0.521-1.496,0.782-3.021,0.782-4.576c0-1.211-0.104-2.348-0.314-3.406c-0.211-1.057-0.64-1.961-1.288-2.715
			s-1.564-1.131-2.748-1.131c-1.332,0-2.324,0.43-2.98,1.289c-0.655,0.857-1.061,1.77-1.218,2.736
			C154.762,42.465,154.684,43.383,154.684,44.252z"/>
		<path d="M169.132,44.451c0-1.051,0.18-2.057,0.54-3.016c0.361-0.961,0.892-1.803,1.593-2.527c0.699-0.725,1.549-1.289,2.548-1.691
			c0.998-0.402,2.128-0.605,3.39-0.605c1.274,0,2.411,0.205,3.41,0.615c0.998,0.41,1.846,0.979,2.543,1.707
			c0.696,0.729,1.223,1.572,1.58,2.529c0.357,0.955,0.536,1.973,0.536,3.051c0,1.072-0.173,2.082-0.52,3.027
			s-0.856,1.783-1.528,2.512c-0.674,0.729-1.519,1.303-2.538,1.723c-1.021,0.422-2.174,0.631-3.463,0.631
			c-1.387,0-2.598-0.236-3.631-0.709c-1.034-0.475-1.878-1.098-2.532-1.875c-0.655-0.779-1.141-1.637-1.455-2.576
			C169.288,46.309,169.132,45.377,169.132,44.451z M172.81,44.252c0,1.051,0.078,2.086,0.236,3.105
			c0.157,1.02,0.565,1.973,1.224,2.857c0.658,0.887,1.65,1.33,2.974,1.33c1.857,0,3.046-0.748,3.568-2.244s0.782-3.021,0.782-4.576
			c0-1.211-0.104-2.348-0.314-3.406c-0.211-1.057-0.64-1.961-1.288-2.715c-0.647-0.754-1.564-1.131-2.748-1.131
			c-1.33,0-2.324,0.43-2.979,1.289c-0.654,0.857-1.061,1.77-1.218,2.736C172.888,42.465,172.81,43.383,172.81,44.252z"/>
		<path d="M198.555,52.238h-11.791v-0.305c0.806,0,1.326-0.182,1.562-0.541c0.233-0.361,0.352-0.848,0.352-1.455V39.07
			c0-0.672-0.146-1.174-0.437-1.508c-0.29-0.332-0.782-0.498-1.477-0.498V36.76h7.313v0.305c-0.806,0-1.332,0.18-1.581,0.541
			c-0.248,0.359-0.373,0.85-0.373,1.465v10.352c0,0.637,0.123,1.123,0.368,1.455c0.244,0.332,0.726,0.5,1.44,0.5h1.07
			c0.729,0,1.416-0.186,2.061-0.559c0.645-0.371,1.219-1.232,1.724-2.584h0.305L198.555,52.238z"/>
		<path d="M213.244,43.693h7.314v-4.602c0-0.561-0.105-1.039-0.316-1.434c-0.21-0.396-0.706-0.594-1.491-0.594h-0.105V36.76h7.272
			v0.305c-0.812,0-1.335,0.186-1.566,0.557c-0.23,0.371-0.346,0.861-0.346,1.471v10.846c0,0.336,0.03,0.643,0.094,0.918
			c0.062,0.277,0.228,0.525,0.494,0.748c0.266,0.219,0.672,0.33,1.218,0.33h0.106v0.305h-7.272v-0.305
			c0.82,0,1.343-0.182,1.571-0.547c0.228-0.363,0.342-0.848,0.342-1.449v-5.213h-7.314v5.213c0,0.344,0.031,0.652,0.095,0.93
			s0.228,0.523,0.493,0.74c0.267,0.219,0.674,0.326,1.22,0.326h0.105v0.305h-7.272v-0.305c0.812,0,1.335-0.182,1.565-0.547
			c0.231-0.363,0.347-0.848,0.347-1.449V39.092c0-0.566-0.106-1.047-0.32-1.439c-0.213-0.393-0.709-0.588-1.487-0.588h-0.104V36.76
			h7.272v0.305c-0.799,0-1.318,0.184-1.556,0.551c-0.238,0.367-0.357,0.859-0.357,1.477V43.693z"/>
		<path d="M227.409,44.451c0-1.051,0.18-2.057,0.54-3.016c0.361-0.961,0.892-1.803,1.593-2.527c0.699-0.725,1.549-1.289,2.548-1.691
			c0.998-0.402,2.128-0.605,3.389-0.605c1.275,0,2.412,0.205,3.411,0.615c0.998,0.41,1.846,0.979,2.543,1.707
			c0.696,0.729,1.223,1.572,1.58,2.529c0.357,0.955,0.536,1.973,0.536,3.051c0,1.072-0.173,2.082-0.52,3.027
			s-0.856,1.783-1.529,2.512s-1.518,1.303-2.537,1.723c-1.021,0.422-2.174,0.631-3.463,0.631c-1.388,0-2.598-0.236-3.631-0.709
			c-1.034-0.475-1.878-1.098-2.533-1.875c-0.654-0.779-1.14-1.637-1.454-2.576C227.565,46.309,227.409,45.377,227.409,44.451z
			 M231.087,44.252c0,1.051,0.078,2.086,0.236,3.105c0.157,1.02,0.565,1.973,1.224,2.857c0.658,0.887,1.65,1.33,2.974,1.33
			c1.857,0,3.046-0.748,3.568-2.244s0.782-3.021,0.782-4.576c0-1.211-0.104-2.348-0.314-3.406c-0.211-1.057-0.64-1.961-1.288-2.715
			c-0.647-0.754-1.564-1.131-2.748-1.131c-1.33,0-2.324,0.43-2.979,1.289c-0.654,0.857-1.061,1.77-1.218,2.736
			C231.165,42.465,231.087,43.383,231.087,44.252z"/>
		<path d="M257.493,52.238v-2.932h-0.041c-1.128,2.066-2.807,3.1-5.034,3.1c-1.128,0-2.139-0.262-3.032-0.789
			c-0.893-0.525-1.553-1.193-1.98-2.006c-0.448-0.842-0.672-2.184-0.672-4.025V39.07c0-0.658-0.132-1.156-0.395-1.496
			c-0.263-0.342-0.769-0.51-1.519-0.51V36.76h7.271v0.305c-0.798,0-1.316,0.182-1.555,0.545c-0.238,0.365-0.357,0.852-0.357,1.461
			v6.904c0,1.018,0.123,1.818,0.367,2.406c0.176,0.428,0.422,0.797,0.741,1.104c0.318,0.309,0.689,0.543,1.114,0.705
			c0.424,0.16,0.867,0.24,1.329,0.24c0.484,0,0.946-0.084,1.387-0.256c0.441-0.172,0.84-0.42,1.193-0.742
			c0.354-0.32,0.621-0.686,0.804-1.092c0.252-0.604,0.378-1.541,0.378-2.816V39.07c0-0.734-0.146-1.258-0.44-1.564
			c-0.295-0.309-0.785-0.463-1.471-0.463V36.76h7.271v0.305c-0.792,0-1.309,0.178-1.55,0.535c-0.242,0.357-0.363,0.848-0.363,1.471
			v10.867c0,0.686,0.137,1.193,0.41,1.523c0.273,0.328,0.773,0.494,1.503,0.494v0.283H257.493z"/>
		<path d="M272.951,40.596h-0.41c-0.28-0.969-0.725-1.73-1.334-2.287c-0.61-0.557-1.349-0.836-2.217-0.836
			c-0.428,0-0.819,0.088-1.173,0.258c-0.354,0.172-0.634,0.418-0.841,0.736c-0.206,0.318-0.31,0.686-0.31,1.098
			c0,0.238,0.04,0.473,0.121,0.705c0.08,0.23,0.274,0.516,0.583,0.85c0.308,0.338,0.777,0.709,1.408,1.115
			c0.707,0.441,1.139,0.721,1.292,0.84c0.883,0.555,1.604,1.068,2.165,1.545s0.988,0.992,1.282,1.545
			c0.294,0.555,0.441,1.182,0.441,1.881c0,0.645-0.125,1.232-0.373,1.76c-0.248,0.529-0.603,0.988-1.062,1.377
			c-0.458,0.389-1.005,0.691-1.639,0.904c-0.635,0.213-1.322,0.32-2.065,0.32c-0.764,0-1.646-0.145-2.647-0.432
			c-0.113-0.027-0.255-0.059-0.426-0.094c-0.172-0.035-0.325-0.053-0.458-0.053c-0.329,0-0.567,0.172-0.715,0.516h-0.367
			l0.094-4.373h0.411c0.133,0.828,0.418,1.518,0.856,2.07c0.437,0.555,0.933,0.955,1.486,1.205c0.553,0.248,1.096,0.371,1.629,0.371
			c0.778,0,1.42-0.217,1.929-0.65c0.507-0.436,0.762-0.963,0.762-1.586c0-0.422-0.107-0.787-0.32-1.1
			c-0.215-0.311-0.535-0.619-0.962-0.924c-0.428-0.305-1.233-0.836-2.417-1.592c-0.624-0.406-1.154-0.801-1.593-1.178
			c-0.438-0.379-0.779-0.74-1.023-1.088c-0.245-0.346-0.42-0.693-0.521-1.041c-0.101-0.346-0.151-0.715-0.151-1.107
			c0-0.756,0.194-1.504,0.583-2.238c0.389-0.736,0.94-1.338,1.655-1.803s1.53-0.699,2.449-0.699c0.427,0,0.837,0.043,1.229,0.127
			c0.105,0.014,0.246,0.043,0.421,0.09c0.174,0.045,0.322,0.082,0.44,0.109c0.31,0.057,0.54,0.084,0.694,0.084
			c0.238,0,0.404-0.039,0.499-0.115c0.095-0.078,0.184-0.189,0.268-0.338h0.326V40.596z"/>
		<path d="M286.4,36.76l0.127,3.467h-0.306c-0.139-0.582-0.295-1.061-0.467-1.439c-0.172-0.377-0.415-0.668-0.73-0.867
			c-0.314-0.199-0.746-0.299-1.293-0.299h-3.12v6.504h2.49c0.742,0,1.284-0.164,1.624-0.492c0.339-0.33,0.537-0.816,0.594-1.461
			h0.305v4.539h-0.305c-0.106-0.688-0.361-1.146-0.768-1.377s-0.891-0.346-1.45-0.346h-2.49v4.455c0,1.289,0.665,1.934,1.996,1.934
			h0.945c0.638,0,1.158-0.084,1.562-0.252c0.402-0.168,0.735-0.459,0.998-0.867c0.263-0.41,0.499-0.99,0.709-1.74h0.305l-0.23,3.721
			H275.23v-0.305c0.812,0,1.339-0.184,1.576-0.553c0.238-0.367,0.357-0.85,0.357-1.443V39.092c0-0.566-0.108-1.047-0.325-1.439
			c-0.218-0.393-0.719-0.588-1.504-0.588h-0.104V36.76H286.4z"/>
	</g>
	<path d="M48.667,41.787c-2.978,2.029-3.453,8.686-3.541,9.697c-0.048,0.559-1.251,0.936-1.118,1.352
		c0.313,0.982,3.791,0.979,4.116,0c0.123-0.369-0.267-1.199-0.358-2.363c-0.17-2.166,1.121-5.594,4.011-6.721
		c4.292-1.676,7.875,0.268,8.584,0.793c3.204,2.365,4.044,6.381,4.044,6.939c0,0.561-1.253,0.936-1.121,1.352
		c0.313,0.982,3.792,0.979,4.118,0c0.38-1.143-1.986-7.115-3.221-10.555c-1.232-3.439-3.146-10.525,1.001-16.202
		c4.144-5.67,11.479-6.553,12.373-6.598c0.892-0.044,1.057-0.408,1.1-0.44c0.045-0.033,1.423-2.889,2.437-4.112
		c1.017-1.223,1.621-0.918,2.269-1.388c0.66-0.479,1.885-1.686,1.535-2.226c-0.208-0.322-0.561-0.035-0.561-0.035
		s-0.088,0.353-6.614-0.396c-6.526-0.75-13.758-1.544-13.758-1.544s-1.013,0.089-0.398-0.97c0.618-1.057-0.44-1.367-1.19,0
		c-0.749,1.369-5.91,10.099-7.145,22.887c0,0-1.544,1.674-7.142,0.528c-4.741-0.97-8.977-2.032-11.421-1.872
		c-0.506,0.035-0.637,0.619-0.249,1.021c0.177,0.188,0.352,0.352,1.366,0.646c1.017,0.295,2.586,0.599,3.909,2.602
		C43.405,36.777,46.524,41.707,48.667,41.787"/>
	<path fill="#7F201C" d="M69.884,34.678C72.3,21.137,84.93,23.688,86.833,23.542c1.56-2.163,4.271-6.467,5.234-6.429
		c0.864,0.034,0.538,1.816,0.265,1.938c-1.088,0.477-4.316,3.851-4.011,4.914c0,0,0.6,0.156,1.63,0.463
		c2.241,0.668,11.398,5.628,9.468,15.779C97.5,50.371,90.258,54.361,85.032,53.83C79.81,53.289,67.332,48.818,69.884,34.678"/>
</g>
</svg>
