<svg xmlns="http://www.w3.org/2000/svg" viewBox="0 0 332 112">
  <style>
    .st0{fill:#231F20;}
	.st1{fill:#F9A31A;}
	.st2{fill:#981B1E;}
	.st3{fill:#32698A;}
	.st4{fill:#D6E9C7;}
  </style>
  <g>
  	<path d="M142 6.1h.6V14h-.6c-.7-1.9-1.5-3.4-2.4-4.5-.6-.7-1.4-1.4-2.4-2-1-.6-2-1-3.2-1.3-1.2-.3-2.4-.5-3.6-.5-.9 0-1.7.1-2.4.4-.7.3-1.3.6-1.8 1.1-.4.4-.6.7-.8 1.2-.2.4-.3.9-.3 1.3 0 .8.3 1.4.9 2 .3.3.7.5 1.2.8.5.3 1.2.5 2 .7.8.2 1.9.5 3.4.9.4.1.7.2.8.2l.8.2 1.3.3c2.2.6 3.8 1.1 4.8 1.5 1 .4 1.9 1 2.6 1.7.6.5 1 1.1 1.3 1.8.3.7.5 1.4.5 2.2 0 .8-.2 1.6-.5 2.4-.3.8-.8 1.5-1.5 2.1-.8.8-1.8 1.5-3 1.9-1.2.4-2.6.6-4.1.6-1.1 0-2.1-.1-3-.3-.9-.2-2.1-.6-3.4-1.2-.9-.4-1.6-.6-2-.7-.5-.1-.9-.2-1.3-.2-.8 0-1.4.2-2 .6-.5.4-.9 1-1.1 1.8h-.6V18.4h.6c.2 1.9 1 3.6 2.3 5.2.8.9 1.8 1.7 3 2.5s2.5 1.4 3.8 1.8c1.3.4 2.6.6 3.8.6 1.1 0 2-.2 2.9-.5.9-.4 1.6-.8 2.1-1.5.5-.6.7-1.3.7-2.1s-.3-1.6-1-2.3c-.3-.3-.7-.6-1.2-.8-.5-.3-1.1-.5-1.9-.8-.8-.3-1.8-.6-3.2-.9l-1.7-.4c-2.6-.7-4.4-1.2-5.4-1.6-1.1-.4-2-.8-2.6-1.2-.6-.4-1.2-.9-1.6-1.6-.7-.9-1-1.8-1-2.9 0-1.3.4-2.4 1.1-3.4s1.8-1.8 3.2-2.4c1.4-.6 2.9-.9 4.5-.9 2.5 0 5.1.7 7.8 2.1.9.5 1.6.7 1.9.7.7 0 1.3-.7 1.7-1.9z" class="st0"/>
    <path d="M146.8 5.6h27v11.7h-.5c-.3-2.9-1.2-5.4-2.6-7.5-1.8-2.4-4-3.6-6.7-3.6h-1.2v17.6c0 2.8 1.4 4.2 4.2 4.2h3.5v.6h-20.1V28h3.5c2.8 0 4.2-1.4 4.2-4.2V6.2h-1.5c-2.8 0-5 1.3-6.7 3.9-.8 1.3-1.5 2.8-1.9 4.5-.1.6-.3 1.5-.4 2.7h-.6V5.6z" class="st0"/>
    <path d="M176.5 5.6h16v.6h-1.8c-1.4 0-2.5.3-3.2 1-.7.7-1 1.7-1 3.2v11.7c0 1.3.3 2.5.9 3.4.6 1 1.5 1.7 2.7 2.2 1.2.5 2.5.8 4.1.8 1.4 0 2.7-.2 3.9-.6s2.2-1 2.9-1.7c1.3-1.3 2-3.2 2-5.6v-8.3c0-2.6-.8-4.4-2.3-5.4-.4-.3-.9-.5-1.4-.6-.5-.1-1.2-.2-2.1-.2v-.5h11.2v.6c-.7.1-1.2.1-1.7.3-.4.1-.8.4-1.3.7-.6.5-1.1 1.1-1.4 1.9-.3.8-.5 1.7-.5 2.8v9.2c0 2.4-.7 4.3-2 5.6-.7.7-1.5 1.2-2.4 1.5-1.8.7-3.9 1-6.3 1-1.8 0-3.4-.2-4.9-.5-1.5-.4-2.7-.9-3.6-1.5-1.8-1.2-2.7-3-2.7-5.4V10.4c0-2.8-1.4-4.2-4.2-4.2h-.9v-.6z" class="st0"/>
    <path d="M210 5.6h15.3c2.5 0 4.7.3 6.5.9 1.9.6 3.4 1.6 4.7 2.9 1.1 1.1 2 2.4 2.7 3.8.6 1.4.9 2.8.9 4.3 0 1.6-.3 3.1-1 4.5s-1.6 2.6-2.8 3.6c-1.2 1-2.7 1.8-4.4 2.3s-3.5.8-5.5.8H210v-.6h.8c1.4 0 2.5-.3 3.2-1 .7-.7 1-1.7 1-3.2V10.4c0-1.4-.3-2.5-1-3.2-.7-.7-1.7-1-3.2-1h-.8v-.6zm9.9.6V28h4.5c1.3 0 2.3-.1 3.2-.2.9-.1 1.7-.4 2.3-.7s1.2-.8 1.7-1.3c1.8-1.9 2.7-4.7 2.7-8.6 0-1.3-.1-2.5-.3-3.6-.2-1.1-.6-2.1-1-3-.4-.9-1-1.6-1.6-2.3-.5-.5-1.1-1-1.8-1.3-.7-.3-1.5-.6-2.3-.7-.9-.1-2-.2-3.2-.2h-4.2z" class="st0"/>
    <path d="M243.5 5.6H268v8.9h-.5c-.5-1.6-.9-2.7-1.2-3.5-.4-.8-.8-1.5-1.4-2.2-.7-.8-1.4-1.4-2.3-1.8-1.4-.6-3-.8-4.9-.8h-4.5v11h1.2c1.8 0 3.3-.8 4.3-2.3.6-.8 1-1.8 1.2-2.9.1-.5.3-1.2.4-2.1h.6V25h-.6c-.1-.8-.3-1.6-.5-2.3-.2-.7-.4-1.3-.6-1.8-.2-.5-.5-.9-.9-1.4-1-1.2-2.4-1.8-4.2-1.8h-1V28h3.8c1.1 0 2.1-.1 3-.2.9-.2 1.7-.4 2.4-.7.7-.3 1.4-.8 2-1.3 1.1-.9 1.9-2.1 2.5-3.4.3-.8.7-1.8 1.1-3.2h.6v9.5h-25.1v-.6h.6c2.8 0 4.2-1.4 4.2-4.2V10.4c0-1.4-.3-2.5-1-3.2-.7-.7-1.7-1-3.2-1h-.6v-.6z" class="st0"/>
    <path d="M271.6 5.6h9.3l16 16.6v-9.9c0-1.2-.2-2.3-.6-3.2-.4-.9-1-1.6-1.8-2.1-.4-.3-.8-.5-1.3-.6-.4-.1-1-.2-1.8-.2v-.6h11.4v.6h-.2c-1.7 0-2.9.5-3.8 1.6s-1.3 2.6-1.3 4.6v16.5h-.5L277.1 8.5v13.7c0 1.3.2 2.4.5 3.2.3.8.8 1.4 1.6 1.9.6.4 1.3.6 2.1.7.5.1 1.1.1 2 .2v.6h-12v-.6c1.2-.1 2.2-.3 3-.7.8-.4 1.3-.9 1.7-1.6.4-.7.6-1.6.6-2.7V10c0-.8-.2-1.5-.5-2-.4-.6-.9-1-1.6-1.3-.7-.3-1.5-.5-2.5-.5h-.3v-.6z" class="st0"/>
    <path d="M304.7 5.6h27v11.7h-.5c-.3-2.9-1.2-5.4-2.6-7.5-1.8-2.4-4-3.6-6.7-3.6h-1.2v17.6c0 2.8 1.4 4.2 4.2 4.2h3.5v.6h-20.1V28h3.5c2.8 0 4.2-1.4 4.2-4.2V6.2h-1.5c-2.8 0-5 1.3-6.7 3.9-.8 1.3-1.5 2.8-1.9 4.5-.1.6-.3 1.5-.4 2.7h-.6V5.6z" class="st0"/>
    <path d="M120.2 46.2h15.3c2.5 0 4.7.3 6.5.9 1.9.6 3.4 1.6 4.7 2.9 1.1 1.1 2 2.4 2.6 3.8.6 1.4.9 2.8.9 4.3 0 1.6-.3 3.1-1 4.5s-1.6 2.6-2.8 3.6c-1.2 1-2.7 1.8-4.4 2.3-1.7.5-3.5.8-5.5.8h-16.4v-.6h.8c1.4 0 2.5-.3 3.2-1 .7-.7 1-1.7 1-3.2V51c0-1.4-.3-2.5-1-3.2-.7-.7-1.7-1-3.2-1h-.8v-.6zm9.9.6v21.8h4.5c1.3 0 2.3-.1 3.2-.2.9-.1 1.7-.4 2.3-.7.7-.3 1.2-.8 1.7-1.3 1.8-1.9 2.7-4.7 2.7-8.6 0-1.3-.1-2.5-.3-3.6-.2-1.1-.6-2.1-1-3-.4-.9-1-1.6-1.6-2.3-.5-.5-1.1-1-1.8-1.3-.7-.3-1.5-.6-2.3-.7-.9-.1-2-.2-3.2-.2h-4.2z" class="st0"/>
    <path d="M154.5 68.6h.6c1.4 0 2.5-.3 3.2-1 .7-.7 1-1.7 1-3.2.1-.6.2-1.1.2-1.6s.1-1 .1-1.6V59c0-3.8-.2-6.6-.3-8.5-.1-.8-.2-1.4-.4-1.8-.2-.4-.5-.8-.8-1.1-.7-.6-1.7-.9-3-.9h-.6v-.6H169v.6h-.6c-1.4 0-2.5.3-3.2 1-.7.7-1 1.7-1 3.2v13.4c0 1.4.3 2.5 1 3.2.7.7 1.7 1 3.1 1h.6v.6h-14.5v-.5z" class="st0"/>
    <path d="M198.1 46.3h.6l.2 10h-.5c-.4-1.2-.7-2.2-1-2.9-.3-.7-.7-1.3-1.1-1.9-1.1-1.6-2.4-2.8-4.1-3.7-1.6-.9-3.3-1.4-5.1-1.4-.9 0-1.8.2-2.7.5-.9.3-1.6.8-2.2 1.3-.9.9-1.6 2.2-2 3.8-.4 1.6-.6 3.7-.6 6.2 0 .8 0 1.5.1 2.3.1.7.2 1.4.3 2 .1.6.2 1.1.4 1.7.2.6.3 1 .5 1.4.3.6.7 1.1 1.2 1.5.4.4.9.8 1.5 1.1s1.2.6 1.9.7c.7.1 1.4.2 2.1.2.9 0 1.9-.1 2.8-.4.9-.2 1.7-.5 2.3-.9 1.1-.7 1.6-1.8 1.6-3v-1.2c0-2.8-1.4-4.2-4.2-4.2h-2v-.6h15.8v.6h-.5c-1.4 0-2.5.3-3.2 1-.7.7-1 1.7-1 3.2V69h-.6c-.5-.5-.9-.8-1.3-.9-.4-.2-.8-.2-1.4-.2-.5 0-.9 0-1.3.1s-1 .3-1.7.6c-1.2.4-2.2.7-2.9.9-.7.1-1.6.2-2.6.2-1.9 0-3.7-.3-5.4-.9s-3.1-1.4-4.4-2.5c-1.2-1.1-2.2-2.3-2.9-3.8-.7-1.5-1-3-1-4.7 0-1 .1-2 .4-3s.6-1.9 1.1-2.7c.5-.8 1.1-1.7 1.8-2.4.9-.8 1.8-1.6 2.8-2.1 1-.6 2.1-1 3.3-1.4 1.2-.3 2.3-.5 3.4-.5s2.3.1 3.4.4c1.1.3 2.3.8 3.6 1.4 1 .5 1.7.7 2.1.7.4 0 .8-.2 1.2-.5.4-.1.8-.6 1.3-1.4z" class="st0"/>
    <path d="M206.3 68.6h.6c1.4 0 2.5-.3 3.2-1 .7-.7 1-1.7 1-3.2.1-.6.2-1.1.2-1.6s.1-1 .1-1.6V59c0-3.8-.2-6.6-.3-8.5-.1-.8-.2-1.4-.4-1.8-.2-.4-.5-.8-.8-1.1-.7-.6-1.7-.9-3-.9h-.6v-.6h14.5v.6h-.6c-1.4 0-2.5.3-3.2 1-.7.7-1 1.7-1 3.2v13.4c0 1.4.3 2.5 1 3.2.7.7 1.7 1 3.1 1h.6v.6h-14.5v-.5z" class="st0"/>
    <path d="M223.6 46.2h27v11.7h-.5c-.3-2.9-1.2-5.4-2.6-7.5-1.8-2.4-4-3.6-6.7-3.6h-1.2v17.6c0 2.8 1.4 4.2 4.2 4.2h3.5v.6h-20.1v-.6h3.5c2.8 0 4.2-1.4 4.2-4.2V46.8h-1.5c-2.8 0-5 1.3-6.7 3.9-.8 1.3-1.5 2.8-1.9 4.5-.1.6-.3 1.5-.4 2.7h-.6V46.2z" class="st0"/>
    <path d="M264.5 45.8h.6l9.3 20.2c.3.6.6 1.1 1 1.6.4.4.8.7 1.2.9.5.2 1 .3 1.6.3h.6v.6h-13.4v-.6h1.8c.9 0 1.5-.1 1.9-.4.4-.2.6-.6.6-1.1 0-.3-.1-.7-.2-1.1-.2-.4-.5-1.2-1-2.4 0-.1-.1-.2-.1-.3s-.1-.3-.2-.4l-.4-.8H258l-.7 1.7c-.2.6-.4 1.2-.4 1.8 0 .5.1 1 .4 1.5.3.5.6.9 1.1 1.1.3.2.6.3.8.4.2.1.6.1 1 .1v.6h-9.4v-.6c.7-.1 1.2-.2 1.6-.4.4-.2.9-.4 1.3-.8 1.2-.9 2.3-2.6 3.4-5.1l7.4-16.8zm-1.8 5.4l-4.5 10.3h9.2l-4.7-10.3z" class="st0"/>
    <path d="M280.7 46.2h15.7v.6h-1.7c-1.4 0-2.5.3-3.2 1-.7.7-1 1.7-1 3.2v17.7h6c1.2 0 2.3-.3 3.3-.8s2-1.3 2.7-2.2c.5-.6.9-1.2 1.2-1.7.4-.6.7-1.3 1-2.1.3-.8.6-1.8.9-2.8h.6v10.2h-25.7v-.6h.9c2.8 0 4.2-1.4 4.2-4.2V51c0-2.8-1.4-4.2-4.2-4.2h-.8v-.6z" class="st0"/>
    <path d="M146.6 86.9h.6l.2 10h-.5c-.4-1.2-.7-2.2-1-2.9-.3-.7-.7-1.3-1.1-1.9-1.1-1.6-2.4-2.8-4.1-3.7-1.6-.9-3.3-1.4-5.1-1.4-.9 0-1.8.2-2.7.5-.9.3-1.6.8-2.2 1.3-.9.9-1.6 2.2-2 3.8-.4 1.6-.6 3.7-.6 6.2 0 .8 0 1.5.1 2.3.1.7.2 1.4.3 2s.2 1.1.4 1.7c.2.6.3 1 .5 1.4.3.6.7 1.1 1.2 1.5.4.4.9.8 1.5 1.1.6.3 1.2.6 1.9.7.7.1 1.4.2 2.1.2.9 0 1.9-.1 2.8-.4.9-.2 1.7-.5 2.3-.9 1.1-.7 1.6-1.8 1.6-3v-1.2c0-2.8-1.4-4.2-4.2-4.2h-2v-.6h15.8v.6h-.5c-1.4 0-2.5.3-3.2 1-.7.7-1 1.7-1 3.2v5.4h-.6c-.5-.5-.9-.8-1.3-.9-.4-.2-.8-.2-1.4-.2-.5 0-.9 0-1.3.1s-1 .3-1.7.6c-1.2.4-2.2.7-2.9.9-.7.1-1.6.2-2.6.2-1.9 0-3.7-.3-5.4-.9-1.7-.6-3.1-1.4-4.4-2.5-1.2-1.1-2.2-2.3-2.9-3.8-.7-1.5-1-3-1-4.7 0-1 .1-2 .4-3 .3-1 .6-1.9 1.1-2.7.5-.8 1.1-1.7 1.8-2.4.9-.8 1.8-1.6 2.8-2.1 1-.6 2.1-1 3.3-1.4 1.1-.3 2.3-.5 3.4-.5s2.3.1 3.4.4c1.1.3 2.3.8 3.6 1.4 1 .5 1.7.7 2.1.7.4 0 .8-.2 1.2-.5.4-.1.9-.7 1.3-1.4z" class="st0"/>
    <path d="M167.3 86.3h.6l9.3 20.2c.3.6.6 1.1 1 1.6.4.4.8.7 1.2.9.5.2 1 .3 1.6.3h.6v.6h-13.4v-.6h1.8c.9 0 1.5-.1 1.9-.4.4-.2.6-.6.6-1.1 0-.3-.1-.7-.2-1.1-.2-.4-.5-1.2-1-2.4 0-.1-.1-.2-.1-.3-.1-.2-.1-.3-.2-.4l-.4-.8h-9.8l-.7 1.7c-.2.6-.4 1.2-.4 1.8 0 .5.1 1 .4 1.5.3.5.6.9 1.1 1.1.3.2.6.3.8.4.2.1.6.1 1 .1v.6h-9.4v-.6c.7-.1 1.2-.2 1.6-.4.4-.2.9-.4 1.3-.8 1.2-.9 2.3-2.6 3.4-5.1l7.4-16.8zm-1.7 5.4l-4.5 10.3h9.2l-4.7-10.3z" class="st0"/>
    <path d="M183.5 86.8h15.7v.6h-1.7c-1.4 0-2.5.3-3.2 1-.7.7-1 1.7-1 3.2v17.7h6c1.2 0 2.3-.3 3.3-.8s2-1.3 2.7-2.2c.5-.6.9-1.2 1.2-1.7.4-.6.7-1.3 1-2.1.3-.8.6-1.8.9-2.8h.6v10.2h-25.7v-.6h.9c2.8 0 4.2-1.4 4.2-4.2V91.6c0-2.8-1.4-4.2-4.2-4.2h-.8v-.6z" class="st0"/>
    <path d="M211.4 86.8h15.7v.6h-1.7c-1.4 0-2.5.3-3.2 1-.7.7-1 1.7-1 3.2v17.7h6c1.2 0 2.3-.3 3.3-.8s2-1.3 2.7-2.2c.5-.6.9-1.2 1.2-1.7.4-.6.7-1.3 1-2.1.3-.8.6-1.8.9-2.8h.6v10.2h-25.7v-.6h.9c2.8 0 4.2-1.4 4.2-4.2V91.6c0-2.8-1.4-4.2-4.2-4.2h-.8v-.6z" class="st0"/>
    <path d="M239.3 86.8h24.5v8.9h-.5c-.5-1.6-.9-2.7-1.2-3.5-.4-.8-.8-1.5-1.4-2.2-.7-.8-1.4-1.4-2.3-1.8-1.4-.6-3-.8-4.9-.8H249v11h1.2c1.8 0 3.3-.8 4.3-2.3.6-.8 1-1.8 1.2-2.9.1-.5.3-1.2.4-2.1h.6v15.1h-.6c-.1-.8-.3-1.6-.5-2.3-.2-.7-.4-1.3-.6-1.8-.2-.5-.5-.9-.9-1.4-1-1.2-2.4-1.8-4.2-1.8h-1v10.3h3.8c1.1 0 2.1-.1 3-.2.9-.2 1.7-.4 2.4-.7.7-.3 1.4-.8 2-1.3 1.1-.9 1.9-2.1 2.5-3.4.3-.8.7-1.8 1.1-3.2h.6v9.5h-25.1v-.6h.6c2.8 0 4.2-1.4 4.2-4.2V91.6c0-1.4-.3-2.5-1-3.2-.7-.7-1.7-1-3.2-1h-.6v-.6z" class="st0"/>
    <path d="M282.7 98.6h-5.2v6.5c0 1.4.3 2.5 1 3.2.7.7 1.7 1 3.2 1h.7v.6h-14.6v-.6h.6c1.4 0 2.5-.3 3.2-1 .7-.7 1-1.7 1-3.2V91.6c0-1.4-.3-2.5-1-3.2-.7-.7-1.7-1-3.2-1h-.6v-.6h17.9c2.4 0 4.3.2 5.7.5 1.4.4 2.5.9 3.4 1.8.5.5.8 1 1.1 1.7.3.6.4 1.3.4 1.9 0 1.7-.9 3.1-2.7 4.2-.7.4-1.6.7-2.7 1-1.2.3-2.3.5-3.5.6-.9.1-2.2.1-4 .1v.1c.9.6 1.7 1 2.4 1.4.7.4 1.4.7 2.2.9.7.3 1.6.5 2.5.7l.5.8c.4.5.6.9.8 1.2l.6.9c.6.9 1.2 1.7 1.8 2.4.6.7 1 1.2 1.4 1.4.7.5 1.7.7 3.1.7h.6v.6h-8.7l-7.9-11.1zm-5.2-.6h6.6c1.6 0 2.8-.2 3.8-.6 1-.4 1.7-1 2.2-1.7.5-.8.7-1.8.7-3 0-3.5-2.2-5.3-6.7-5.3h-6.7V98z" class="st0"/>
    <path d="M298.1 86.8h14.8v.6h-1.7c-.7 0-1.2.1-1.6.4-.4.3-.6.6-.6 1.1 0 .2.1.4.2.7.1.2.4.7 1 1.5l5.7 7.9 5.1-6.8c.7-.9 1-1.6 1-2.3 0-.7-.3-1.3-.9-1.8-.6-.5-1.4-.7-2.4-.7h-1.5v-.6h11.9v.6c-.8.1-1.5.2-2.1.4-.6.2-1.2.5-1.7.8-.5.3-1.1.8-1.6 1.3s-1.1 1.2-1.6 1.8l-5.8 7.7v5.6c0 1.4.3 2.5 1 3.2.7.7 1.7 1 3.2 1h1.6v.6h-16.4v-.6h1.6c1.4 0 2.5-.3 3.2-1 .7-.7 1-1.7 1-3.2v-5l-6.9-9.4c-.9-1.2-1.7-2.1-2.6-2.5-.8-.5-1.9-.7-3.3-.7h-.4v-.6z" class="st0"/>
  </g>
  <g>
	<path d="M-.2 56.1h56.4v56.4H-.2z" class="st1"/>
	<path d="M9.5 112.3c1.3-1.2 2.7-3.4 4-5.1 1.3-1.7 2.2-2.3 2.8-4.3l1.7-5.1.4-2.7c-.3-.6-1.4-1.1-1.7-1.7-.5-.7-.7-1.6-1.2-2.4-.7-1.3-1.1-2.1-2.2-3.1-2.4-2.2-3.6-4.7-3.7-7.6 0-1.1-.3-2.2-.7-3.2-.4-.9-.5-2.3-.4-3.4.1-1.5.5-2.4.8-4.4.1-.4.4-1.2.6-1.5.1-.4 0-.5.2-.9.2-.3.5-.7.7-1.1.2-.3 0-.7.2-1.1.1-.4.4-.4.6-.8.1-.4.4-.9.7-1.2.2-.3 1.2-1 1.5-1.1.6-1.2 1.3-2.4 2.7-2.8 1.1-.3 2.7-1.1 4.1-1.8 1.5-.7 2.7-.4 4.4-.4 1.4-.1 3.1-.7 4.5-.5.8.1 1.7.5 2.6.6.9.1 1.8-.1 2.6.2.5.2.9.5 1.4.6.3.1.7 0 1 .2.3.1.6.5.9.6.4.2.7.2 1.1.3.5.2 1 .5 1.5.8.6.4 2.1.7 2.4 1.3.8 1.7 1 3.1 1 5l-.2.4c.5 1.7 1.7 3.9 2.4 5.5.7 1.5.5 2.2.8 3.8.1 1.5-.5 1.8-.5 2.9-.2 1 1.5 2.7 1.8 3.3 1.2 2.1 3.5 4.3-.3 5.5l-.5.4c-.3 1 .2 2.2-.1 2.7-.3.4-.4.5-.8.6.7.7.5 1.1.3 1.5-.1.4-.6.7-.5 1 .1.4-.2 1.1-.1 1.9.1.5.3 2.1-.2 2.8-.9 1.2-2.7 1.6-3.9 1.8-1.4.2-2.8-.2-3.4.4-.9.8-.9 3-1.3 4.3-.2.5-.4 1.5-.6 2.5-.5 2-.7 3.3-.3 5.4l-27.1-.1z" class="st0"/>
    <path d="M26.4 87.3l.7-.7c1.5-1.3 2.7-2.6 3.6-3.7.9-1.2 1.7-2.4 2.3-3.9.6-1.4 1.1-3.1 1.6-5.1.9-4 .8-7.3-.2-9.7-1.1-2.4-3.1-4-6.1-4.6-2-.5-4.1-.5-6.2-.2-2.1.3-4 1-5.8 2-1 .6-1.6 1.2-1.7 2-.1.5 0 .9.3 1.1.3.3.9.6 1.8.9 1 .4 1.9.8 2.5 1.3 1 .7 1.6 1.6 2 2.7.4 1.1.4 2.2.1 3.3-.4 1.8-1.4 3.1-2.9 4.1-1.5.9-3.2 1.2-5.1.8-1.9-.4-3.3-1.5-4.3-3.2-.9-1.7-1.2-3.7-.7-5.8.5-2.2 1.6-4.1 3.3-5.9 1.7-1.7 3.8-3 6.3-3.9 3.5-1.1 7.4-1.2 11.7-.3 3.1.7 5.8 1.7 8.2 2.9 2.4 1.3 4.4 2.7 6 4.4 1.6 1.7 2.7 3.5 3.3 5.5.6 2 .7 4 .2 6-.6 2.8-2.1 5-4.3 6.7-2.2 1.7-5.6 2.9-10.1 3.8-2.1.2-3.9.7-5.1 1.2-1.2.5-2.1 1.2-2.8 1.9s-1.2 2-1.7 3.5l-1.6-.3c.6-1.7 1.2-3 1.8-3.9.7-.9 1.6-1.9 2.9-2.9zm-13.7 25.3c-.7-1.7-.7-3.4 0-5.1.5-1.1 1.2-2 2.1-2.7 1-.7 2-1.2 3.2-1.3 1.2-.2 2.3 0 3.4.4 1.8.7 3 2 3.7 3.7.7 1.7.6 3.3-.1 5H12.7z" class="st1"/>
  </g>
  <g>
	<path d="M56.1 56.1h56.4v56.4H56.1z" class="st2"/>
	<path d="M65.9 112.5c1.3-1.2 2.6-3.5 3.9-5.2 1.3-1.7 2.2-2.3 2.8-4.3l1.7-5.1.4-2.7c-.3-.6-1.4-1.1-1.7-1.7-.5-.7-.7-1.6-1.2-2.4-.7-1.3-1.1-2.1-2.2-3.1-2.4-2.2-3.6-4.7-3.7-7.6 0-1.1-.3-2.2-.7-3.2-.4-.9-.5-2.3-.4-3.4.1-1.5.5-2.4.8-4.4.1-.4.4-1.2.6-1.5.1-.4 0-.5.2-.9.2-.3.5-.7.7-1.1.2-.3 0-.7.2-1.1.1-.4.4-.4.6-.8.1-.4.4-.9.7-1.2.2-.3 1.2-1 1.5-1.1.6-1.2 1.3-2.4 2.7-2.8 1.1-.3 2.7-1.1 4.1-1.8 1.5-.7 2.7-.4 4.4-.4 1.4-.1 3.1-.7 4.5-.5.8.1 1.7.5 2.6.6.9.1 1.8-.1 2.6.2.5.2.9.5 1.4.6.3.1.7 0 1 .2.3.1.6.5.9.6.4.2.7.2 1.1.3.5.2 1 .5 1.5.8.6.4 2.1.7 2.4 1.3.8 1.7 1 3.1 1 5l-.2.4c.5 1.7 1.7 3.9 2.4 5.5.7 1.5.5 2.2.8 3.8.1 1.5-.5 1.8-.5 2.9-.2 1 1.5 2.7 1.8 3.3 1.2 2.1 3.5 4.3-.3 5.5l-.5.4c-.3 1 .2 2.2-.1 2.7-.3.4-.4.5-.8.6.7.7.5 1.1.3 1.5-.1.4-.6.7-.5 1 .1.4-.2 1.1-.1 1.9.1.5.3 2.1-.2 2.8-.9 1.2-2.7 1.6-3.9 1.8-1.4.2-2.8-.2-3.4.4-.9.8-.9 3-1.3 4.3-.2.5-.4 1.5-.6 2.5-.5 2-.7 3.3-.3 5.4h-27z" class="st0"/>
    <path d="M82.7 87.2l.7-.7c1.5-1.3 2.7-2.6 3.6-3.7.9-1.2 1.7-2.4 2.3-3.9.6-1.4 1.1-3.1 1.6-5.1.9-4 .8-7.3-.2-9.7-1.1-2.4-3.1-4-6.1-4.6-2-.5-4.1-.5-6.2-.2-2.1.3-4 1-5.8 2-1 .6-1.6 1.2-1.7 2-.1.5 0 .9.3 1.1s.9.6 1.8.9c1 .4 1.9.8 2.5 1.3 1 .7 1.6 1.6 2 2.7.4 1.1.4 2.2.1 3.3-.4 1.8-1.4 3.1-2.9 4.1-1.5.9-3.2 1.2-5.1.8-1.9-.4-3.3-1.5-4.3-3.2-.9-1.7-1.2-3.7-.7-5.8.5-2.2 1.6-4.1 3.3-5.9 1.7-1.7 3.8-3 6.3-3.9 3.5-1.1 7.4-1.2 11.7-.3 3.1.7 5.8 1.7 8.2 2.9 2.4 1.3 4.4 2.7 6 4.4 1.6 1.7 2.7 3.5 3.3 5.5.6 2 .7 4 .2 6-.6 2.8-2.1 5-4.3 6.7-2.2 1.7-5.6 2.9-10.1 3.8-2.3.4-4.1.9-5.3 1.4-1.2.5-2.1 1.2-2.8 1.9-.6.8-1.2 2-1.7 3.5l-1.6-.3c.6-1.7 1.2-3 1.8-3.9.9-1.1 1.9-2 3.1-3.1zM69 112.5c-.7-1.7-.7-3.4 0-5.1.5-1.1 1.2-2 2.1-2.7 1-.7 2-1.2 3.2-1.3 1.2-.2 2.3 0 3.4.4 1.8.7 3 2 3.7 3.7.7 1.7.6 3.3-.1 5H69z" class="st2"/>
  </g>
  <g>
	<path d="M-.3-.3h56.4v56.4H-.3z" class="st3"/>
	<path d="M9.4 55.9c1.3-1.2 2.7-3.4 4-5.1 1.3-1.7 2.2-2.3 2.8-4.3l1.7-5.1.4-2.7c-.3-.7-1.4-1.2-1.7-1.7-.5-.7-.7-1.6-1.2-2.4-.7-1.3-1.1-2.1-2.2-3.1-2.4-2.2-3.6-4.7-3.7-7.6 0-1.1-.3-2.2-.7-3.2-.4-.9-.5-2.3-.4-3.4 0-1.3.4-2.3.7-4.3.1-.4.4-1.2.6-1.5.1-.4 0-.5.2-.9.2-.3.5-.7.7-1.1.2-.3 0-.7.2-1.1.1-.4.4-.4.6-.8.1-.4.4-.9.7-1.2.2-.3 1.2-1 1.5-1.1.6-1.2 1.3-2.4 2.7-2.8 1.1-.3 2.7-1.1 4.1-1.8C21.8 0 23 .4 24.7.3c1.4-.1 3.1-.7 4.5-.5.8.1 1.7.5 2.6.6.9.1 1.8-.1 2.6.2.5.2.9.5 1.4.6.3.1.7 0 1 .2.3.1.6.5.9.6.4.2.7.2 1.1.3.5.2 1 .5 1.5.8.6.4 2.1.7 2.4 1.3.8 1.7 1 3.1 1 5l-.2.4c.5 1.7 1.7 3.9 2.4 5.5.7 1.5.5 2.2.8 3.8.1 1.5-.5 1.8-.5 2.9-.2 1 1.5 2.7 1.8 3.3 1.2 2.1 3.5 4.3-.3 5.5l-.5.4c-.3 1 .2 2.2-.1 2.7-.3.4-.4.5-.8.6.7.7.5 1.1.3 1.5-.1.4-.6.7-.5 1 .1.4-.2 1.1-.1 1.9.1.5.3 2.1-.2 2.8-.9 1.2-2.7 1.6-3.9 1.8-1.4.2-2.8-.2-3.4.4-.9.8-.9 3-1.3 4.3-.2.5-.4 1.5-.6 2.5-.5 2-.7 3.3-.3 5.4l-26.9-.2z" class="st0"/>
    <path d="M26.3 30.8l.7-.7c1.5-1.3 2.7-2.6 3.6-3.7.9-1.2 1.7-2.4 2.3-3.9.6-1.4 1.1-3.1 1.6-5.1.9-4 .8-7.3-.2-9.7-1.1-2.4-3.1-4-6.1-4.6-2-.5-4.1-.5-6.2-.2-2.1.3-4 1-5.8 2-1 .6-1.6 1.2-1.7 2-.1.5 0 .9.3 1.1.3.3.9.6 1.8.9 1 .4 1.9.8 2.5 1.3 1 .7 1.6 1.6 2 2.7.4 1.1.4 2.2.1 3.3-.2 1.8-1.2 3.1-2.7 4-1.5.9-3.2 1.2-5.1.8-1.9-.4-3.3-1.5-4.3-3.2-.9-1.8-1.1-3.7-.6-5.9.5-2.1 1.5-4.1 3.2-5.8 1.7-1.7 3.8-3 6.3-3.9 3.5-1.1 7.4-1.2 11.7-.3 3.1.7 5.8 1.7 8.2 2.9 2.4 1.3 4.4 2.7 6 4.4 1.6 1.7 2.7 3.5 3.3 5.5.6 2 .7 4 .2 6-.6 2.8-2.1 5-4.3 6.7-2.2 1.7-5.6 2.9-10.1 3.8-2.3.4-4.1.9-5.3 1.4-1.2.5-2.1 1.2-2.8 1.9-.6.8-1.2 2-1.7 3.5l-1.6-.3c.6-1.7 1.2-3 1.8-3.9.7-.9 1.7-1.9 2.9-3zM12.7 56.1c-.7-1.7-.7-3.4 0-5.1.5-1.1 1.2-2 2.1-2.7 1-.7 2-1.2 3.2-1.3 1.2-.2 2.3 0 3.4.4 1.8.7 3 2 3.7 3.7.7 1.7.6 3.3-.1 5H12.7z" class="st3"/>
  </g>
  <g>
	<path d="M56.1-.3h56.4v56.4H56.1z" class="st4"/>
	<path d="M65.7 56.1c1.3-1.2 2.8-3.5 4.2-5.1 1.3-1.7 2.2-2.3 2.8-4.3l1.7-5.1.4-2.7c-.3-.6-1.4-1.1-1.7-1.7-.5-.7-.7-1.6-1.2-2.4-.7-1.3-1.1-2.1-2.2-3.1-2.4-2.2-3.6-4.7-3.7-7.6 0-1.1-.3-2.2-.7-3.2-.4-.9-.5-2.3-.4-3.4.1-1.5.5-2.4.8-4.4.1-.4.4-1.2.6-1.5.1-.4 0-.5.2-.9.2-.3.5-.7.7-1.1.2-.3 0-.7.2-1.1.1-.4.4-.4.6-.8.1-.4.4-.9.7-1.2.2-.3 1.2-1 1.5-1.1.6-1.2 1.3-2.4 2.7-2.8C74 2.3 75.6 1.5 77 .8c1.5-.7 2.7-.4 4.4-.4 1.4-.1 3.1-.7 4.5-.5.8.1 1.7.5 2.6.6.9.1 1.8-.1 2.6.2.5.2.9.5 1.4.6.3.1.7 0 1 .2.3.1.6.5.9.6.4.2.7.2 1.1.3.5.2 1 .5 1.5.8.2.5 1.7.8 2 1.4.8 1.7 1 3.1 1 5l-.1.4c.5 1.7 1.7 3.9 2.4 5.5.7 1.5.5 2.2.8 3.8.1 1.5-.5 1.8-.5 2.9-.2 1 1.5 2.7 1.8 3.3 1.2 2.1 3.5 4.3-.3 5.5l-.5.4c-.3 1 .2 2.2-.1 2.7-.3.4-.4.5-.8.6.7.7.5 1.1.3 1.5-.1.4-.6.7-.5 1 .1.4-.2 1.1-.1 1.9.1.5.3 2.1-.2 2.8-.9 1.2-2.7 1.6-3.9 1.8-1.4.2-2.8-.2-3.4.4-.9.8-.9 3-1.3 4.3-.2.5-.4 1.5-.6 2.5-.5 2-.8 3.3-.4 5.3l-26.9-.1z" class="st0"/>
    <path d="M82.8 30.8l.7-.7c1.5-1.3 2.7-2.6 3.6-3.7.9-1.2 1.7-2.4 2.3-3.9.6-1.4 1.1-3.1 1.6-5.1.9-4 .8-7.3-.2-9.7-1.1-2.4-3.1-4-6.1-4.6-2-.5-4.1-.5-6.2-.2-2.1.3-4 1-5.8 2-1 .6-1.6 1.2-1.7 2-.1.5 0 .9.3 1.1s.9.6 1.8.9c1 .4 1.9.8 2.5 1.3 1 .7 1.6 1.6 2 2.7.4 1.1.4 2.2.1 3.3-.4 1.8-1.4 3.1-2.9 4.1-1.5.9-3.2 1.2-5.1.8-1.9-.4-3.3-1.5-4.3-3.2-.9-1.7-1.2-3.7-.7-5.8.5-2.2 1.6-4.1 3.3-5.9 1.7-1.7 3.8-3 6.3-3.9C77.8 1.2 81.7 1.1 86 2c3.1.7 5.8 1.7 8.2 2.9 2.4 1.3 4.4 2.7 6 4.4 1.6 1.7 2.7 3.5 3.3 5.5.6 2 .7 4 .2 6-.6 2.8-2.1 5-4.3 6.7-2.2 1.7-5.6 2.9-10.1 3.8-2.3.4-4.1.9-5.3 1.4-1.2.5-2.1 1.2-2.8 1.9s-1.2 2-1.7 3.5l-1.6-.3c.6-1.7 1.2-3 1.8-3.9.9-1.1 1.8-2.1 3.1-3.1zM69.1 56.1c-.7-1.7-.7-3.4 0-5.1.5-1.1 1.2-2 2.1-2.7 1-.7 2-1.2 3.2-1.3 1.2-.2 2.3 0 3.4.4 1.8.7 3 2 3.7 3.7.7 1.7.6 3.3-.1 5H69.1z" class="st4"/>
  </g>
</svg>
